<svg width="181" height="146" viewBox="0 0 181 146" fill="none" xmlns="http://www.w3.org/2000/svg">
<path d="M5.91098 0.000472881L6.03664 0.00520169L6.12056 0.0122949L6.20448 0.0231712L6.28888 0.0373576L6.37331 0.055327L6.45819 0.0775524L6.5004 0.0903202L6.58481 0.119639L6.66922 0.153686L6.75363 0.192935L6.79584 0.214688L6.87976 0.261976L6.92195 0.288457L7.00589 0.345203C7.03354 0.365064 7.06119 0.386343 7.08932 0.408569L7.17229 0.478082L7.214 0.515913L7.29646 0.596303L7.37895 0.683313L7.46045 0.778834L7.50119 0.829433L7.58221 0.936777L7.66273 1.05263L7.74229 1.177L7.78207 1.24226L7.86067 1.38034C7.87376 1.40398 7.88686 1.4281 7.89948 1.45269L7.9771 1.60448L8.05472 1.76668L8.09256 1.85133L8.16774 2.02819L8.24245 2.21592L8.31619 2.41453L8.38896 2.62354L8.46075 2.84438L8.5311 3.07703L8.60046 3.32104L8.66887 3.57781L8.70282 3.71069L8.76929 3.98638L8.83429 4.27484L8.89832 4.57654L8.96042 4.89148L8.99147 5.05415L9.05162 5.38989L9.11081 5.7403L9.16805 6.10489L9.22385 6.48461L9.27768 6.87899L9.33057 7.28898L9.35626 7.49989L9.40623 7.93304L9.45474 8.38275L9.50084 8.84854L9.54547 9.33088L9.58815 9.82268L9.62891 10.3277L9.66771 10.8455L9.70459 11.3766L9.73952 11.9213L9.78802 12.7649L9.83168 13.6402L9.87146 14.5491L9.90688 15.492L9.92773 16.1399L9.9554 17.1424L9.9782 18.1804L9.99712 19.2562L10.0151 20.7505L10.0248 22.3157L10.0267 23.1248L10.0262 24.4039L10.0189 25.9626L10.0058 27.5836L9.98256 29.5829L9.95442 31.5705L9.92337 33.5367L9.7953 40.8356L9.77007 42.6779L9.76038 43.5646L9.75163 44.8466L9.75067 45.2603V46.5792L9.75455 47.2247L9.76231 47.8286L9.77687 48.571L9.80113 49.4023L9.81908 49.8515L9.83849 50.2667L9.86758 50.767L9.90833 51.3137L9.94278 51.6915L9.97916 52.0202L10.0068 52.2358L10.0165 52.3025C10.0578 52.2212 10.0999 52.1351 10.1426 52.0448L10.2736 51.7592L10.4095 51.448L10.4783 51.2834L10.619 50.9368C10.6433 50.8772 10.6666 50.8167 10.6908 50.7552L10.8363 50.3769L10.9106 50.1807L11.1362 49.5659L11.289 49.1356L11.4442 48.692L11.679 48.004L11.9958 47.0549L12.3135 46.0808L12.787 44.604L13.3231 42.912L13.8475 41.2333C13.9357 40.951 14.0245 40.6687 14.1143 40.3859L14.66 38.6949L14.9395 37.8366L15.2257 36.9703L15.3702 36.5352L15.6642 35.6651C16.4055 33.4922 17.1899 31.3558 17.9709 29.6094C18.0505 29.4307 18.1315 29.2514 18.2145 29.0741L18.4017 28.6788L18.5914 28.2948L18.7209 28.0432L18.8524 27.7964L18.9863 27.5543L19.1226 27.3183C19.1915 27.202 19.2609 27.0885 19.3312 26.9774L19.4738 26.7594C20.3349 25.476 21.3299 24.647 22.4961 24.969C23.9422 25.3379 24.6379 26.6724 24.9474 28.5175L24.993 28.8126C25.0003 28.8627 25.007 28.9129 25.0134 28.9639L25.0502 29.2713L25.0662 29.4274L25.0944 29.7461L25.1177 30.0714L25.1361 30.4034L25.1497 30.7415L25.1594 31.0853L25.1652 31.4343L25.1671 31.9667L25.1623 32.5091L25.1511 33.0596L25.1385 33.5235L25.1167 34.1798L25.0497 36.0255L25.0352 36.5948L25.0245 37.1835L25.0216 37.6314L25.0236 38.0773L25.0279 38.3714L25.0347 38.6608L25.0454 38.9446L25.059 39.2198L25.0764 39.4865L25.0978 39.7418L25.1099 39.8648L25.138 40.1012C25.2278 40.7878 25.3806 41.274 25.628 41.3652C26.2179 41.5638 26.8747 41.204 27.6922 40.5107L27.8998 40.331L28.0065 40.2355L28.2248 40.036L28.4499 39.8246L28.6837 39.6023L28.9253 39.3692L29.1504 39.1498L29.5206 38.7942C30.2026 38.143 30.908 37.5065 31.6793 37.0842C32.846 36.4454 33.9827 36.356 35.0577 36.8048C36.7444 37.5198 37.0156 39.5049 36.8497 41.6267L36.8235 41.9237L36.8089 42.0722L36.775 42.3706L36.7381 42.6685L36.6969 42.9664L36.6299 43.4104L36.5824 43.7036L36.4582 44.4219L36.3578 44.9776L36.2244 45.7361L36.0652 46.6341L35.9905 47.0729L35.942 47.376L35.8707 47.8399L35.8271 48.1515L35.7873 48.4608L35.7519 48.7658L35.7223 49.0633C35.7174 49.112 35.7135 49.1602 35.7097 49.2084L35.6902 49.4893C35.6548 50.1282 35.6854 50.6479 35.8358 50.8857C36.041 50.7845 36.3044 50.5812 36.6129 50.2975L36.7852 50.1348L36.8749 50.0473L37.0592 49.8624L37.2523 49.6629L37.4522 49.4501L37.7641 49.1087L37.9795 48.8661L38.2007 48.6135L38.5413 48.2163L38.7741 47.9411L39.1297 47.5132L39.7376 46.7688L40.1082 46.3078L40.4817 45.8387L40.7486 45.501L41.3477 44.7369L41.9395 43.9751L43.0737 42.503C43.7597 41.6149 44.4558 40.7065 45.1621 39.8085L45.5983 39.2448L46.2337 38.4291L46.8484 37.6498L47.2462 37.1495L47.6352 36.6648L48.0151 36.1957L48.5681 35.5204L48.9261 35.0896L49.4471 34.4711L49.7843 34.0772L50.1132 33.6979L50.4344 33.3334L50.7473 32.9834L51.0529 32.6472L51.3507 32.3256L51.6418 32.0178L51.9251 31.7237L52.0639 31.5818L52.337 31.309L52.6028 31.0489L52.7338 30.9245L52.9895 30.6852C53.0317 30.646 53.0734 30.6081 53.1156 30.5703L53.3615 30.3504C53.4426 30.2795 53.5226 30.2109 53.6017 30.1438L53.836 29.9504C53.9131 29.8879 53.9888 29.8274 54.064 29.7697L54.2862 29.6014L54.503 29.4458L54.6097 29.3725L54.8183 29.2354C56.1219 28.4069 57.1081 28.3142 57.9488 28.8112C58.9942 29.4127 59.2377 30.6876 58.512 33.1073L58.4097 33.4364L58.2957 33.7798L58.234 33.9566L58.1026 34.3207C58.0565 34.4451 58.0089 34.5714 57.959 34.7L57.8037 35.0934L57.6364 35.502L57.4569 35.9257C57.4257 35.9983 57.3943 36.0708 57.3628 36.1432L57.1653 36.5906L56.9553 37.053L56.7331 37.5321L56.4983 38.0272L56.2509 38.5388L55.9913 39.067L55.7187 39.6127L55.433 40.1755L55.1351 40.7557L54.8237 41.3539L54.3323 42.2855L53.9878 42.9286L53.6308 43.5911L53.0695 44.6205L52.6785 45.3303L52.2739 46.06L51.4235 47.5789L50.3024 49.5735L47.807 53.9807L47.0332 55.3563L46.289 56.6937L45.8044 57.5761L45.4527 58.2239L45.1136 58.8561L44.7896 59.4704L44.5829 59.8676L44.2879 60.4441L44.0144 60.9936L43.8446 61.3435L43.685 61.6792L43.5375 61.9994L43.4017 62.3039L43.3386 62.45L43.2222 62.729L43.1698 62.8614L43.0742 63.1121L43.0325 63.2303L43.1295 63.1579L43.3337 63L43.5515 62.825L43.7815 62.633L44.024 62.425L44.2778 62.2018L44.4088 62.0845L44.6785 61.8395L44.9584 61.5814L45.396 61.1699L45.8534 60.7321L46.3283 60.2701L46.9862 59.6203L47.6677 58.9375L48.1917 58.4069L49.2652 57.3084L49.9934 56.5565L50.9748 55.536L52.3428 54.1046L56.4163 49.8336L58.1947 47.978L59.3057 46.8279L59.6792 46.4426L60.4316 45.6708L61.1879 44.9005L61.9447 44.1354L62.3231 43.7556L63.0774 43.0047L63.4524 42.634L64.198 41.9043C65.4341 40.7027 66.6338 39.5782 67.7457 38.6008L68.1008 38.2915L68.4462 37.9955L68.7819 37.7118L69.1084 37.4417L69.4261 37.184L69.7346 36.9395L70.034 36.7078L70.325 36.4879L70.6079 36.2813L70.7456 36.1825L71.0158 35.9947L71.2778 35.8188L71.5315 35.6557C71.5728 35.6292 71.614 35.6037 71.6552 35.5786L71.8973 35.4334L72.1316 35.301C73.6306 34.4763 74.6542 34.4177 75.3829 35.0381C75.4469 35.0915 75.6836 35.2358 75.9417 35.4561C76.1984 35.68 76.446 35.9137 76.6839 36.1565C77.6144 36.9353 77.6959 38.2934 75.8049 41.6788L75.5866 42.0632C75.5109 42.1942 75.4328 42.328 75.3518 42.4652L75.0995 42.8841L74.9676 43.1007L74.6896 43.5471L74.3937 44.0119L74.0803 44.4962L73.748 45.0003L73.5748 45.2594L73.2144 45.7938L72.8345 46.348L72.4348 46.9239L72.2276 47.22L71.7979 47.8281L71.3477 48.4584L70.8766 49.111L70.3842 49.7872L69.87 50.4871L69.0584 51.5818L68.4894 52.3422L67.5924 53.5301L66.6435 54.7761L65.6374 56.086L62.034 60.7675L60.8993 62.2486L60.2283 63.1291L59.2892 64.3704L58.527 65.388L57.7916 66.382L57.0906 67.3434L56.6899 67.9014L56.1825 68.6188L55.7095 69.3026L55.3796 69.7906L55.172 70.1031L54.9755 70.4048L54.7024 70.8361L54.617 70.9732L54.4565 71.2395C54.4309 71.2819 54.4055 71.3245 54.3803 71.3671L54.2391 71.6135L54.1731 71.7317L54.0518 71.9564C54.0334 71.992 54.0151 72.0278 53.997 72.0637L53.8976 72.2666C53.8826 72.2992 53.8675 72.3309 53.8539 72.3621L54.0257 72.2737L54.2207 72.1677L54.44 72.0424L54.6844 71.8958L54.9556 71.727L55.2554 71.5336L55.7012 71.2357L55.9448 71.0683L56.3377 70.7931L56.7641 70.4871L57.2255 70.149L57.7242 69.7773L58.2656 69.3697L58.823 68.9427L59.3954 68.4982L59.9829 68.0367L60.8896 67.3155L61.5095 66.8166L62.4613 66.0449L63.4364 65.2476L65.1071 63.8729L66.4766 62.7418L68.2604 61.2664L69.6532 60.1206L70.6477 59.3087L71.5999 58.5369L72.511 57.8049L73.3822 57.1117L74.2142 56.4567L74.7478 56.0406L75.2645 55.642L76.0091 55.0745L76.7179 54.5425L77.3922 54.0465L77.823 53.7353L78.2392 53.4398L78.6409 53.1593L79.029 52.8936L79.2172 52.7664L79.5844 52.5233L79.9386 52.2944L80.2791 52.0802L80.6075 51.8802C80.9962 51.6455 81.3936 51.425 81.799 51.2191L82.0677 51.0877L82.1987 51.0262L82.451 50.9146C83.9776 50.2644 84.9081 50.3485 85.5596 50.9761C86.1582 51.5563 86.2882 52.3871 85.954 53.5622L85.888 53.7798C85.8637 53.8535 85.839 53.9287 85.8119 54.0049L85.7255 54.238L85.6785 54.3576L85.5766 54.6026C85.5232 54.7269 85.466 54.8546 85.4048 54.9856L85.2777 55.2514L85.2098 55.3871L85.0677 55.6661L84.9149 55.9527L84.7519 56.2487C84.7242 56.2988 84.6956 56.3494 84.6665 56.4L84.4885 56.7093L84.3002 57.028L84.1013 57.3557L83.8927 57.6929L83.6744 58.039L83.4455 58.3956L83.2063 58.7611L82.8289 59.3285L82.5645 59.7192L82.2899 60.1202L81.8591 60.741L81.4055 61.3856L81.0902 61.8282L80.5993 62.5129L79.909 63.4644L79.1784 64.4607L78.0044 66.0449L76.3691 68.2324L75.6065 69.2586L74.84 70.2999L74.2254 71.1454L73.6398 71.9616L73.1824 72.6089L72.8486 73.0884L72.4188 73.7155L72.1102 74.1746L71.8158 74.6225L71.6276 74.9133L71.3603 75.337L71.192 75.6103L71.0319 75.8751L70.8819 76.1319L70.7413 76.3797L70.6748 76.4998L70.5502 76.7325L70.4361 76.9547L70.3343 77.1661C70.3178 77.2001 70.3022 77.2337 70.2872 77.2673L70.2033 77.4607C70.048 77.8352 69.9704 78.135 69.9884 78.3402C70.2479 78.4916 70.8165 78.3336 71.55 77.9936L71.7867 77.8801L72.0331 77.7558L72.2888 77.6205L72.5522 77.4768L72.8224 77.324L73.0984 77.1632L73.3788 76.9963L73.8067 76.7353L74.2399 76.4643L74.8186 76.0922L75.5342 75.6207L76.0896 75.2471L76.9997 74.6244L79.0872 73.1769L79.876 72.6378L80.6546 72.1152L81.1159 71.8121L81.5729 71.518L82.0241 71.2338L82.4704 70.9609L82.7644 70.786L82.9104 70.7004L83.2005 70.5339L83.4867 70.3741L83.771 70.2209L84.0514 70.0743L84.1901 70.0038L84.4657 69.8686L84.7373 69.7409C84.8722 69.6794 85.0061 69.6208 85.138 69.565L85.4005 69.4586C87.2235 68.7427 88.7541 68.6836 89.7981 69.7873C90.4903 70.5136 90.4452 71.5407 89.6637 73.062L89.5409 73.2941L89.4754 73.4128L89.3362 73.6564C89.2877 73.7386 89.2377 73.8223 89.1858 73.9075L89.0243 74.1666L88.8516 74.4338L88.6682 74.7095L88.5727 74.8499L88.3723 75.1384L88.1613 75.4349L87.9391 75.7403L87.7062 76.0543L87.4617 76.3778L87.2065 76.7102L86.9398 77.0521L86.5201 77.5827L86.0748 78.135L85.7643 78.5152L85.2782 79.1049L84.7669 79.7178L84.0465 80.5718L83.2825 81.4688L82.0532 82.8979L80.0293 85.2358L79.4263 85.9357L78.8131 86.6521L78.264 87.298L77.5785 88.1114L77.0366 88.7621L76.6369 89.2477L76.2444 89.7291L75.6123 90.5179L75.249 90.9799L74.8997 91.4324L74.5669 91.8722L74.3544 92.1588L74.1507 92.4382L73.9556 92.7111L73.7698 92.9759L73.5947 93.2331L73.5108 93.3589L73.3512 93.6029L73.2032 93.8384L73.0674 94.0635L73.0039 94.1723L72.8865 94.3822L72.7826 94.5813C72.5721 95.0003 72.4581 95.3384 72.4659 95.5744C72.7278 95.6557 73.179 95.564 73.7519 95.3521L73.9726 95.2675L74.0871 95.2211L74.3233 95.1209L74.5688 95.0107L74.8235 94.892L75.0855 94.7643L75.3547 94.6296L75.7705 94.4135L76.1974 94.1841L76.487 94.0243L76.927 93.7765L77.2229 93.6067L77.5203 93.4341L77.8176 93.2592L78.3823 92.921L79.0178 92.5333L79.4326 92.276L80.2282 91.7762L80.787 91.4201L83.1035 89.9211L84.4957 89.0288L85.434 88.4372L86.1514 87.9927L86.67 87.6768L87.1726 87.3765L87.4986 87.185L87.8173 87.0006L88.1293 86.8242L88.4339 86.6549L88.7318 86.4937L89.0228 86.34L89.3066 86.1938L89.5841 86.0567L89.7199 85.9905L89.9868 85.8652L90.1177 85.8056L90.3748 85.6926L90.501 85.6396L90.7479 85.5399L90.988 85.4491L91.2219 85.3668L91.4489 85.294C92.7927 84.8835 93.7876 84.97 94.4765 85.6846C95.6709 86.8809 95.3487 88.5918 94.4716 90.5297L94.3431 90.8087L94.2073 91.0896L94.0651 91.3733L93.9171 91.6603L93.7643 91.9488L93.6072 92.2401L93.4461 92.5333L93.0265 93.2814L92.3493 94.4811L92.064 94.9965L91.8515 95.39L91.6439 95.7848L91.5095 96.0473L91.3795 96.3092L91.1942 96.697C91.1549 96.7826 91.1161 96.8672 91.0787 96.9524L90.9706 97.2025L90.8706 97.4479L90.7794 97.6877C90.435 98.633 90.3307 99.4165 90.7193 99.7953C90.9061 99.9731 91.3417 99.9045 91.9388 99.6681L92.1441 99.583L92.3599 99.4865L92.472 99.4336L92.7039 99.3201C92.7432 99.3007 92.783 99.2803 92.8232 99.2595L93.0687 99.1309L93.3229 98.9933L93.5844 98.8467L93.8526 98.6921L94.2669 98.4467L94.6924 98.1866L95.127 97.9142L95.4205 97.7269L96.0133 97.3411L96.6091 96.9453L97.3498 96.4426L98.0746 95.9418L98.6359 95.5493L100.043 94.5473L101.976 93.1561L103.092 92.3612L103.799 91.8642L104.479 91.3951L104.97 91.0617L105.445 90.7453L105.753 90.5439L106.203 90.2564L106.637 89.9868L106.919 89.8166L107.194 89.6553L107.594 89.4288L107.852 89.2888L108.104 89.1569L108.35 89.0344L108.589 88.9209C108.826 88.8122 109.053 88.7167 109.271 88.6353L109.485 88.5597C110.65 88.1662 111.541 88.2126 112.198 88.798C113.076 89.5839 113.04 90.8404 112.231 92.6472L112.1 92.9296C112.032 93.0733 111.96 93.2199 111.882 93.3698L111.721 93.6743C111.665 93.7792 111.607 93.8835 111.549 93.9874L111.364 94.3099L111.169 94.6409L110.962 94.9814L110.743 95.3313L110.513 95.6907C110.474 95.7512 110.434 95.8122 110.394 95.8732L110.147 96.2468L109.757 96.8237L109.342 97.4219L109.052 97.8333L108.598 98.4679L108.282 98.903L107.789 99.5745L107.273 100.268L106.55 101.229L105.789 102.23L104.785 103.539L103.056 105.773L101.323 108.003L100.382 109.226L99.5324 110.344L99.0036 111.047L98.4656 111.768L97.9242 112.503L97.5638 112.996L97.0486 113.71L96.4776 114.515L96.0318 115.154L95.6 115.785L95.2862 116.251L94.9834 116.71L94.6924 117.159L94.5056 117.453L94.3251 117.742L94.0671 118.164L93.9041 118.439L93.7488 118.706L93.6009 118.967L93.4616 119.221L93.3311 119.467L93.2098 119.704L93.0983 119.932L93.0459 120.044L92.9489 120.259C92.9339 120.293 92.9192 120.328 92.9047 120.363L92.8237 120.563C92.5593 121.248 92.4987 121.743 92.7151 121.97L92.7466 121.999L92.7757 122.006C92.7937 122.009 92.8118 122.01 92.83 122.011H92.8712L92.9406 122.006L93.0512 121.989L93.1604 121.964L93.2555 121.937L93.3995 121.89L93.5222 121.843L93.6571 121.787L93.8056 121.72L93.9671 121.641L94.1432 121.55L94.3339 121.445L94.4697 121.366L94.6118 121.282L94.7613 121.19L94.999 121.039L95.1663 120.928L95.4317 120.748L95.618 120.617L95.9124 120.405L96.2253 120.173L96.4436 120.006L96.6716 119.83L96.9074 119.644L97.2776 119.346L97.5356 119.134L98.0789 118.677L98.5107 118.305L98.811 118.042L99.2791 117.624L99.7696 117.18C101.733 115.383 103.907 113.203 106.085 110.926L106.957 110.01L107.391 109.55L108.258 108.626L109.118 107.703L109.969 106.783L110.807 105.871L112.034 104.526L113.6 102.799L114.983 101.267L116.357 99.7381L118.388 97.4683L121.141 94.3818L122.791 92.5394L124.295 90.8673L125.4 89.6482L126.42 88.5299L127.361 87.5085L128.016 86.8048L128.632 86.1522L129.019 85.7446L129.39 85.3583L129.915 84.8192L130.405 84.3255L130.861 83.8767L131.147 83.6015L131.42 83.3447L131.679 83.1064L131.925 82.8856L132.159 82.6822C132.311 82.5522 132.455 82.4335 132.592 82.3252L132.792 82.1706C132.857 82.1219 132.92 82.0755 132.982 82.0315L133.162 81.9077C134.184 81.2267 134.73 81.2882 135.243 81.6826L135.312 81.7417L135.376 81.8027L135.436 81.866L135.464 81.8991L135.517 81.9663C135.534 81.9895 135.55 82.0131 135.565 82.0372L135.607 82.1105C135.614 82.1233 135.621 82.1361 135.627 82.1488L135.662 82.2278C135.679 82.2685 135.693 82.3101 135.706 82.3536L135.728 82.443C135.735 82.4732 135.74 82.5044 135.745 82.5361L135.756 82.6345L135.763 82.7376C135.764 82.7905 135.764 82.8454 135.761 82.9021L135.753 83.0189L135.739 83.1409L135.72 83.2696L135.693 83.4043L135.662 83.5452L135.643 83.6185L135.603 83.7699L135.58 83.8479L135.529 84.0101L135.442 84.2673L135.375 84.4489L135.302 84.6381L135.222 84.8357L135.135 85.0419L135.042 85.2571L134.941 85.4812L134.778 85.8349L134.66 86.0832L134.469 86.4733L134.189 87.0304L133.96 87.4758L133.627 88.1095L133.263 88.789L132.764 89.7069L132.213 90.7047L131.572 91.8396L130.661 93.436L129.694 95.1166L125.164 102.961L124.154 104.719C123.985 105.014 123.816 105.309 123.648 105.605L122.518 107.591L121.72 109.007L121.146 110.034L120.414 111.355L119.889 112.312L119.221 113.542L118.742 114.432L118.135 115.576L117.702 116.404L117.423 116.941L117.02 117.726L116.511 118.735L116.034 119.701L115.695 120.399L115.373 121.075L115.168 121.513L114.97 121.942L114.779 122.362L114.5 122.984L114.325 123.384L114.16 123.768L113.931 124.317L113.79 124.665L113.657 124.998L113.476 125.473L113.365 125.772L113.214 126.195L113.123 126.462L113 126.837L112.892 127.186L112.799 127.508L112.719 127.805L112.652 128.077L112.596 128.325L112.551 128.551L112.516 128.755L112.489 128.938L112.476 129.05L112.458 129.246L112.45 129.412L112.45 129.512C112.45 129.561 112.452 129.604 112.454 129.642L112.464 129.739L112.486 129.862L112.514 129.879L112.546 129.892L112.582 129.902L112.623 129.909L112.645 129.911L112.692 129.913C112.7 129.913 112.709 129.913 112.717 129.912L112.772 129.907L112.831 129.898L112.896 129.883L112.966 129.862L113.041 129.836L113.082 129.82L113.166 129.784L113.257 129.74L113.354 129.688L113.458 129.629L113.569 129.561L113.687 129.484L113.812 129.398L113.944 129.302L114.158 129.139L114.31 129.017L114.554 128.813L114.818 128.581L115.005 128.411L115.201 128.229L115.406 128.032L115.621 127.822L115.845 127.598L116.201 127.234L116.58 126.835L116.847 126.549L117.123 126.247L117.56 125.763L118.022 125.239L118.51 124.674L119.026 124.066L119.57 123.415L120.142 122.72L120.744 121.977L121.376 121.186L121.814 120.631L122.266 120.054L122.732 119.455C123.162 118.903 123.588 118.351 124.012 117.801L125.629 115.711L126.694 114.346L127.405 113.447L127.945 112.773L128.333 112.294L128.831 111.692L129.189 111.266L129.421 110.996L129.648 110.735L129.87 110.485L130.086 110.245L130.297 110.014L130.504 109.794L130.705 109.585L130.903 109.385L131.095 109.196L131.19 109.105L131.376 108.931L131.559 108.768L131.648 108.69L131.824 108.541L131.911 108.471L132.081 108.338C133.121 107.549 133.953 107.345 134.71 107.729C135.82 108.285 136.155 109.501 136.112 111.105L136.101 111.392L136.081 111.687L136.056 111.989L136.024 112.298L135.986 112.615L135.942 112.937L135.894 113.265L135.841 113.6L135.784 113.939L135.66 114.633L135.561 115.165L135.386 116.072L135.056 117.758L134.938 118.398L134.865 118.818L134.817 119.11L134.747 119.56L134.704 119.866L134.662 120.176L134.625 120.487L134.608 120.643L134.577 120.952L134.55 121.26C134.434 122.788 134.531 124.155 135.202 124.435C136.1 124.833 136.999 124.422 138.039 123.614L138.256 123.442L138.477 123.258L138.703 123.065L138.934 122.863L139.287 122.548L139.481 122.379L139.987 121.929L140.192 121.75L140.401 121.572L140.612 121.397L140.719 121.311L140.934 121.143C142.198 120.175 143.612 119.49 145.286 120.054C146.563 120.52 147.116 121.693 147.373 122.541L147.425 122.723L147.488 122.972L147.559 123.297C147.717 124.086 147.803 124.966 147.863 125.902L147.9 126.534L147.948 127.508L147.992 128.473L148.013 128.868L148.039 129.279L148.08 129.842L148.105 130.127L148.135 130.413L148.167 130.699L148.184 130.84L148.223 131.122L148.244 131.261L148.289 131.536L148.34 131.805L148.396 132.066C148.642 133.137 149.038 133.977 149.698 134.144L149.738 134.136L149.781 134.124L149.825 134.106L149.872 134.083L149.922 134.055L149.975 134.02L150.03 133.978L150.088 133.93L150.148 133.875L150.211 133.812L150.312 133.704L150.382 133.62L150.494 133.479L150.571 133.373L150.652 133.257L150.737 133.132L150.824 132.995L150.914 132.848L151.008 132.69L151.155 132.431L151.257 132.242L151.363 132.042L151.473 131.829L151.642 131.484L151.761 131.236L151.883 130.975L152.008 130.699L152.137 130.408L152.339 129.943L152.477 129.613L152.693 129.088L152.917 128.526L153.151 127.924L153.395 127.282L153.562 126.831L153.909 125.872L154.181 125.102L154.463 124.287L154.755 123.426L155.058 122.517L155.265 121.883L155.585 120.892C155.754 120.373 155.92 119.854 156.084 119.339L157.122 116.065L157.707 114.255L158.049 113.221L158.246 112.636L158.438 112.077L158.625 111.545L158.867 110.875L158.985 110.557L159.102 110.251L159.273 109.812L159.442 109.399L159.553 109.137L159.662 108.886L159.771 108.646L159.879 108.417L159.985 108.198L160.092 107.991L160.197 107.795L160.302 107.608L160.407 107.433C160.441 107.376 160.476 107.321 160.511 107.267L160.616 107.113L160.72 106.969L160.824 106.835C161.364 106.17 161.911 105.915 162.537 106.033L162.588 106.038L162.688 106.054L162.736 106.063L162.832 106.087L162.924 106.117L163.013 106.152L163.099 106.193C163.128 106.208 163.156 106.224 163.183 106.241L163.263 106.295C163.329 106.343 163.392 106.398 163.453 106.46L163.523 106.538L163.591 106.623C163.625 106.668 163.657 106.715 163.688 106.765L163.75 106.869L163.78 106.924L163.838 107.041C163.847 107.061 163.856 107.081 163.865 107.102L163.92 107.231L163.946 107.299L163.996 107.44L164.045 107.59L164.091 107.75L164.135 107.918L164.176 108.096L164.215 108.283L164.253 108.48L164.288 108.687L164.305 108.794L164.353 109.131L164.382 109.369L164.423 109.745L164.459 110.146L164.492 110.573L164.53 111.181L164.546 111.503L164.568 112.009L164.587 112.542L164.602 113.104L164.621 114.105L164.631 114.965L164.636 115.881L164.637 116.359L164.635 117.633L164.624 119.498L164.605 121.541C164.596 122.115 164.59 122.698 164.584 123.286L164.57 125.059L164.555 127.187L164.551 128.366L164.554 129.49L164.559 130.209L164.565 130.904L164.579 131.903L164.592 132.542L164.614 133.456L164.641 134.323L164.672 135.141L164.706 135.913L164.745 136.641L164.787 137.325L164.832 137.966L164.864 138.371L164.897 138.758L164.949 139.306L164.985 139.65L165.021 139.977L165.079 140.439L165.138 140.865L165.199 141.257L165.24 141.502L165.303 141.841L165.346 142.051L165.39 142.248L165.433 142.432L165.498 142.685L165.564 142.912L165.608 143.05L165.653 143.177L165.697 143.293L165.763 143.45L165.828 143.585L165.871 143.665L165.914 143.736L165.956 143.799L165.997 143.855L166.038 143.903L166.078 143.944L166.106 143.921L166.161 143.867L166.218 143.805C166.237 143.783 166.257 143.759 166.276 143.734L166.335 143.653L166.395 143.562L166.457 143.461L166.488 143.406L166.551 143.288L166.616 143.16L166.683 143.02L166.75 142.868L166.819 142.704L166.924 142.434L166.996 142.238L167.069 142.028L167.181 141.688L167.257 141.442L167.335 141.182L167.414 140.908L167.493 140.617L167.615 140.152L167.699 139.821L167.783 139.474L167.912 138.921L168.043 138.328L168.132 137.91L168.223 137.474L168.315 137.019L168.502 136.051L168.645 135.273L168.742 134.728L168.841 134.163L169.042 132.969L169.195 132.016L169.299 131.353L169.458 130.316L169.618 129.226L169.782 128.082L170.005 126.471L170.175 125.198L170.348 123.866C170.442 123.167 170.533 122.469 170.622 121.773L171.21 117.121L171.533 114.623L171.749 113.006L171.994 111.243L172.151 110.17L172.266 109.418L172.415 108.483L172.489 108.043L172.598 107.418L172.707 106.833L172.743 106.647L172.815 106.288L172.887 105.946L172.959 105.619L172.995 105.463L173.067 105.161L173.14 104.875L173.176 104.738L173.249 104.475L173.323 104.228L173.397 103.994L173.435 103.883L173.51 103.672C173.536 103.603 173.561 103.537 173.587 103.474L173.665 103.289C174.095 102.312 174.581 101.934 175.204 101.912L175.334 101.911C175.54 101.919 175.73 101.986 175.887 102.096C176.02 102.001 176.179 101.938 176.352 101.918L176.44 101.911H176.511C177.061 101.911 177.504 102.175 177.896 102.863L177.974 103.007C177.999 103.056 178.024 103.108 178.05 103.162L178.125 103.329L178.199 103.507L178.272 103.699L178.309 103.8L178.381 104.01L178.416 104.12L178.487 104.351L178.557 104.595L178.592 104.722L178.662 104.987L178.731 105.267L178.8 105.56L178.869 105.869L178.937 106.193L179.075 106.887L179.18 107.45L179.249 107.845L179.355 108.469L179.498 109.363L179.571 109.836L179.644 110.326L179.757 111.097L179.911 112.19L180.154 113.975L180.366 115.6L180.5 116.637V131.965L180.388 131.242L180.275 130.495L180.104 129.33L179.989 128.522L179.814 127.266L179.637 125.954L179.458 124.585C179.439 124.429 179.418 124.273 179.398 124.115C179.304 123.418 179.213 122.72 179.124 122.023L178.397 116.284L178.251 115.163L178.014 113.375L177.8 111.826L177.613 110.538L177.456 109.509L177.33 108.723L177.203 107.975L177.108 107.442L177.013 106.935L176.918 106.456L176.823 106.008L176.76 105.727L176.697 105.461L176.635 105.21L176.572 104.977L176.51 104.759C176.491 104.693 176.47 104.626 176.448 104.56L176.386 104.378L176.325 104.216C176.276 104.088 176.215 103.964 176.142 103.847C176.05 103.816 175.963 103.773 175.884 103.718C175.807 103.772 175.722 103.816 175.63 103.847C175.58 103.924 175.529 104.022 175.477 104.142L175.415 104.294C175.384 104.375 175.353 104.464 175.322 104.559L175.26 104.758L175.197 104.974L175.135 105.207L175.072 105.457L175.008 105.722L174.945 106.003L174.882 106.297L174.788 106.765L174.693 107.262L174.598 107.785L174.503 108.333L174.377 109.099L174.252 109.9L174.064 111.158L173.849 112.689L173.697 113.812L173.578 114.706L173.421 115.916L173.133 118.179L173.04 118.916L172.304 124.657L172.163 125.734L171.956 127.284L171.818 128.274L171.683 129.229L171.548 130.152L171.414 131.041L171.282 131.898L171.151 132.724L171.02 133.518L170.89 134.281L170.762 135.014L170.634 135.718L170.507 136.392L170.38 137.038L170.254 137.657L170.129 138.247L170.004 138.811L169.879 139.348L169.817 139.608L169.693 140.107L169.569 140.581L169.446 141.031L169.385 141.247L169.261 141.662C168.195 145.154 167.139 146.058 165.925 145.99C164.691 145.871 163.843 144.736 163.3 142.11L163.23 141.759L163.165 141.391L163.102 141.005L163.044 140.602L163.015 140.394L162.961 139.964L162.91 139.516C162.902 139.439 162.894 139.362 162.886 139.285L162.84 138.809L162.818 138.564L162.777 138.06L162.738 137.536L162.703 136.994L162.671 136.431L162.642 135.85L162.615 135.248L162.592 134.625L162.571 133.982L162.545 132.978L162.532 132.283L162.521 131.566L162.512 130.828L162.505 129.679L162.503 128.481L162.507 127.232L162.529 124.15C162.536 123.262 162.544 122.379 162.557 121.511L162.579 119.129L162.588 117.764L162.591 116.797L162.589 115.621L162.582 114.71L162.571 113.825L162.558 113.182L162.542 112.561L162.514 111.771L162.488 111.21L162.468 110.854L162.446 110.512L162.422 110.186L162.395 109.876L162.38 109.727L162.349 109.443L162.316 109.178L162.299 109.053L162.262 108.816C162.236 108.666 162.208 108.529 162.178 108.407C162.104 108.525 162.027 108.661 161.947 108.814L161.825 109.055L161.699 109.319L161.635 109.46L161.504 109.757L161.438 109.913L161.303 110.239L161.165 110.583L161.025 110.943L160.812 111.51L160.595 112.107L160.375 112.728L160.155 113.367L160.007 113.802L159.64 114.906L159.422 115.574L158.968 116.988L158.04 119.918L157.792 120.693L157.11 122.807L156.795 123.76L156.49 124.673L156.191 125.546L155.899 126.38L155.708 126.914L155.428 127.684L155.153 128.415L154.974 128.883L154.796 129.333L154.622 129.768L154.449 130.186L154.279 130.589L154.111 130.976C154.083 131.038 154.056 131.101 154.028 131.163L153.863 131.527L153.78 131.703L153.618 132.043C153.565 132.152 153.512 132.261 153.457 132.369L153.299 132.68L153.141 132.976L153.063 133.119L152.908 133.393L152.753 133.653L152.6 133.899L152.524 134.017L152.373 134.242L152.222 134.454C151.222 135.818 150.278 136.282 149.258 136.071C147.492 135.629 146.702 133.981 146.321 132.075L146.265 131.78L146.216 131.482C146.208 131.432 146.201 131.382 146.193 131.332L146.152 131.03L146.116 130.726L146.084 130.422L146.055 130.118L146.02 129.664L145.99 129.215L145.952 128.484L145.931 128.057L145.91 127.578L145.852 126.434L145.818 125.882C145.763 125.067 145.687 124.313 145.552 123.666C145.371 122.774 145.12 122.341 144.914 122.125L144.854 122.067L144.797 122.02C144.789 122.014 144.78 122.007 144.77 122.001L144.72 121.969L144.675 121.945L144.636 121.927L144.59 121.91C143.836 121.66 143.102 121.993 142.193 122.698L141.971 122.874L141.742 123.063L141.505 123.266L141.259 123.481L140.873 123.826L140.679 123.996L140.324 124.312L140.046 124.555L139.855 124.718L139.66 124.882L139.46 125.043L139.257 125.202C137.885 126.25 136.237 127.061 134.383 126.241C132.765 125.561 132.362 123.757 132.492 121.441L132.513 121.123L132.54 120.798L132.573 120.467L132.612 120.131L132.655 119.791L132.704 119.445L132.755 119.095L132.812 118.741L132.903 118.204L132.967 117.842L133.034 117.477L133.104 117.11L133.556 114.775L133.664 114.193L133.743 113.741L133.819 113.281L133.89 112.821L133.934 112.517L133.973 112.216L134.008 111.923L134.037 111.637L134.061 111.36L134.078 111.095L134.088 110.843C134.104 110.233 134.046 109.764 133.871 109.565C133.677 109.634 133.426 109.802 133.132 110.051L132.967 110.194L132.883 110.272L132.706 110.437L132.521 110.618L132.33 110.812L132.132 111.017L131.928 111.235L131.717 111.465L131.502 111.704L131.169 112.082L130.942 112.345L130.711 112.616L130.239 113.179L129.756 113.767L129.267 114.372L128.897 114.833L128.361 115.511L127.828 116.19L127.2 116.998L126.295 118.168L123.801 121.374L123.062 122.315L122.346 123.216L121.997 123.651L121.314 124.49L120.98 124.894L120.49 125.481L120.17 125.858L119.7 126.404L119.392 126.755L119.091 127.095L118.794 127.423L118.502 127.741L118.215 128.048L117.933 128.343L117.656 128.626L117.384 128.899L117.116 129.16L116.984 129.287L116.723 129.531L116.467 129.762L116.341 129.874L116.092 130.089C114.158 131.721 112.638 132.262 111.42 131.54L111.35 131.497L111.247 131.427L111.147 131.35L111.083 131.295L111.021 131.236L110.961 131.174L110.902 131.108L110.847 131.037L110.794 130.961L110.744 130.882L110.697 130.797L110.653 130.707C110.639 130.676 110.625 130.644 110.612 130.612L110.575 130.511L110.541 130.404L110.512 130.292L110.485 130.174L110.463 130.048C110.46 130.026 110.457 130.005 110.454 129.983L110.44 129.847C110.437 129.824 110.435 129.801 110.433 129.777L110.425 129.631L110.422 129.478C110.422 129.426 110.422 129.372 110.424 129.317L110.431 129.148L110.443 128.972L110.461 128.787L110.485 128.594L110.514 128.392L110.55 128.181L110.592 127.961L110.641 127.731L110.696 127.492L110.757 127.244L110.826 126.985L110.902 126.716L110.985 126.437L111.076 126.147L111.175 125.845L111.227 125.691L111.337 125.373L111.455 125.043L111.517 124.875L111.716 124.35L111.86 123.985L112.013 123.607L112.174 123.218L112.345 122.815L112.618 122.186L112.906 121.541L113.1 121.115L113.403 120.458L113.723 119.781L114.06 119.081L114.414 118.36L114.784 117.614L115.041 117.104L115.307 116.584L115.72 115.782L116.006 115.232L116.45 114.387L117.072 113.219L117.729 112.002L118.421 110.734L119.15 109.415L119.529 108.735L120.114 107.69L120.929 106.246L121.351 105.504C121.855 104.612 122.363 103.724 122.869 102.843L123.877 101.091L127.66 94.5515L128.634 92.8586L129.33 91.6405L129.991 90.4734L130.818 88.9957L131.319 88.0816L131.645 87.4758L131.867 87.0573L132.089 86.6327L132.417 85.9943L132.627 85.5753L132.728 85.3691L132.922 84.9672L133.102 84.5818L133.185 84.3974L133.068 84.5042L132.697 84.8528L132.434 85.1067L132.017 85.5181L131.573 85.965L131.263 86.2809L130.781 86.7802L130.276 87.3084L129.752 87.8636L129.026 88.641L127.886 89.8776L126.697 91.1823L125.678 92.3087L123.927 94.2588L122.537 95.8151L121.248 97.2607L117.198 101.782L115.126 104.087L113.551 105.825L112.316 107.18L111.044 108.562L110.614 109.026L109.746 109.958L108.872 110.89L107.993 111.817C107.7 112.126 107.406 112.432 107.113 112.737L106.235 113.645C104.482 115.445 102.755 117.148 101.162 118.606L100.619 119.1L100.267 119.415L99.9224 119.719L99.5857 120.012L99.2559 120.294L98.9342 120.565L98.6199 120.826L98.3123 121.076L98.012 121.315L97.719 121.544L97.4328 121.762L97.1534 121.97L96.8807 122.167L96.6144 122.353L96.3553 122.53L96.1021 122.696L95.8557 122.852L95.7344 122.926L95.4977 123.066L95.3812 123.132L95.1532 123.258L94.9311 123.373C93.3607 124.163 92.245 124.18 91.4256 123.507C90.2487 122.529 90.4214 120.821 91.6196 118.399L91.7895 118.065L91.9714 117.721C92.0655 117.547 92.1644 117.37 92.2673 117.189L92.4807 116.823L92.7048 116.449L92.9411 116.066L93.189 115.673L93.3171 115.474L93.5819 115.069L93.858 114.655L93.9996 114.444L94.2917 114.017L94.5944 113.581L94.7496 113.359L95.0678 112.91L95.5641 112.22L96.0832 111.51L96.8075 110.533L97.5691 109.521L98.3666 108.474L99.1976 107.393L100.505 105.705L100.732 105.414L101.407 104.555L102.59 103.029L103.605 101.709L104.127 101.026L104.653 100.333L104.916 99.983L105.572 99.1054L106.348 98.0527L106.976 97.1845L107.581 96.3315L107.929 95.8307L108.265 95.3398L108.587 94.8599L108.892 94.3936L109.182 93.9415L109.364 93.6488L109.538 93.3641L109.702 93.0875L109.858 92.8194L110.002 92.5602L110.071 92.4345L110.2 92.19L110.318 91.9554L110.424 91.7318C110.725 91.0768 110.863 90.5723 110.785 90.2753C110.516 90.245 110.091 90.377 109.561 90.6224L109.343 90.7264L109.23 90.7831L108.997 90.9042C108.958 90.9255 108.917 90.9468 108.877 90.969L108.63 91.1057L108.375 91.2518L108.113 91.4064L107.843 91.5691L107.567 91.7393L107.144 92.0074L106.711 92.2883L106.271 92.5796L105.678 92.9806L105.202 93.3079L104.631 93.7051L104.069 94.1023L103.248 94.6877L100.58 96.609L99.8089 97.1585L99.2476 97.5543L98.7004 97.9364L98.1668 98.3043L97.8199 98.5408L97.3105 98.8827L96.8148 99.2089L96.333 99.5182L96.0196 99.7149L95.7126 99.9041L95.4113 100.085L95.1164 100.259C95.0678 100.287 95.0193 100.315 94.9708 100.342L94.6851 100.503C94.638 100.529 94.5915 100.555 94.5444 100.58L94.2679 100.728L93.9972 100.867L93.8638 100.934L93.6018 101.06C93.516 101.1 93.4306 101.139 93.3466 101.177L93.0968 101.284L92.9741 101.335L92.733 101.428C91.2262 101.989 90.0746 101.972 89.2552 101.193C87.9629 99.9258 88.3054 98.0844 89.2018 96.0723L89.3299 95.7905L89.4652 95.5068L89.6059 95.2211L89.8272 94.7903L89.98 94.5019L90.2157 94.0668L90.3763 93.7765L90.6208 93.3405L90.9555 92.7499L91.4018 91.9564C91.5027 91.7748 91.6046 91.5904 91.7055 91.405L91.9102 91.0243L92.1101 90.6427L92.2386 90.3902L92.3629 90.1396L92.4812 89.8908L92.5938 89.6468L92.699 89.4066L92.7965 89.1725C93.1846 88.2078 93.3433 87.4073 92.992 87.0517C92.7708 86.949 92.3653 87.0171 91.8341 87.2072L91.6294 87.2843L91.5226 87.3269L91.3009 87.4196C91.2631 87.4361 91.2248 87.4527 91.1865 87.4702L90.9502 87.578L90.7047 87.6948L90.5786 87.7567L90.321 87.8863L90.0556 88.0239L89.6457 88.2438L89.0796 88.5583L88.496 88.894L88.0507 89.1564L87.4501 89.5173L86.8757 89.8691L86.3043 90.2242L85.9807 90.4275L85.3442 90.8309L84.7281 91.2248L83.5837 91.9616L82.4646 92.687L81.4822 93.3173L80.7225 93.7982L80.1685 94.1444L79.6281 94.4773L79.1008 94.7965L78.5875 95.1015L78.2528 95.2963L77.9244 95.4845L77.4436 95.7541L77.1307 95.9243L76.8241 96.087L76.5234 96.2421L76.2294 96.3892L75.9417 96.5287L75.8 96.5953L75.5216 96.7225C75.4299 96.7632 75.3392 96.8029 75.2499 96.8408L74.9841 96.9509L74.725 97.0521C72.9772 97.7132 71.6824 97.7454 70.879 96.8914C70.1747 96.1527 70.2174 95.1128 71.0052 93.5727L71.1294 93.3377C71.173 93.2582 71.2177 93.1773 71.2642 93.0955L71.4107 92.8449C71.4612 92.7607 71.5136 92.6747 71.5679 92.5872L71.7367 92.321C71.7658 92.2756 71.795 92.2302 71.825 92.1848L72.0103 91.9058L72.2068 91.6187L72.4144 91.3232L72.6332 91.0186L72.8631 90.7051L73.2294 90.2181L73.6204 89.7102L73.895 89.3598L74.3282 88.816L74.6309 88.441L75.1059 87.8593L75.4362 87.4593L76.1309 86.6275L76.8702 85.7526L77.8569 84.5979L79.1333 83.1178L80.6798 81.3331L81.5472 80.3259L82.1366 79.6374L82.728 78.9403L83.0229 78.5904L83.5629 77.9444L84.0931 77.3023L84.4826 76.8247L84.9867 76.1981L85.2312 75.8898L85.5868 75.4349L85.9273 74.9913L86.1456 74.7024L86.3557 74.4191L86.557 74.143L86.7496 73.8734L86.933 73.6114L87.1886 73.2341L87.3453 72.9929L87.4908 72.7617L87.6242 72.5399L87.7455 72.3285C88.0511 71.7785 88.2185 71.343 88.2015 71.0645C87.8168 70.7538 87.0479 70.8943 86.0801 71.299L85.8444 71.4012L85.6013 71.5128L85.352 71.6329L85.0963 71.762L84.8358 71.8991L84.5705 72.0424L84.3007 72.1933L84.0276 72.3493L83.7511 72.512L83.3325 72.764L82.9104 73.0251L82.6276 73.2033L82.3268 73.3953C82.1269 73.5244 81.9266 73.6545 81.7282 73.7855L81.1368 74.1789L80.5586 74.5704L79.9987 74.9535L77.6255 76.5944L76.9818 77.0341L76.3526 77.4574L75.8912 77.7624L75.4386 78.0556L75.1422 78.2443L74.8497 78.4263L74.5616 78.6022L74.2778 78.772L73.9979 78.9342C73.9518 78.9607 73.9057 78.9872 73.8596 79.0127L73.5869 79.164L73.3187 79.3078L73.0548 79.4435L72.7953 79.5712L72.541 79.6894C72.4988 79.7083 72.4571 79.7272 72.4154 79.7452L72.168 79.8506C70.5768 80.5027 69.2942 80.5566 68.4016 79.627C67.8369 79.0359 67.7748 78.2026 68.1673 77.0554L68.241 76.8493L68.3244 76.6369C68.3535 76.5651 68.3846 76.4922 68.4171 76.418L68.519 76.1919L68.5733 76.0766L68.6892 75.8401L68.8139 75.5971L68.8794 75.4727L69.0177 75.2188L69.1651 74.9577L69.3214 74.6891L69.4863 74.4134L69.66 74.1297L69.8424 73.8389L70.132 73.3882L70.3357 73.078L70.6578 72.5976L70.8829 72.2675L71.2361 71.7568L71.7358 71.0475L72.2684 70.3041L72.8331 69.5262L73.277 68.92L74.547 67.2044L75.4037 66.0553L77.218 63.628L77.8094 62.8288L78.4386 61.9691L79.0935 61.0659L79.5922 60.3675L79.926 59.896L80.4572 59.1356L80.806 58.6292L81.1261 58.1577L81.5414 57.5363L81.8417 57.0781L82.1308 56.6289L82.3166 56.3347L82.4961 56.0463L82.7522 55.624L82.8337 55.4869L82.9919 55.2173L83.1413 54.9549L83.282 54.7009L83.4135 54.455L83.5352 54.2191L83.6468 53.9926L83.6992 53.8833L83.7948 53.6724L83.8787 53.4724L83.951 53.2847C84.0829 52.9205 84.1401 52.6302 84.1062 52.4335C83.9102 52.4349 83.6526 52.5035 83.3426 52.6278L83.151 52.7096C83.085 52.739 83.0171 52.7706 82.9473 52.8042L82.7318 52.9116C82.695 52.9305 82.6577 52.9494 82.6203 52.9697L82.3884 53.095L82.2686 53.1617L82.0221 53.3036L81.766 53.4563L81.5011 53.6195L81.228 53.7921L80.803 54.0682L80.3621 54.3633L79.9066 54.6754L79.4384 55.0041L78.9591 55.3469L78.4706 55.7016L77.9743 56.068L77.3034 56.5707L76.6262 57.0862L76.0562 57.5245L75.4314 58.0106L74.7003 58.5847L73.7432 59.3456L73.0446 59.9064L72.1476 60.6318L71.1007 61.4863L69.2001 63.0515L65.65 65.9853L64.2723 67.1169L63.2652 67.9378L62.6078 68.4693L61.9626 68.9871L61.331 69.4898L60.713 69.9759L60.11 70.4446C59.9116 70.5978 59.7161 70.7477 59.523 70.8947L58.9525 71.3241L58.415 71.7246L57.9061 72.0973L57.582 72.3304L57.2696 72.5508L56.8223 72.8596L56.6788 72.9565L56.3998 73.1414L56.1316 73.3149L55.8735 73.4767L55.6256 73.627L55.3874 73.7656L55.2719 73.8309L55.0478 73.9533L54.8324 74.064C54.7979 74.0815 54.7633 74.0989 54.7286 74.116L54.5263 74.2106L54.3323 74.2943C53.2577 74.7397 52.5694 74.6726 52.0318 74.1879C51.4579 73.6691 51.3818 72.9158 51.9639 71.587L52.0639 71.3667L52.1182 71.2522L52.2361 71.0158L52.3661 70.769L52.5078 70.5108L52.662 70.2407C52.6887 70.1949 52.7154 70.1481 52.7435 70.1012L52.9162 69.8133L53.1015 69.5135L53.2999 69.2004L53.511 68.8741L53.6211 68.7067L53.9723 68.1828L54.2231 67.8158L54.6248 67.2389L55.057 66.6289L55.6828 65.7616L56.3659 64.8305L56.9165 64.089L57.7023 63.0407L58.5494 61.9218L59.4575 60.7297L61.2 58.4589L64.6657 53.9552L65.3313 53.0851L66.3927 51.6854L67.394 50.35L68.3361 49.0779L68.8731 48.3459L69.3878 47.6366L69.7196 47.1765L70.3537 46.2874L70.6564 45.8581L71.0925 45.2339L71.5068 44.6324L71.8997 44.054L72.3897 43.3192L72.8418 42.6259L73.0533 42.2949L73.2551 41.9738L73.5399 41.5123L73.7175 41.2172L73.8858 40.933L74.0439 40.6588L74.1929 40.3954L74.3321 40.1419L74.4616 39.8993L74.5815 39.6666L74.6916 39.4444L74.792 39.2335L74.8827 39.032L74.9637 38.8415L75.035 38.6618L75.0675 38.5752L75.1243 38.4107C75.15 38.3312 75.1728 38.2556 75.1912 38.1837L75.2242 38.0456C75.2654 37.8461 75.2747 37.6824 75.2504 37.5538C75.1985 37.4999 75.0961 37.1207 74.8497 36.9107C74.6057 36.7036 74.2181 36.6657 74.1546 36.6251L74.09 36.6355C74.0512 36.6435 74.0013 36.6558 73.9397 36.6752L73.88 36.6946L73.78 36.7315L73.7043 36.7617L73.5782 36.8171L73.4351 36.8852L73.275 36.9674L73.096 37.0658L72.8986 37.1807L72.6817 37.3141L72.5255 37.4134L72.2742 37.5803L72.0947 37.7032L71.9055 37.8371L71.7066 37.9808L71.4971 38.1359L71.1633 38.3899C71.1245 38.4192 71.0857 38.4495 71.0469 38.4797L70.8053 38.6703L70.4226 38.9791L70.1533 39.2013L69.7274 39.5598L69.4285 39.8165L69.1181 40.088C68.06 41.0162 66.9191 42.0826 65.7417 43.2251L65.0305 43.9188L64.6725 44.2716L63.9531 44.9866L63.2302 45.7124L62.506 46.4454L61.7831 47.1831L61.0632 47.9222L59.9955 49.0268L58.9476 50.1173C58.8327 50.2374 58.7177 50.3571 58.6042 50.4767C57.9122 51.1933 57.223 51.9124 56.5366 52.634L55.1846 54.0592L52.9754 56.3768L51.9702 57.4247L50.5799 58.8628L49.7275 59.7348L48.932 60.5396L48.3712 61.1004L48.0136 61.4537L47.5014 61.9549L47.1754 62.2689L46.7087 62.712L46.4123 62.9887L46.127 63.2506L45.8529 63.4984L45.589 63.7315L45.3358 63.9505L45.0928 64.1557L44.8589 64.3472C44.8211 64.378 44.7833 64.4087 44.7459 64.438L44.5261 64.6097C44.4907 64.6371 44.4548 64.6641 44.4199 64.6901L44.2137 64.8423L44.0158 64.9818C43.9513 65.0263 43.8882 65.0684 43.8266 65.1086L43.6447 65.223L43.5569 65.276L43.3866 65.3724C42.5246 65.8396 41.9468 65.8368 41.4617 65.4992L41.4151 65.4661C40.9591 65.1611 40.7301 64.7359 40.7713 64.0451L40.7845 63.8933C40.7903 63.8413 40.7975 63.7873 40.8058 63.7325L40.8354 63.5632L40.8742 63.3844L40.9208 63.1967L40.9474 63.0993L41.0076 62.8964L41.0765 62.6836L41.1541 62.4604C41.1687 62.4226 41.1823 62.3838 41.1968 62.3451L41.2885 62.1053L41.3889 61.8547L41.499 61.5918L41.6184 61.3175L41.7474 61.0304L41.8857 60.7311L42.0341 60.419L42.1918 60.0932L42.4469 59.5796L42.7249 59.0344L42.9223 58.6528L43.2386 58.0522L43.5777 57.4181L44.0667 56.5168L44.5984 55.5498L45.6341 53.6923L46.9866 51.2967L48.2858 49.0093L48.8485 48.0144L50.0016 45.9621L50.5629 44.9539L51.0946 43.9888L51.5982 43.0657L52.0736 42.1838L52.5218 41.3421L52.9439 40.5401L53.3397 39.7764L53.7103 39.0505L53.9442 38.5871L54.3798 37.7075L54.5821 37.2909L54.8669 36.6951L55.0444 36.3158L55.3714 35.6018L55.5208 35.266L55.7289 34.7884L55.9171 34.3401L56.0326 34.0578L56.1393 33.7883L56.2858 33.4067L56.3731 33.1674L56.4915 32.8307L56.5614 32.6207L56.653 32.3261L56.7302 32.0556L56.7738 31.8882L56.8112 31.7308L56.8427 31.5832L56.8689 31.4451L56.8893 31.316L56.9043 31.1964L56.915 31.0848L56.9203 30.9822L56.9213 30.8876L56.9174 30.8011L56.9097 30.7216L56.898 30.6502L56.8825 30.5854L56.8631 30.5278L56.818 30.5244H56.7937L56.7428 30.5268L56.688 30.5334L56.6288 30.5448L56.5657 30.5609L56.4978 30.5817L56.425 30.6081L56.3479 30.6403L56.2227 30.6994L56.133 30.7472L56.0374 30.802L55.9365 30.8635L55.775 30.9699C55.7556 30.9827 55.7372 30.9959 55.7178 31.0096L55.5383 31.1397L55.3442 31.2896L55.2064 31.4007L55.0624 31.5208L54.911 31.6508L54.7529 31.7903L54.5025 32.0197L54.3259 32.1852L54.047 32.4557L53.7506 32.7512L53.4358 33.0737L53.102 33.4246L52.8692 33.6748L52.6271 33.9377L52.2477 34.3581L51.9828 34.656L51.5686 35.1289L51.1324 35.6358L50.6745 36.1768L50.3563 36.5575L49.86 37.158L49.34 37.7959L48.7956 38.4721L48.0316 39.4349L47.4286 40.2043L46.1042 41.9161L43.7077 45.023L42.623 46.4156L42.0477 47.1453L41.5034 47.8281L41.1143 48.3104L40.7408 48.7663L40.3833 49.1966L40.0408 49.6023L39.7119 49.983L39.397 50.3396L39.0953 50.672L38.8057 50.9803L38.6194 51.1728L38.4384 51.3548L38.2623 51.5265L38.0911 51.6882L37.9242 51.8395L37.7622 51.9814L37.604 52.1133L37.4503 52.2349L37.2999 52.3469C37.2509 52.3829 37.2019 52.4169 37.1543 52.4496L37.0112 52.5427C36.2365 53.0279 35.6175 53.0846 35.0266 52.7815C33.8206 52.1786 33.5528 50.8403 33.6712 49.1087L33.6945 48.8164L33.709 48.6675L33.7415 48.3648L33.7804 48.0565L33.824 47.7416L33.8725 47.4209L33.9249 47.0947L34.0098 46.5967L34.1956 45.571L34.2281 45.397L34.3785 44.5548L34.4755 44.0252L34.559 43.5405L34.622 43.1508L34.6623 42.8818L34.7011 42.6075L34.7375 42.329L34.786 41.9081L34.8132 41.6286L34.8253 41.4891L34.8447 41.213L34.853 41.0768L34.8636 40.8087C34.8942 39.7499 34.7603 38.8694 34.2693 38.6608L34.1762 38.6268C33.8551 38.5175 33.4097 38.4693 32.7029 38.8505C32.2275 39.1143 31.7206 39.5456 31.2088 40.0223L30.9012 40.3121L30.5941 40.6067L30.0086 41.1751L29.7175 41.4518L29.5206 41.6343L29.3217 41.814L29.2208 41.902L29.017 42.075C27.8246 43.07 26.4959 43.7821 24.9532 43.262C23.6904 42.7985 23.2078 41.4608 23.054 39.5848L23.0317 39.276C23.0252 39.17 23.0197 39.0639 23.0152 38.9578L23.0031 38.6315L22.9953 38.2958L22.9919 37.9525L22.9933 37.4228L23.0016 36.8762L23.0205 36.1234L23.0588 34.9487L23.0899 34.1302L23.1141 33.3433L23.1287 32.6638L23.1326 32.2221V31.7634L23.1292 31.4503L23.118 30.9756L23.1064 30.6578L23.0904 30.341L23.0705 30.0274L23.0453 29.7187L23.0152 29.416L22.9982 29.2685L22.9594 28.9795C22.8071 27.9392 22.5305 27.1244 22.0454 26.9348L21.9984 26.9632L21.9353 27.0081C21.8994 27.0355 21.8577 27.0705 21.8101 27.1154L21.7253 27.1996L21.6234 27.3107L21.5491 27.3992L21.4686 27.4994L21.3833 27.6124L21.292 27.7392L21.1955 27.8806L21.1451 27.9562L20.9859 28.2092C20.968 28.239 20.9491 28.2697 20.9306 28.3014L20.8147 28.4991L20.6934 28.7147L20.5673 28.9493L20.4358 29.2027C20.413 29.2467 20.3907 29.2916 20.3679 29.337L20.2277 29.6217L20.0822 29.9272L19.9318 30.2554L19.8542 30.428C19.2744 31.726 18.6875 33.2605 18.1174 34.8702L17.8336 35.6807L17.5537 36.4988L17.415 36.9093L17.1414 37.7311L16.8727 38.5492L16.4807 39.7603L16.0848 41.0044L14.5747 45.7687L14.14 47.1155L13.7344 48.345L13.4783 49.1006L13.293 49.635L13.1727 49.9754L12.9961 50.463L12.8244 50.924L12.6565 51.3581L12.5469 51.6329L12.4387 51.8963L12.332 52.1479L12.2262 52.3886L12.1219 52.6174L12.0186 52.8359L11.9162 53.043L11.8144 53.2388L11.7639 53.3334L11.663 53.5131L11.5626 53.6828L11.4622 53.8417C11.4457 53.8673 11.4292 53.8928 11.4122 53.9174L11.3123 54.0611C11.2491 54.1492 11.1824 54.2349 11.1124 54.3179L11.012 54.4314C10.5259 54.9549 10.0248 55.1341 9.44312 55.0272L9.36258 55.0069L9.28448 54.9832L9.20831 54.9553L9.13457 54.9241L9.06279 54.8882C9.05087 54.8821 9.03908 54.8758 9.02737 54.8693L8.95895 54.8267L8.8925 54.7794C8.87041 54.7625 8.84889 54.7448 8.82799 54.7265L8.76492 54.6688L8.70476 54.6049C8.69489 54.5937 8.68518 54.5824 8.67566 54.5709L8.61792 54.4981C8.60835 54.4853 8.59898 54.4724 8.5898 54.4593L8.53546 54.377C8.52638 54.3625 8.51749 54.3478 8.50879 54.333L8.45735 54.2404L8.40738 54.1401L8.35985 54.0323L8.31377 53.9169L8.27011 53.793L8.2274 53.6611L8.18713 53.5206L8.14833 53.3707L8.11148 53.2123L8.07607 53.044L8.04259 52.8657L8.01105 52.678L7.98097 52.4793L7.93877 52.1616L7.91306 51.9365L7.87717 51.5771L7.85484 51.3227L7.82477 50.9188L7.79031 50.3367L7.76849 49.8662L7.74423 49.1919L7.72531 48.4618L7.71222 47.6735L7.70445 46.8251L7.70251 46.1479V45.2788L7.7093 44.0124L7.71707 43.1352L7.73404 41.7738L7.77139 39.4009L7.85872 34.5042L7.89171 32.5559L7.92131 30.5817L7.94749 28.5913L7.95866 27.5935L7.96835 26.5154L7.97758 24.9501L7.98048 23.9405L7.97903 22.3725L7.9698 20.8224L7.96254 20.0738L7.94749 18.9828L7.92809 17.9307L7.90433 16.9149L7.87619 15.9356L7.8432 14.9913L7.81894 14.3812L7.76413 13.2052L7.73355 12.6392L7.70107 12.0873L7.66661 11.5492L7.61082 10.7675L7.55067 10.0156L7.48616 9.29258L7.44202 8.83152L7.37263 8.17658L7.32413 7.76375L7.2756 7.36937L7.22469 6.99296L7.14706 6.46144L7.06847 5.9687L6.98795 5.51284L6.93361 5.22911L6.87927 4.96052L6.82495 4.70658L6.77013 4.46778L6.71579 4.24269L6.63478 3.93106L6.58141 3.74001L6.52806 3.56126L6.45044 3.31631L6.40192 3.17445C6.3759 3.09997 6.34874 3.02587 6.32042 2.95219L6.24231 2.75831L6.16809 2.59233C6.13622 2.52358 6.10223 2.45578 6.06622 2.38899L6.00461 2.28165L5.94931 2.19464L5.9008 2.12607C5.84418 2.1935 5.79277 2.26495 5.74701 2.33981L5.67036 2.4708C5.58159 2.63253 5.49379 2.82688 5.40695 3.05055L5.33224 3.24916L5.2585 3.46243L5.18477 3.68941L5.112 3.93058L5.03923 4.18499L4.96648 4.45217L4.89516 4.73164L4.82335 5.02388L4.71712 5.48494L4.64679 5.8065L4.57692 6.13988L4.50755 6.48414L4.40469 7.02039L4.30234 7.57933L4.20096 8.1605L4.10103 8.762L3.96858 9.59522L3.83858 10.4611L3.74252 11.1307L3.58389 12.2807L3.49026 12.99L3.30688 14.4479L3.1274 15.9493L2.98088 17.228L2.75337 19.3134L2.58989 20.8834C2.50984 21.6631 2.43175 22.4458 2.3551 23.2279L2.16008 25.2547L2.04364 26.4922L1.8205 28.9247L1.22623 35.5294L1.06032 37.3439L0.796417 40.1627L0.596069 42.2401L0.450531 43.6975L0.263763 45.5114L0.17305 46.3645L-0.00450134 47.9666L-0.134521 49.0798L-0.2621 50.1192L-0.388245 51.0877L-0.429474 51.395L-0.511932 51.9875L-0.594406 52.5503L-0.676392 53.0846L-0.757889 53.5906C-0.771301 53.6714 -0.784866 53.7521 -0.79863 53.8327L-0.88063 54.2976L-0.962128 54.7359L-1.00288 54.9454L-1.08534 55.3455L-1.1261 55.5365L-1.20856 55.8997L-1.29248 56.2392C-1.34828 56.4577 -1.40405 56.661 -1.4613 56.8497L-1.54716 57.1221C-2.03714 58.6069 -2.58047 59.0812 -3.28146 59.1077L-3.34453 59.1087H-3.40517C-4.19785 59.1484 -4.7766 58.7479 -5.252 57.6177L-5.33009 57.4224C-5.34329 57.3881 -5.35623 57.3537 -5.36891 57.3193L-5.44458 57.1032C-5.45711 57.0654 -5.46941 57.0276 -5.48146 56.9897L-5.55472 56.7523L-5.6265 56.5003C-5.65094 56.4112 -5.67456 56.322 -5.69734 56.2326L-5.76622 55.9503C-5.77773 55.9013 -5.78903 55.8523 -5.80017 55.8032L-5.86809 55.4968L-5.93504 55.1748L-6.03304 54.6603L-6.09804 54.2966L-6.16206 53.916L-6.22612 53.5178L-6.28917 53.1017L-6.38425 52.4444L-6.47885 51.7445L-6.57393 51.003L-6.66998 50.2176L-6.73402 49.669L-6.86501 48.5119L-6.9989 47.272L-7.17207 45.6022L-7.42918 43.0317L-7.50874 42.1828L-7.85416 38.7431L-7.94196 37.9052L-8.07294 36.6984L-8.16074 35.9271L-8.24808 35.1814L-8.33539 34.4616L-8.46492 33.4294L-8.59444 32.4524L-8.72348 31.5293L-8.80885 30.9429L-8.89424 30.3802L-8.97914 29.8397L-9.06355 29.3214L-9.14748 28.8249L-9.27263 28.1198L-9.35559 27.6753L-9.43806 27.2516L-9.52052 26.8478L-9.60153 26.4638L-9.68256 26.0983L-9.76259 25.7517L-9.88193 25.266L-9.99982 24.8201L-10.0774 24.5439C-10.0902 24.4999 -10.1031 24.4559 -10.1162 24.412L-10.1934 24.1614L-10.2691 23.9259L-10.3447 23.706L-10.4189 23.5017L-10.4927 23.3125L-10.5655 23.1371L-10.6382 22.9759L-10.7091 22.8278C-10.7207 22.8049 -10.7325 22.782 -10.7445 22.7593L-10.8143 22.6311L-10.8837 22.5153C-10.9055 22.4804 -10.9282 22.446 -10.9516 22.4122L-11.019 22.3204C-11.0402 22.293 -11.0622 22.2662 -11.085 22.24L-11.1505 22.1705C-11.1711 22.15 -11.1924 22.1303 -11.2145 22.1114L-11.2776 22.0622C-11.2976 22.0481 -11.3183 22.035 -11.3397 22.023L-11.4008 21.9932C-11.4651 21.9651 -11.5352 21.9522 -11.6055 21.9554L-11.6443 21.962L-11.6725 21.97L-11.7016 21.9814L-11.7312 21.9965L-11.7627 22.0154L-11.8112 22.0523L-11.8452 22.0831L-11.8986 22.1389L-11.9349 22.1833L-11.9723 22.2334L-12.0295 22.3214L-12.0684 22.3885L-12.129 22.503L-12.1906 22.6349L-12.2323 22.7333L-12.2954 22.8969L-12.3385 23.017L-12.4035 23.2156L-12.4472 23.3608L-12.4909 23.5159L-12.5573 23.7689L-12.6238 24.0469L-12.6903 24.3515L-12.7572 24.6834L-12.8009 24.9203L-12.8455 25.171L-12.911 25.5715L-12.976 26.0032L-13.0405 26.4681L-13.1036 26.966L-13.1662 27.499L-13.2069 27.8744L-13.2467 28.266L-13.3059 28.8845L-13.3631 29.5418L-13.4184 30.2388L-13.4718 30.9765L-13.5227 31.7568L-13.7691 36.007L-13.825 36.897L-13.8832 37.7406L-13.9297 38.3435L-13.9787 38.9204L-14.0127 39.2912L-14.0491 39.6501L-14.0869 39.9972L-14.1267 40.3329L-14.1684 40.6573L-14.2126 40.9699L-14.2591 41.2711L-14.3081 41.5605L-14.36 41.8386L-14.4148 42.1053L-14.4726 42.3597C-14.4823 42.4013 -14.492 42.4425 -14.5026 42.4827L-14.5652 42.7205C-14.9514 44.1103 -15.5248 44.8726 -16.4426 44.9988L-16.5202 45.0083C-17.7418 45.1889 -18.7033 44.4404 -19.5789 43.2019L-19.737 42.9711C-19.7902 42.8917 -19.8425 42.8116 -19.8937 42.7309L-20.049 42.4803L-20.2027 42.2211L-20.3556 41.9535L-20.5079 41.6778L-20.6592 41.395L-20.8111 41.1052L-21.0381 40.6597L-21.1895 40.3561L-21.6489 39.4198L-21.9666 38.7738L-22.2562 38.1827L-22.4818 37.7345L-22.6652 37.3788L-22.8592 37.0138L-23.062 36.6435L-23.2013 36.3976L-23.3429 36.1536L-23.4875 35.9134L-23.633 35.6788C-23.6574 35.6406 -23.682 35.6024 -23.7067 35.5644L-23.8542 35.3412L-24.0027 35.1279C-24.546 34.3652 -25.0908 33.8327 -25.5288 33.9008L-25.5555 33.9211L-25.5822 33.9448L-25.6094 33.9732L-25.6496 34.0238L-25.6899 34.0852L-25.7292 34.1576L-25.768 34.2427L-25.8063 34.3406L-25.8306 34.4134L-25.8665 34.5354L-25.9004 34.6726L-25.9218 34.7733L-25.9519 34.9383L-25.9795 35.1208L-26.0038 35.3223L-26.0324 35.6216L-26.0494 35.8699L-26.0659 36.2345L-26.0736 36.5343L-26.077 36.9712L-26.0756 37.2058L-26.0659 37.7089L-26.0528 38.117L-26.0334 38.5525L-26.0081 39.016L-25.9771 39.5087L-25.9392 40.0312L-25.8941 40.5845L-25.8427 41.1695L-25.7622 41.9998L-25.6928 42.6619L-25.6152 43.3584L-25.5293 44.0904L-25.4672 44.5983C-25.3852 45.3171 -25.2931 46.0255 -25.2116 46.7239L-24.9874 48.5473L-24.8657 49.5891L-24.7599 50.5571L-24.7051 51.1033L-24.643 51.7918L-24.6047 52.2788L-24.5746 52.7408L-24.5591 53.0355L-24.547 53.3192L-24.5392 53.592L-24.5353 53.854V54.1061L-24.5402 54.3472L-24.5484 54.5785L-24.562 54.7993C-24.5645 54.8348 -24.5673 54.8702 -24.5703 54.9057L-24.5906 55.1114C-24.5979 55.1785 -24.6061 55.2438 -24.6154 55.3072L-24.6454 55.493L-24.6804 55.6689C-24.8613 56.4965 -25.2227 56.985 -25.8238 57.1831L-25.8868 57.2025C-25.9232 57.2152 -25.9596 57.2266 -25.996 57.2365L-26.1042 57.2625L-26.2119 57.28C-26.5709 57.3245 -26.9226 57.2271 -27.2908 56.9727L-27.4014 56.8913C-27.5213 56.798 -27.6351 56.6974 -27.7419 56.5901L-27.8584 56.4705C-27.8779 56.4493 -27.8973 56.428 -27.9166 56.4066L-28.0359 56.2719L-28.1567 56.1271L-28.2794 55.9725L-28.4041 55.807L-28.5317 55.632L-28.6612 55.4457L-28.7932 55.2495L-28.9285 55.0424L-29.0663 54.8248L-29.207 54.596L-29.3506 54.3567L-29.5728 53.977L-29.8027 53.5722L-30.0404 53.1419L-30.2878 52.6865L-30.6313 52.0386L-30.9922 51.3435L-31.4695 50.4072L-31.978 49.3952L-33.2174 46.8937L-34.0542 45.1989L-34.4787 44.3411L-35.2821 42.729L-35.8603 41.5823L-36.2538 40.811L-36.6525 40.0397L-36.8534 39.6553L-37.257 38.8916C-38.1346 37.2469 -39.0252 35.677 -39.8717 34.3798L-40.0037 34.1798L-40.2618 33.7987C-40.8958 32.8756 -41.4518 32.1843 -41.9296 31.735C-41.9942 31.6751 -42.0607 31.617 -42.129 31.561L-42.242 31.4721L-42.3381 31.4021L-42.4506 31.3279L-42.5379 31.2735C-42.5506 31.265 -42.5559 31.2593 -42.5539 31.256C-43.1351 31.5161 -43.2884 32.4075 -43.2074 33.566L-43.1836 33.8493L-43.1691 33.994L-43.1327 34.2905C-43.1191 34.3902 -43.1045 34.4919 -43.089 34.5941L-43.0381 34.9043L-43.0104 35.0613L-42.9508 35.3786L-42.8853 35.7001L-42.8154 36.0231L-42.7412 36.348L-42.6631 36.6724L-42.5821 36.9963L-42.4982 37.3178L-42.3696 37.7945L-42.195 38.4116L-42.0645 38.8561L-41.8534 39.5513L-41.4896 40.7065L-40.5921 43.4979L-40.4112 44.0715L-40.1827 44.8135L-40.0221 45.3516L-39.8717 45.8746L-39.733 46.3806L-39.6471 46.7093C-39.6334 46.763 -39.6198 46.8167 -39.6064 46.8705L-39.5297 47.1873L-39.4594 47.4971L-39.3954 47.7983L-39.3663 47.9458L-39.3129 48.2352L-39.2673 48.5166C-38.9951 50.3169 -39.2139 51.5889 -40.3118 52.1729C-40.8075 52.4269 -41.3392 52.4131 -41.9626 52.1228L-42.1081 52.0509C-42.3528 51.9207 -42.5867 51.7721 -42.8077 51.6064L-42.9736 51.4797C-43.002 51.4578 -43.0303 51.4357 -43.0585 51.4135L-43.2312 51.2721L-43.4082 51.1208L-43.5901 50.96L-43.7764 50.7888L-43.8715 50.6999L-44.0656 50.5136L-44.2649 50.3173L-44.4697 50.1112L-44.6797 49.8951L-45.0047 49.5513L-45.2294 49.3096L-45.5772 48.9275L-45.9396 48.5228L-46.316 48.0948L-46.9772 47.3306L-47.538 46.6724L-48.4345 45.607L-49.7409 44.0398C-50.4783 43.1537 -51.2414 42.242 -52.0152 41.325L-52.8272 40.3651L-53.2784 39.8355L-53.716 39.3252L-54.35 38.5951L-54.9564 37.9061L-55.5351 37.2568L-55.9067 36.8459L-56.4423 36.261L-56.7853 35.8912L-57.2791 35.3667L-57.7482 34.8773L-58.048 34.5695L-58.4783 34.1354L-58.8858 33.7329L-59.2705 33.3608L-59.6344 33.0184L-59.8648 32.8056L-60.0865 32.6051L-60.4018 32.3261L-60.6982 32.0731L-60.885 31.918L-61.1499 31.7043L-61.3968 31.5132L-61.6262 31.343L-61.699 31.291L-61.9066 31.1472L-62.0978 31.0219L-62.2739 30.9136L-62.383 30.8507L-62.4859 30.7945L-62.628 30.7221L-62.7575 30.6625L-62.874 30.6152L-62.9783 30.5793L-63.0709 30.5533L-63.1529 30.5353L-63.2014 30.5278L-63.2664 30.5216L-63.3246 30.5211C-63.3458 30.5219 -63.3669 30.5242 -63.3877 30.5278C-63.395 30.5467 -63.4015 30.566 -63.4071 30.5854L-63.4226 30.6498L-63.4343 30.7216C-63.4376 30.7479 -63.4402 30.7742 -63.442 30.8006L-63.4459 30.8871L-63.4449 30.9817L-63.4401 31.0843L-63.4294 31.1955L-63.4144 31.3156L-63.394 31.4442L-63.3683 31.5823L-63.3368 31.7298L-63.2994 31.8868L-63.2557 32.0542L-63.2063 32.2315L-63.1505 32.4198L-63.0874 32.6184L-62.9807 32.938L-62.9002 33.165L-62.7663 33.5282L-62.6668 33.7854L-62.5033 34.1949L-62.3845 34.4834L-62.1895 34.9416L-61.9755 35.4296L-61.7407 35.9498L-61.5729 36.3139L-61.3953 36.6927L-61.1106 37.289L-60.803 37.9198L-60.5852 38.3596L-60.118 39.2879L-59.7387 40.027L-59.4718 40.541L-59.0498 41.344L-58.6006 42.1866L-57.9602 43.3736L-57.2689 44.6333L-56.7169 45.6287L-56.3327 46.3163L-55.9349 47.0237L-55.4852 47.8243L-52.4881 53.1234L-51.7052 54.5179L-50.992 55.8018L-50.4696 56.7528L-49.8768 57.8503L-49.5522 58.4622L-49.2514 59.0401L-48.9725 59.5853L-48.7993 59.9315L-48.6358 60.2634L-48.4093 60.7368L-48.2701 61.0361L-48.1405 61.3227L-48.0202 61.597L-47.9096 61.8594L-47.8077 62.11L-47.7156 62.3493L-47.6326 62.5772L-47.5938 62.6874L-47.5244 62.9002L-47.4633 63.1017C-47.3973 63.3315 -47.3488 63.5414 -47.3178 63.733L-47.295 63.8923L-47.2804 64.0436C-47.2368 64.6816 -47.4235 65.0887 -47.8063 65.3805L-47.8985 65.4457C-48.3564 65.7839 -48.8857 65.8363 -49.6376 65.4968L-49.7914 65.424C-49.9219 65.3583 -50.0587 65.2821 -50.2028 65.1937L-50.3793 65.0826L-50.5627 64.9601C-50.5942 64.9388 -50.6258 64.9171 -50.6573 64.8944L-50.8523 64.7544C-50.8859 64.7298 -50.9194 64.705 -50.9527 64.6801L-51.1594 64.5227C-51.1951 64.4951 -51.2307 64.4673 -51.2661 64.4394L-51.4854 64.2635L-51.7134 64.0753L-51.9501 63.8744L-52.1961 63.6611L-52.4518 63.4341L-52.7166 63.1948L-53.1338 62.8104L-53.5738 62.3957L-53.8809 62.1015L-54.0386 61.9493L-54.5363 61.4636L-55.199 60.8063L-55.9063 60.0951L-56.4675 59.5253L-57.6706 58.2896L-58.5356 57.393L-59.9317 55.9356L-61.7189 54.0592L-63.0709 52.634L-64.4404 51.1959L-65.4717 50.1178L-66.5196 49.0268L-67.5888 47.9222L-68.3092 47.1831L-69.0325 46.4454L-69.7573 45.7124L-70.481 44.9866L-71.201 44.2716L-71.9155 43.5698C-73.2186 42.2978 -74.4818 41.1089 -75.6417 40.088L-76.1035 39.6865L-76.5382 39.3177L-76.9467 38.9791L-77.3294 38.6703L-77.5705 38.4802L-77.9125 38.2177L-78.1269 38.057L-78.4297 37.8371L-78.6189 37.7037L-78.8847 37.5226L-79.1287 37.3628L-79.3528 37.2228L-79.5566 37.1022L-79.7414 36.9982L-79.9078 36.9112L-80.0567 36.8383L-80.1465 36.7972L-80.3041 36.731L-80.4041 36.6946L-80.4637 36.6752C-80.5131 36.6593 -80.5633 36.6461 -80.6141 36.6355L-80.6786 36.6251C-80.8032 36.7045 -80.9441 36.7564 -81.0914 36.7773C-81.2387 36.7981 -81.3889 36.7873 -81.5315 36.7457L-81.5261 36.8067C-81.5116 37.0715 -81.6062 37.3382 -81.8051 37.5434C-81.8352 37.6976 -81.8172 37.9042 -81.7508 38.1629L-81.7095 38.309L-81.6591 38.4651L-81.5989 38.632L-81.5295 38.8093C-81.5169 38.8396 -81.5043 38.8708 -81.4907 38.9015L-81.4073 39.094L-81.3137 39.2969L-81.2108 39.5097L-81.0983 39.7328L-80.9765 39.9664L-80.845 40.2105L-80.7044 40.4644L-80.554 40.7283L-80.31 41.1439L-80.1363 41.4338L-79.8574 41.8878L-79.5566 42.364L-79.2354 42.8633L-78.8925 43.3859L-78.5286 43.9311L-78.1434 44.499L-77.5972 45.292L-77.0131 46.1253L-76.5503 46.7769L-76.0662 47.4512L-75.2133 48.6254L-74.4886 49.6099L-73.726 50.6346L-72.9265 51.6996L-72.0897 52.8047L-70.9914 54.2422L-66.9824 59.4458L-65.7657 61.0347L-64.649 62.5035L-63.8262 63.5958L-63.0646 64.6172L-62.5329 65.3384L-62.1967 65.7985L-61.5685 66.6705L-61.1343 67.2834L-60.8627 67.6735L-60.4814 68.2305L-60.2437 68.5847L-59.9133 69.0893L-59.7096 69.409L-59.5189 69.7159L-59.4282 69.8643L-59.2569 70.1518L-59.1759 70.2913L-59.0236 70.5609L-58.9518 70.6914L-58.8179 70.9434C-58.7752 71.0257 -58.735 71.1061 -58.6966 71.1846L-58.587 71.4149L-58.5365 71.526L-58.4444 71.7402L-58.3648 71.945C-57.9559 73.0421 -58.0689 73.7003 -58.586 74.168C-59.1871 74.709 -59.9764 74.7326 -61.2833 74.1013L-61.4938 73.9964C-61.5301 73.9777 -61.5664 73.9587 -61.6025 73.9396L-61.8261 73.8176L-62.0599 73.6852L-62.3025 73.5405L-62.5557 73.3849L-62.8187 73.218L-63.0923 73.0393C-63.1392 73.008 -63.1861 72.9766 -63.2329 72.9452L-63.523 72.7489L-63.8238 72.5404L-64.2973 72.2046L-64.797 71.8414L-65.3248 71.4504L-65.5067 71.3137C-65.6935 71.1742 -65.8826 71.0309 -66.0748 70.8843L-66.6593 70.4356C-66.7583 70.3594 -66.8572 70.2824 -66.9572 70.2043L-67.565 69.7286L-68.1865 69.2359L-68.822 68.728L-69.4701 68.2059L-70.4636 67.3983L-71.8253 66.2823L-77.4934 61.6045L-79.0501 60.3339L-80.1091 59.4803L-80.9886 58.7791L-81.3685 58.4793C-81.878 58.0773 -82.3899 57.6783 -82.9044 57.2824L-83.4608 56.8568L-83.9726 56.469L-84.6483 55.9654L-85.1475 55.5985L-85.6385 55.2433L-86.1197 54.9014L-86.4341 54.6816L-86.8944 54.3652L-87.3402 54.0673L-87.6284 53.8781L-87.9088 53.6994L-88.181 53.5296L-88.4444 53.3703L-88.6981 53.2213L-88.8213 53.1504L-89.0605 53.0184C-89.1381 52.9763 -89.2142 52.9366 -89.2885 52.8983L-89.5058 52.7905C-89.9637 52.5701 -90.3397 52.4401 -90.6094 52.4226C-90.6191 52.7314 -90.4493 53.1986 -90.1457 53.7812L-90.0258 54.0049L-89.9613 54.1207L-89.8235 54.36L-89.7508 54.4829L-89.5956 54.7359L-89.4306 54.9979L-89.256 55.2679L-89.0716 55.5455L-88.7786 55.9758L-88.5734 56.2704L-88.2508 56.7235L-87.9132 57.1883L-87.4421 57.8229L-87.1986 58.1454L-86.8255 58.6348L-86.4442 59.1285L-85.9261 59.7906L-85.3915 60.4663L-85.0495 60.8938L-84.4572 61.6291L-83.96 62.2415L-82.9912 63.4237L-80.635 66.2818L-79.5023 67.6688L-78.8017 68.536L-78.1444 69.3588L-77.5303 70.1377L-76.9598 70.8749L-76.5595 71.4012L-76.1836 71.9053L-75.9468 72.2292L-75.7203 72.5437L-75.5039 72.8487L-75.2987 73.1447L-75.1042 73.4317L-74.9199 73.7098L-74.832 73.8455L-74.6637 74.1108L-74.5837 74.2404L-74.4313 74.4929L-74.3586 74.6163L-74.2223 74.857L-74.1577 74.9743L-74.0365 75.2032L-73.9263 75.4245C-73.2244 76.8738 -73.2181 77.8243 -73.8812 78.4991C-74.9883 79.6468 -76.6469 79.4652 -78.5602 78.7606L-78.8493 78.6509C-78.9463 78.6131 -79.0433 78.5743 -79.1418 78.5341L-79.4377 78.4112L-79.7366 78.2816L-80.0383 78.1464L-80.3429 78.0069L-80.959 77.7156L-81.7411 77.3354L-83.1086 76.6615L-83.7747 76.3419L-84.3136 76.0926L-84.7163 75.9134L-84.9831 75.7995C-85.0267 75.7805 -85.0709 75.7621 -85.115 75.7441L-85.3765 75.6382L-85.6336 75.538L-85.8859 75.4453L-86.1318 75.3602C-87.1433 75.0244 -87.9728 74.9138 -88.3265 75.2854C-88.8591 75.8444 -88.8407 76.6119 -88.5298 77.6706L-88.4526 77.9199L-88.4109 78.0485L-88.3197 78.3142L-88.2198 78.5904L-88.1121 78.8779L-87.8758 79.487C-87.7802 79.73 -87.6832 79.9764 -87.5886 80.2256L-87.4955 80.4748L-87.4048 80.7259L-87.3611 80.8517L-87.2762 81.1042L-87.1971 81.3568C-86.7256 82.9173 -86.6038 84.4943 -87.8351 85.7938C-88.879 86.8956 -90.5207 86.7343 -92.4621 85.999L-92.7556 85.8846C-92.805 85.8648 -92.8543 85.8448 -92.9035 85.8245L-93.2034 85.6978L-93.507 85.5644L-93.8146 85.4235L-94.2822 85.2013L-94.5976 85.0462L-94.9163 84.8859L-95.2374 84.7213L-95.724 84.4674L-96.3804 84.1174L-97.9842 83.2497L-98.657 82.8898L-99.1315 82.6406L-99.6195 82.39L-99.9106 82.2434L-100.326 82.0386L-100.603 81.9062L-101.014 81.7147L-101.418 81.535L-101.682 81.423L-101.811 81.3695L-102.065 81.2688L-102.312 81.1766L-102.55 81.0938C-103.287 80.847 -103.877 80.7543 -104.164 80.934C-104.17 81.1596 -104.063 81.4873 -103.864 81.8954L-103.767 82.0892C-103.732 82.1554 -103.695 82.224 -103.657 82.294L-103.534 82.5092L-103.401 82.7343L-103.256 82.9683L-103.102 83.2119L-102.937 83.4634L-102.764 83.7226L-102.581 83.9898L-102.291 84.4026L-101.985 84.8296L-101.663 85.2684L-101.328 85.7181L-100.98 86.1768L-100.379 86.9557L-100.009 87.4295L-99.4861 88.0896L-98.9573 88.7507L-98.3737 89.4733L-97.794 90.1854L-96.67 91.5554L-95.5324 92.9362L-94.5845 94.0919L-93.3804 95.573L-92.7323 96.3797L-92.2661 96.9661L-91.6714 97.7227L-91.2459 98.2722L-90.8384 98.806L-90.4503 99.3239L-90.0807 99.8265L-89.8449 100.153L-89.6179 100.473L-89.3996 100.786L-89.0891 101.243C-89.0551 101.292 -89.0221 101.342 -88.9896 101.391L-88.7985 101.684L-88.6161 101.971L-88.5288 102.111L-88.3609 102.387C-88.3333 102.433 -88.3066 102.478 -88.2804 102.523L-88.1266 102.789C-88.0767 102.877 -88.0286 102.964 -87.9825 103.049L-87.8482 103.302C-87.8045 103.386 -87.7633 103.468 -87.7235 103.549L-87.609 103.79C-86.8789 105.371 -86.8207 106.524 -87.5789 107.29C-88.4977 108.175 -90.036 108.084 -93.8971 105.626L-94.3443 105.337L-94.8115 105.028L-95.3 104.698L-95.5523 104.525L-96.0733 104.162L-96.6166 103.777L-97.1823 103.369L-97.7717 102.938L-98.3853 102.484L-98.7012 102.248L-99.3512 101.757L-99.6859 101.502L-100.375 100.974L-101.089 100.421L-101.831 99.8412L-102.994 98.9228L-103.805 98.2774L-104.644 97.604L-105.512 96.9027L-106.411 96.1735L-107.339 95.415L-108.298 94.6277L-109.289 93.8105L-110.834 92.5286L-117.927 86.6176L-119.488 85.3219L-121.002 84.072L-122.103 83.1688L-123.171 82.2987L-124.204 81.465L-124.871 80.9307L-125.705 80.2691L-126.412 79.7168L-127.22 79.0954L-127.809 78.6509L-128.476 78.1572L-128.958 77.8097L-129.498 77.4304L-129.791 77.2309L-130.147 76.9954L-130.465 76.793L-130.68 76.6615L-130.812 76.583L-130.67 76.8152L-130.512 77.0625L-130.34 77.325L-130.153 77.6011L-129.953 77.891L-129.739 78.1941L-129.395 78.6727L-129.151 79.007L-128.763 79.5295L-128.35 80.0762L-127.915 80.646L-127.302 81.4376L-126.819 82.0538L-126.148 82.9017L-125.272 83.9987L-124.361 85.1303L-122.654 87.2295L-121.292 88.8935L-117.265 93.7888L-115.834 95.5351L-114.458 97.2209L-113.137 98.8477L-112.287 99.8993L-111.058 101.429L-110.269 102.416L-109.504 103.378L-108.764 104.316L-108.048 105.228L-107.357 106.116L-106.689 106.98L-106.364 107.403L-105.733 108.23L-105.127 109.034L-104.832 109.428L-104.262 110.197C-104.075 110.449 -103.893 110.698 -103.715 110.943L-103.192 111.667C-102.634 112.444 -102.087 113.229 -101.553 114.022L-101.137 114.646C-97.7804 119.754 -96.9106 122.628 -98.4411 123.906C-99.6505 124.914 -101.38 124.311 -103.118 123.185L-103.366 123.02L-103.49 122.936L-103.738 122.762L-103.861 122.673L-104.108 122.492L-104.353 122.306L-104.597 122.117L-104.959 121.828L-105.198 121.632L-105.55 121.338L-105.781 121.141C-106.76 120.307 -107.8 119.342 -108.898 118.274L-109.451 117.731L-109.732 117.454L-110.299 116.886L-110.877 116.303L-111.463 115.705L-112.058 115.093L-112.968 114.148L-113.898 113.176L-117.517 109.373L-118.56 108.283L-119.274 107.543L-119.894 106.904L-120.68 106.102L-121.471 105.305L-122.099 104.681L-122.873 103.923L-123.329 103.483L-123.778 103.057L-124.217 102.647L-124.504 102.383L-124.926 102.003L-125.2 101.761L-125.467 101.528L-125.728 101.305L-125.983 101.092L-126.23 100.891C-126.271 100.859 -126.311 100.827 -126.351 100.795L-126.587 100.612L-126.814 100.441C-126.851 100.414 -126.888 100.387 -126.925 100.36L-127.139 100.209C-127.238 100.139 -127.34 100.072 -127.442 100.007L-127.633 99.8908C-128.004 99.6733 -128.312 99.5461 -128.545 99.5281L-128.611 99.5258C-128.691 99.8123 -128.597 100.342 -128.388 101.021L-128.311 101.267C-128.296 101.309 -128.282 101.352 -128.268 101.395L-128.176 101.657L-128.128 101.792L-128.025 102.069L-127.915 102.356L-127.798 102.65L-127.676 102.95L-127.482 103.413L-127.278 103.886L-126.921 104.688L-126.616 105.358L-126.295 106.047L-125.976 106.723L-125.513 107.692L-124.649 109.485L-124.126 110.593L-123.774 111.348C-122.894 113.25 -122.036 115.226 -121.506 116.91L-121.406 117.236L-121.341 117.461L-121.277 117.69L-121.216 117.922L-121.16 118.157L-121.107 118.395L-121.06 118.634C-120.786 120.11 -120.854 121.619 -122.1 122.329C-123.53 123.178 -125.127 122.726 -126.662 121.807L-126.917 121.649C-127.045 121.569 -127.172 121.485 -127.298 121.399L-127.549 121.224L-127.799 121.043L-128.046 120.857L-128.291 120.667L-128.533 120.474L-128.772 120.28L-129.008 120.083L-129.356 119.787L-129.806 119.397L-130.239 119.016L-130.516 118.766L-131.19 118.175L-131.63 117.795C-132.357 117.172 -133.051 116.61 -133.699 116.192C-134.621 115.592 -135.276 115.383 -135.635 115.563C-135.784 115.719 -135.838 116.076 -135.821 116.57L-135.811 116.775C-135.809 116.81 -135.806 116.845 -135.803 116.882L-135.782 117.107L-135.754 117.345L-135.738 117.468L-135.702 117.723L-135.659 117.988L-135.612 118.262L-135.531 118.689L-135.472 118.982L-135.376 119.435L-135.272 119.898L-135.161 120.369L-135.045 120.846L-134.925 121.324L-134.836 121.671C-134.777 121.902 -134.717 122.132 -134.656 122.359L-134.475 123.031L-134.212 123.991L-133.522 126.479L-133.202 127.661L-132.997 128.438L-132.85 129.014L-132.709 129.583L-132.618 129.958L-132.49 130.515L-132.369 131.062L-132.257 131.6L-132.188 131.953L-132.124 132.301L-132.064 132.643L-132.009 132.981L-131.983 133.148L-131.936 133.477L-131.895 133.801L-131.877 133.96L-131.844 134.275L-131.83 134.43L-131.807 134.735C-131.65 137.096 -132.087 138.84 -133.608 139.483C-134.75 139.95 -135.971 139.536 -137.489 137.993L-137.694 137.78L-137.902 137.554C-137.972 137.477 -138.043 137.397 -138.113 137.315L-138.329 137.062L-138.549 136.794L-138.772 136.513L-139 136.217L-139.232 135.907L-139.468 135.583C-139.508 135.527 -139.548 135.471 -139.588 135.416L-139.832 135.069L-140.08 134.709L-140.333 134.333L-140.591 133.942L-140.854 133.536L-141.122 133.114L-141.258 132.898L-141.534 132.453L-141.816 131.993L-142.103 131.518L-142.396 131.026L-142.695 130.518L-142.999 129.994L-143.468 129.178L-143.951 128.325L-144.281 127.735L-144.787 126.819L-145.309 125.879L-147.277 122.313L-147.765 121.438L-148.295 120.496L-148.687 119.81L-149.076 119.137L-149.367 118.644L-149.653 118.165L-149.934 117.703L-150.21 117.26L-150.479 116.838L-150.654 116.571L-150.825 116.314L-150.992 116.071C-151.019 116.032 -151.047 115.993 -151.074 115.954L-151.234 115.731C-151.26 115.695 -151.286 115.66 -151.313 115.625L-151.465 115.423L-151.613 115.237L-151.754 115.068L-151.889 114.916C-152.088 114.701 -152.264 114.547 -152.414 114.465C-152.707 114.679 -152.862 115.233 -152.924 115.99L-152.941 116.235L-152.952 116.493L-152.956 116.762V117.042L-152.952 117.332L-152.947 117.48L-152.935 117.782L-152.919 118.092L-152.898 118.407L-152.874 118.728L-152.833 119.217L-152.785 119.711L-152.731 120.21L-152.691 120.564L-152.651 120.898L-152.567 121.558L-152.481 122.201L-152.291 123.556L-152.24 123.945L-152.038 125.367L-151.989 125.722C-151.965 125.901 -151.941 126.079 -151.917 126.258L-151.849 126.791L-151.807 127.143L-151.748 127.675L-151.693 128.216L-151.661 128.572L-151.633 128.923C-151.628 128.982 -151.624 129.04 -151.62 129.098L-151.599 129.443L-151.582 129.782L-151.57 130.116L-151.564 130.445L-151.563 130.607L-151.565 130.926L-151.568 131.083L-151.58 131.391C-151.685 133.576 -152.302 135.192 -153.96 135.611C-154.816 135.841 -155.719 135.607 -156.82 134.384L-156.983 134.197C-157.011 134.165 -157.038 134.132 -157.065 134.099L-157.233 133.891C-157.351 133.74 -157.465 133.586 -157.576 133.429L-157.753 133.175C-157.783 133.131 -157.813 133.087 -157.843 133.042L-158.024 132.764L-158.21 132.469C-158.242 132.417 -158.273 132.366 -158.304 132.314L-158.495 131.994C-158.528 131.938 -158.56 131.883 -158.592 131.827L-158.789 131.479L-158.99 131.114L-159.092 130.924L-159.299 130.53L-159.51 130.118L-159.726 129.686L-159.836 129.462L-160.058 129L-160.171 128.762L-160.401 128.269L-160.635 127.756L-160.874 127.221L-161.118 126.664L-161.368 126.086L-161.752 125.177L-162.014 124.542L-162.283 123.883L-162.419 123.545L-162.695 122.852L-162.977 122.134L-163.266 121.391L-164.199 118.965L-164.503 118.168L-165.44 115.704L-165.933 114.427L-166.347 113.376L-166.593 112.762L-166.838 112.164L-167.079 111.587L-167.238 111.217L-167.394 110.859L-167.547 110.516L-167.698 110.188L-167.846 109.876L-167.918 109.727L-168.06 109.443C-168.293 108.986 -168.509 108.611 -168.702 108.347C-168.741 108.496 -168.776 108.669 -168.809 108.863L-168.846 109.107L-168.88 109.37C-168.891 109.461 -168.902 109.556 -168.912 109.653L-168.941 109.953L-168.968 110.271L-168.992 110.605L-169.023 111.135L-169.041 111.507L-169.072 112.288L-169.095 113.116L-169.111 113.983L-169.121 114.883L-169.126 116.041V116.784L-169.123 117.658L-169.115 119.038L-169.091 121.501C-169.081 122.229 -169.073 122.965 -169.067 123.705L-169.043 126.796L-169.039 127.638L-169.037 128.858L-169.04 130.029L-169.046 130.783L-169.059 131.874L-169.071 132.574L-169.095 133.586L-169.114 134.235L-169.147 135.171L-169.173 135.769L-169.202 136.349L-169.233 136.908L-169.268 137.448L-169.306 137.97L-169.347 138.473L-169.368 138.717L-169.414 139.191C-169.429 139.347 -169.445 139.499 -169.462 139.648L-169.514 140.087L-169.541 140.299L-169.598 140.712L-169.658 141.106L-169.721 141.484L-169.788 141.844L-169.858 142.188L-169.894 142.354L-169.97 142.673C-170.509 144.85 -171.308 145.838 -172.429 145.991L-172.51 146H-172.682L-172.798 145.992C-173.341 145.945 -173.852 145.669 -174.348 145.007L-174.453 144.859L-174.559 144.699C-174.673 144.519 -174.778 144.333 -174.873 144.143L-174.978 143.932C-175.013 143.857 -175.048 143.782 -175.082 143.706L-175.185 143.466C-175.203 143.425 -175.22 143.383 -175.237 143.341L-175.341 143.079L-175.444 142.803C-175.462 142.756 -175.479 142.708 -175.496 142.659L-175.6 142.359C-175.617 142.307 -175.634 142.255 -175.652 142.203L-175.755 141.879C-175.772 141.823 -175.79 141.767 -175.807 141.711L-175.911 141.363L-176.014 140.998L-176.118 140.615L-176.222 140.215L-176.274 140.009L-176.379 139.581L-176.483 139.136L-176.588 138.671L-176.641 138.432L-176.799 137.685L-176.959 136.894L-177.066 136.341L-177.173 135.767L-177.281 135.173L-177.39 134.557L-177.499 133.92L-177.609 133.26L-177.775 132.229L-177.944 131.146L-178 130.774V115.154L-177.723 117.306L-177.547 118.696C-177.424 119.714 -177.294 120.746 -177.161 121.784L-176.777 124.759L-176.549 126.469L-176.326 128.079L-176.162 129.222L-176.055 129.954L-175.895 131.009L-175.739 132.011L-175.585 132.964L-175.433 133.867L-175.285 134.722L-175.188 135.266L-175.091 135.79L-174.949 136.538L-174.81 137.242L-174.674 137.903L-174.54 138.522L-174.409 139.102L-174.281 139.642L-174.155 140.144L-174.073 140.459L-173.993 140.757L-173.914 141.039L-173.836 141.307L-173.759 141.56L-173.683 141.798L-173.609 142.022L-173.5 142.331L-173.394 142.612L-173.324 142.782L-173.257 142.94L-173.157 143.156L-173.093 143.284L-173.03 143.402L-172.967 143.509L-172.907 143.605L-172.847 143.692L-172.789 143.768L-172.733 143.836L-172.704 143.866L-172.65 143.92L-172.623 143.944L-172.582 143.902L-172.541 143.854L-172.498 143.798L-172.456 143.735L-172.413 143.664L-172.369 143.585L-172.326 143.497L-172.26 143.347L-172.215 143.235C-172.208 143.215 -172.2 143.195 -172.193 143.175L-172.127 142.981L-172.083 142.837L-172.038 142.683L-171.995 142.517L-171.951 142.339L-171.907 142.148L-171.843 141.838L-171.801 141.615L-171.759 141.377L-171.698 140.995L-171.639 140.579L-171.6 140.283L-171.544 139.809L-171.489 139.298L-171.455 138.937L-171.421 138.559L-171.373 137.957L-171.343 137.534L-171.301 136.863L-171.274 136.393L-171.237 135.65L-171.214 135.129L-171.184 134.309L-171.157 133.443L-171.135 132.527L-171.118 131.561L-171.109 130.888L-171.102 130.192L-171.097 129.472L-171.095 128.348L-171.099 127.168L-171.121 124.15L-171.128 123.263L-171.16 120.264L-171.175 117.965L-171.178 116.909L-171.175 115.39L-171.168 114.503L-171.152 113.471L-171.134 112.703L-171.111 111.986L-171.09 111.481L-171.066 111.003L-171.028 110.406L-170.995 109.989L-170.972 109.724L-170.946 109.471L-170.919 109.228L-170.89 108.996L-170.859 108.774L-170.826 108.563L-170.791 108.361L-170.773 108.264L-170.735 108.077L-170.695 107.9L-170.653 107.731L-170.609 107.572L-170.563 107.422L-170.539 107.351L-170.489 107.213L-170.438 107.085L-170.41 107.024L-170.355 106.908L-170.326 106.853L-170.267 106.749L-170.206 106.653C-170.164 106.591 -170.121 106.534 -170.075 106.482L-170.006 106.409L-169.934 106.341C-169.837 106.256 -169.732 106.19 -169.62 106.139L-169.535 106.104C-169.462 106.078 -169.386 106.057 -169.308 106.043L-169.212 106.028C-169.196 106.026 -169.179 106.024 -169.163 106.022C-168.532 105.909 -167.972 106.145 -167.407 106.77L-167.294 106.901C-167.237 106.968 -167.18 107.04 -167.124 107.116L-167.009 107.272C-166.971 107.325 -166.933 107.381 -166.895 107.438L-166.779 107.616L-166.663 107.804L-166.545 108.003L-166.427 108.214L-166.307 108.434L-166.125 108.786L-165.939 109.163L-165.876 109.294L-165.684 109.705L-165.488 110.141L-165.287 110.602L-165.079 111.089L-164.938 111.429L-164.72 111.96L-164.572 112.329L-164.185 113.303L-163.693 114.571L-162.887 116.68L-162.288 118.258C-161.98 119.064 -161.668 119.869 -161.351 120.672L-161.071 121.393L-160.799 122.087L-160.402 123.078L-160.021 124.011L-159.776 124.601L-159.536 125.167L-159.303 125.71L-159.077 126.228L-158.857 126.723L-158.644 127.196L-158.436 127.648L-158.235 128.077L-158.04 128.486L-157.851 128.875L-157.667 129.243L-157.49 129.593L-157.319 129.923L-157.072 130.385C-157.046 130.434 -157.019 130.482 -156.993 130.53L-156.839 130.807L-156.69 131.067L-156.547 131.311L-156.409 131.54L-156.276 131.753L-156.149 131.952L-155.968 132.223L-155.853 132.387L-155.691 132.609L-155.589 132.743L-155.492 132.864L-155.4 132.975L-155.313 133.074L-155.23 133.164L-155.114 133.281L-155.043 133.349L-154.976 133.408L-154.884 133.482L-154.828 133.523L-154.775 133.557L-154.705 133.598L-154.663 133.619L-154.608 133.642L-154.548 133.659L-154.502 133.665C-153.983 133.534 -153.737 132.774 -153.656 131.702L-153.639 131.44C-153.635 131.35 -153.632 131.258 -153.629 131.165L-153.624 130.882L-153.625 130.588C-153.626 130.489 -153.628 130.389 -153.631 130.288L-153.641 129.979L-153.656 129.665L-153.675 129.346L-153.697 129.022L-153.723 128.696L-153.768 128.202L-153.818 127.707L-153.854 127.377L-153.951 126.562L-154.076 125.62L-154.277 124.205L-154.328 123.816L-154.521 122.451L-154.674 121.314L-154.743 120.759L-154.787 120.395L-154.846 119.857L-154.881 119.505L-154.913 119.158L-154.942 118.817L-154.966 118.482L-154.986 118.153L-155.001 117.83L-155.011 117.514L-155.016 117.205C-155.017 117.104 -155.017 117.003 -155.016 116.903L-155.01 116.608C-154.947 114.522 -154.423 113.02 -152.987 112.509C-152.24 112.257 -151.511 112.515 -150.692 113.294L-150.546 113.437L-150.399 113.591L-150.249 113.755L-150.174 113.842L-150.021 114.022L-149.865 114.214L-149.707 114.417L-149.547 114.631L-149.383 114.855L-149.217 115.09L-149.047 115.336L-148.875 115.594L-148.609 116L-148.428 116.285L-148.244 116.58L-148.054 116.887L-147.764 117.368L-147.465 117.873L-147.26 118.224L-146.836 118.959L-146.506 119.539L-145.693 120.99L-142.805 126.215L-142.434 126.882L-142.072 127.524L-141.722 128.139L-141.383 128.73L-141.053 129.296L-140.733 129.838L-140.424 130.357L-140.124 130.852L-139.835 131.325L-139.554 131.776L-139.283 132.205L-139.021 132.613L-138.769 133.001L-138.525 133.369L-138.29 133.718L-137.954 134.205L-137.637 134.652L-137.436 134.928L-137.243 135.187L-137.057 135.429L-136.967 135.544L-136.793 135.764L-136.626 135.967L-136.467 136.157L-136.316 136.331L-136.17 136.493L-136.032 136.642L-135.901 136.778L-135.716 136.96L-135.6 137.067L-135.491 137.163L-135.388 137.249L-135.291 137.325L-135.199 137.393L-135.113 137.451L-135.032 137.501L-134.957 137.543L-134.853 137.594L-134.79 137.62L-134.704 137.648L-134.653 137.659L-134.584 137.669L-134.542 137.67L-134.489 137.666L-134.442 137.656L-134.416 137.647C-134.156 137.535 -133.979 137.245 -133.885 136.777L-133.858 136.623L-133.847 136.541L-133.829 136.37C-133.818 136.252 -133.811 136.125 -133.808 135.991L-133.807 135.784C-133.807 135.749 -133.807 135.713 -133.807 135.677L-133.814 135.451L-133.826 135.215L-133.843 134.967L-133.867 134.707L-133.895 134.435L-133.929 134.152L-133.969 133.856L-134.014 133.549L-134.065 133.231L-134.152 132.73L-134.216 132.382L-134.287 132.023L-134.403 131.461L-134.487 131.073L-134.623 130.467L-134.721 130.049L-134.879 129.4L-134.991 128.953L-135.109 128.494L-135.295 127.784L-135.494 127.048L-136.209 124.479L-136.654 122.854L-136.908 121.891L-137.096 121.15L-137.227 120.612L-137.346 120.091L-137.456 119.586L-137.522 119.26L-137.583 118.94C-137.593 118.888 -137.603 118.835 -137.611 118.783L-137.664 118.476L-137.71 118.176C-137.717 118.127 -137.724 118.078 -137.731 118.029L-137.767 117.742C-137.779 117.647 -137.788 117.554 -137.797 117.463L-137.82 117.191L-137.836 116.929C-137.909 115.381 -137.579 114.3 -136.607 113.806C-135.453 113.224 -134.267 113.584 -133.316 114.087L-133.115 114.196L-132.923 114.309L-132.738 114.422L-132.564 114.535C-131.859 114.99 -131.142 115.565 -130.401 116.196L-129.904 116.625L-129.144 117.289L-128.868 117.539L-128.295 118.042L-127.879 118.4L-127.663 118.582L-127.332 118.856L-126.992 119.127L-126.763 119.304L-126.648 119.391L-126.417 119.561L-126.185 119.724L-125.953 119.881L-125.724 120.029C-124.729 120.65 -123.784 120.995 -123.155 120.622L-123.145 120.616L-123.125 120.597L-123.104 120.569L-123.084 120.533L-123.064 120.486C-123.061 120.477 -123.057 120.468 -123.054 120.459L-123.036 120.398L-123.021 120.325L-123.014 120.285L-123.003 120.195L-122.998 120.147L-122.992 120.039C-122.992 120.02 -122.991 120.001 -122.991 119.981L-122.992 119.855L-122.998 119.715C-122.999 119.69 -123.001 119.666 -123.003 119.641L-123.018 119.481L-123.039 119.306L-123.068 119.117L-123.105 118.913L-123.127 118.805L-123.176 118.578C-123.185 118.538 -123.195 118.498 -123.204 118.458L-123.267 118.205L-123.342 117.935C-123.355 117.888 -123.369 117.841 -123.382 117.795L-123.472 117.499C-123.884 116.183 -124.52 114.649 -125.211 113.113L-125.534 112.404L-125.861 111.7L-126.188 111.004L-127.923 107.357L-128.473 106.18L-128.811 105.442L-129.049 104.911L-129.272 104.401L-129.481 103.911L-129.612 103.594L-129.736 103.287L-129.853 102.988L-129.963 102.698L-130.066 102.416L-130.161 102.143L-130.249 101.878L-130.329 101.621L-130.401 101.372L-130.466 101.131L-130.495 101.014L-130.547 100.786C-130.836 99.4378 -130.678 98.519 -129.944 97.9643L-129.88 97.9189C-128.917 97.186 -127.609 97.4919 -125.837 98.7006L-125.574 98.8841L-125.44 98.9805L-125.168 99.1829L-124.888 99.3981L-124.601 99.626L-124.308 99.8658L-124.007 100.119L-123.7 100.384L-123.384 100.66L-123.062 100.95L-122.732 101.25L-122.224 101.725L-121.698 102.225L-121.338 102.573L-120.783 103.117L-120.403 103.493L-119.818 104.08L-119.214 104.691L-118.167 105.764L-116.84 107.142L-114.698 109.385L-112.409 111.795L-111.793 112.438L-110.887 113.381L-110.001 114.293L-109.423 114.884L-108.854 115.459L-108.295 116.018L-107.746 116.561L-107.207 117.086C-106.228 118.033 -105.3 118.889 -104.43 119.635L-104.135 119.884L-103.715 120.23L-103.449 120.443L-103.196 120.642L-102.953 120.827L-102.722 120.999L-102.396 121.233L-102.192 121.375L-101.904 121.566L-101.813 121.623L-101.639 121.732L-101.474 121.83L-101.245 121.96L-101.103 122.035L-100.97 122.102L-100.846 122.161L-100.675 122.235L-100.57 122.276L-100.428 122.326L-100.303 122.363L-100.228 122.382L-100.128 122.401L-100.018 122.415L-99.9717 122.417H-99.9314C-99.8893 122.417 -99.8475 122.411 -99.8072 122.399L-99.783 122.389L-99.7684 122.365L-99.7558 122.338L-99.7398 122.286L-99.7291 122.235L-99.7194 122.149L-99.718 122.068L-99.7199 122.007L-99.7247 121.94L-99.7383 121.826L-99.7607 121.695L-99.7805 121.598L-99.8198 121.439L-99.8523 121.321L-99.8911 121.196L-99.9353 121.061L-99.9862 120.917L-100.075 120.682L-100.143 120.513L-100.22 120.334L-100.303 120.144L-100.396 119.944L-100.498 119.732L-100.608 119.509L-100.727 119.274L-100.857 119.027L-101.07 118.633L-101.227 118.354L-101.394 118.063L-101.666 117.6L-101.965 117.107L-102.181 116.759L-102.528 116.212L-102.777 115.828L-103.039 115.429L-103.315 115.015L-103.758 114.363L-104.071 113.908L-104.4 113.437L-104.745 112.948L-105.107 112.443L-105.485 111.92C-106.655 110.309 -107.958 108.592 -109.339 106.819L-110.178 105.748C-110.318 105.569 -110.46 105.389 -110.603 105.209L-111.465 104.123C-111.609 103.941 -111.755 103.759 -111.9 103.576L-112.78 102.479L-113.667 101.378L-114.562 100.275L-115.459 99.1735L-116.806 97.5264L-119.03 94.8182L-121.79 91.4646L-123.774 89.0415L-124.974 87.568L-125.812 86.5339L-126.849 85.2462L-127.566 84.3468L-128.449 83.2308L-129.056 82.4553L-129.616 81.7284L-130.132 81.0503L-130.452 80.6233L-130.753 80.2166L-131.035 79.8289L-131.299 79.46L-131.425 79.2827L-131.663 78.9408L-131.884 78.6164L-132.088 78.3086L-132.184 78.1606L-132.363 77.8768L-132.527 77.6077C-132.553 77.565 -132.578 77.5221 -132.603 77.4791L-132.744 77.2323L-132.87 76.9992L-132.982 76.7797C-133.592 75.5351 -133.485 74.9383 -133.005 74.4768L-132.925 74.404L-132.847 74.3416L-132.766 74.2848C-132.495 74.1061 -132.178 74.0276 -131.786 74.0664L-131.666 74.0815L-131.605 74.0919L-131.477 74.1174C-131.433 74.1273 -131.39 74.1387 -131.345 74.1505L-131.207 74.1912L-131.136 74.2144L-130.99 74.2664L-130.838 74.3255L-130.68 74.3926L-130.599 74.429L-130.432 74.508L-130.258 74.5946L-130.077 74.6896L-129.89 74.7927L-129.696 74.9038L-129.494 75.0235L-129.178 75.2192L-128.957 75.3602L-128.611 75.5881L-128.247 75.8359L-127.863 76.104L-127.459 76.3925L-127.179 76.5967L-126.589 77.0332L-125.961 77.508L-125.292 78.022L-124.581 78.5762L-124.209 78.8685L-123.223 79.6544L-122.198 80.4805L-121.495 81.0517L-120.411 81.9375L-119.296 82.8548L-117.374 84.4451L-112.508 88.4982L-109.303 91.1704L-108.252 92.0434L-106.89 93.1651L-105.257 94.5009L-104.624 95.0145L-103.396 96.0061L-102.215 96.9505L-101.083 97.847L-100.266 98.4883L-99.4754 99.103L-98.7123 99.6908L-98.219 100.068L-97.2681 100.786L-96.8111 101.126L-96.3663 101.456L-95.7216 101.927L-95.1045 102.372L-94.7082 102.652L-94.1367 103.052L-93.7709 103.304L-93.2456 103.658L-92.9103 103.879L-92.4301 104.189L-92.1259 104.38L-91.8334 104.56L-91.6917 104.645L-91.4181 104.805L-91.1562 104.955L-90.9073 105.092L-90.6696 105.217L-90.4455 105.33L-90.3373 105.382L-90.1311 105.477C-89.6644 105.684 -89.2982 105.793 -89.0328 105.803C-89.0183 105.5 -89.1783 105.041 -89.4704 104.47L-89.5863 104.25C-89.6068 104.212 -89.6275 104.174 -89.6484 104.136L-89.7818 103.902L-89.9259 103.658L-90.0807 103.405L-90.2456 103.144L-90.4202 102.875L-90.6036 102.599L-90.8947 102.172L-91.2037 101.73L-91.5282 101.277L-91.7524 100.969L-92.0997 100.499L-92.4582 100.021L-93.0762 99.2132L-93.5842 98.5597L-94.11 97.8929L-94.5136 97.3855L-95.041 96.7282L-95.8074 95.7815L-97.0328 94.2858L-98.3441 92.6926L-99.9028 90.785L-100.616 89.9012L-101.286 89.0628L-101.761 88.4632L-102.21 87.8872L-102.496 87.516L-102.772 87.1557L-103.165 86.6336L-103.533 86.1338L-103.878 85.6552L-104.199 85.198L-104.4 84.9048L-104.589 84.6201L-104.768 84.3439L-104.937 84.0768C-104.964 84.0334 -104.991 83.9899 -105.017 83.9463L-105.17 83.6918L-105.312 83.4455C-105.358 83.3646 -105.402 83.2847 -105.444 83.2067L-105.566 82.9759L-105.676 82.7527L-105.776 82.5371C-105.837 82.4023 -105.893 82.2657 -105.945 82.1275L-106.013 81.9337L-106.072 81.7464C-106.337 80.8262 -106.213 80.1542 -105.71 79.6364C-104.705 78.5913 -103.174 78.7171 -101.316 79.4132L-101.027 79.5243L-100.734 79.6445L-100.435 79.7726L-100.132 79.9083L-99.8247 80.0507L-99.5128 80.2001L-99.0373 80.4351L-98.7147 80.5983L-98.2248 80.8527L-97.5587 81.2059L-95.6168 82.2543L-95.0807 82.5404L-94.5229 82.8326C-94.4287 82.8818 -94.3342 82.9305 -94.2391 82.9792L-93.819 83.192L-93.4168 83.3906L-93.15 83.5192L-92.7522 83.7056L-92.4907 83.8238L-92.2331 83.9373L-91.9799 84.0441L-91.7325 84.1444L-91.6112 84.1917L-91.3735 84.2806L-91.1436 84.361C-91.0684 84.3865 -90.9946 84.4101 -90.9223 84.4324L-90.7103 84.4938C-90.055 84.6721 -89.5538 84.6925 -89.3297 84.4565C-88.7621 83.8536 -88.8155 83.0133 -89.1876 81.8358L-89.2759 81.5681C-89.2915 81.5222 -89.3073 81.4763 -89.3234 81.4305L-89.4253 81.1459L-89.5368 80.8498L-89.7178 80.3831L-89.875 79.9826C-89.9225 79.8606 -89.9701 79.7376 -90.0171 79.6137L-90.1568 79.2416L-90.2466 78.9914L-90.3324 78.7408L-90.4139 78.4887L-90.4901 78.2362C-90.9267 76.7221 -91.0116 75.1989 -89.8211 73.9481C-88.7738 72.8416 -87.2025 72.9277 -85.4274 73.5102L-85.1461 73.6062L-84.8608 73.7098L-84.5732 73.8204C-84.5246 73.8394 -84.4761 73.8583 -84.4281 73.8781L-84.137 73.9983L-83.8431 74.1236L-83.6956 74.1884L-83.2507 74.3889L-82.6531 74.6688L-82.3528 74.8126L-81.7415 75.1105L-80.5118 75.7158L-79.9655 75.9787L-79.6866 76.1106L-79.2645 76.305L-78.9822 76.4312L-78.7008 76.5537L-78.4219 76.671C-78.3297 76.7088 -78.2375 76.7466 -78.1463 76.7821L-77.8757 76.8861C-77.831 76.9032 -77.7864 76.9192 -77.7422 76.9353L-77.4808 77.0271C-76.5785 77.3321 -75.8207 77.4597 -75.4481 77.2115C-75.4491 77.001 -75.5466 76.7041 -75.7217 76.3385L-75.8159 76.1499L-75.9226 75.9503L-76.0405 75.7403L-76.1705 75.5205L-76.3112 75.2911L-76.4625 75.0528C-76.4889 75.0117 -76.5154 74.9707 -76.5421 74.9298L-76.708 74.6792L-76.9743 74.2881L-77.162 74.0186L-77.4589 73.6025L-77.7718 73.1726L-78.0993 72.7319L-78.4394 72.2812L-78.7906 71.8225L-79.2733 71.2012L-79.5192 70.8876L-80.0495 70.2185L-80.3172 69.8833L-80.8562 69.2141L-81.3947 68.5502L-82.1927 67.5751L-84.1128 65.2438L-85.361 63.7202L-86.1401 62.7603L-86.8755 61.8438L-87.3994 61.1846L-87.7346 60.7581L-88.3731 59.9357L-88.8232 59.346L-89.2492 58.7781L-89.5189 58.4116L-89.778 58.0551L-90.0254 57.7075L-90.2626 57.3694L-90.4882 57.0408L-90.5968 56.88L-90.8054 56.5641L-91.0033 56.2577C-91.0351 56.2078 -91.0666 56.1578 -91.098 56.1078L-91.2789 55.8146L-91.4487 55.5299C-91.5022 55.4381 -91.555 55.3459 -91.6068 55.2533L-91.7538 54.9856C-92.7895 53.0501 -92.9103 51.7748 -92.0633 50.9359C-91.244 50.1462 -89.9836 50.2171 -87.6517 51.5274L-87.3485 51.7015C-87.2452 51.762 -87.1399 51.8244 -87.0332 51.8892L-86.7052 52.0906L-86.3652 52.3063L-86.012 52.5361C-85.9519 52.5753 -85.8917 52.6155 -85.8306 52.6562L-85.458 52.9073L-85.2664 53.0388L-84.8734 53.3121L-84.4659 53.6001L-83.8285 54.0607L-83.1581 54.5558L-82.6924 54.9048L-82.2106 55.2703L-81.7139 55.6514L-81.2006 56.0486L-80.6714 56.4619L-79.8462 57.1131L-78.9827 57.8021L-78.0794 58.5289L-76.8133 59.5588L-75.4724 60.6588L-74.4134 61.5341L-70.2545 64.9625L-68.9554 66.0245L-68.0079 66.7934L-67.3904 67.29L-66.4876 68.0088L-65.9025 68.4693L-65.3316 68.9138L-64.7766 69.3394L-64.5049 69.5456L-64.0669 69.8743L-63.5813 70.2322L-63.2776 70.4526L-62.8507 70.7571L-62.4582 71.0314L-62.0978 71.2764L-61.666 71.5615L-61.4691 71.6873L-61.2852 71.8022L-60.9534 72.0022L-60.7346 72.1275L-60.5396 72.2335L-60.3674 72.3219C-60.4128 72.2215 -60.4605 72.1222 -60.5105 72.024L-60.624 71.8065C-60.6444 71.7691 -60.6647 71.7308 -60.6861 71.693L-60.8205 71.4537L-60.9684 71.2016L-61.1285 70.9364L-61.3017 70.6583C-61.3318 70.6105 -61.3621 70.5627 -61.3924 70.515L-61.682 70.0677L-61.8887 69.7556L-62.1055 69.4331L-62.4495 68.9313L-62.8133 68.4093L-63.4605 67.4995L-63.8704 66.932L-64.4389 66.1555L-64.8794 65.5597L-65.7895 64.342L-66.4124 63.5169L-66.7461 63.0771C-67.1105 62.5975 -67.4758 62.1187 -67.842 61.6405L-68.936 60.2157L-72.4948 55.5989L-73.1633 54.7265L-73.8085 53.8805L-74.4289 53.0615L-75.0256 52.2684L-75.6 51.501L-76.1511 50.7585L-76.6798 50.0412L-77.1863 49.3475L-77.6709 48.6779L-78.1342 48.0314L-78.5762 47.4082L-78.9982 46.8071L-79.201 46.5149L-79.592 45.9465L-79.7797 45.6703L-80.1411 45.1336L-80.4836 44.6172L-80.8067 44.1217L-81.1109 43.6455L-81.3971 43.1882L-81.6654 42.7498C-81.709 42.6784 -81.7512 42.608 -81.793 42.5375L-82.0355 42.1266L-82.2606 41.7331L-82.4692 41.3572C-82.5653 41.1805 -82.6593 41.0027 -82.7511 40.8238L-82.9194 40.4885C-84.1773 37.9236 -84.0158 36.7911 -83.1974 36.1063C-83.0688 35.9999 -82.9154 35.9258 -82.7506 35.8907C-82.5859 35.8556 -82.4148 35.8605 -82.2524 35.9049C-82.2917 35.589 -82.1748 35.2618 -81.9079 35.0381C-81.1972 34.4338 -80.2071 34.4739 -78.7702 35.2386L-78.5398 35.3653L-78.4214 35.4334L-78.1793 35.5786C-78.1386 35.6037 -78.0969 35.6292 -78.0556 35.6557L-77.8019 35.8188L-77.54 35.9947L-77.2702 36.1825C-77.2241 36.2151 -77.1781 36.2477 -77.132 36.2813L-76.8496 36.4879L-76.7051 36.5962L-76.4096 36.8218L-76.2588 36.9395L-75.9502 37.184L-75.633 37.4417L-75.3065 37.7122L-74.9703 37.9955L-74.6254 38.2915L-74.2703 38.6008C-73.0473 39.6761 -71.7176 40.9292 -70.3506 42.267L-69.6015 43.0047L-68.8472 43.7556L-68.0904 44.517L-67.712 44.9005L-66.9562 45.6708L-66.2038 46.4426L-65.4567 47.2129L-64.354 48.3577L-63.6332 49.1096C-63.1704 49.5882 -62.7095 50.0691 -62.2511 50.5486L-60.8869 51.9819L-58.8383 54.1382L-57.901 55.1209L-57.1278 55.929L-55.8412 57.2625L-54.7604 58.3691L-54.0589 59.0793L-53.5457 59.5924L-53.046 60.0871L-52.721 60.4053L-52.248 60.8635L-51.9424 61.1548L-51.646 61.4343L-51.3588 61.7015L-50.9464 62.0765L-50.6845 62.3091L-50.5583 62.4193L-50.3134 62.6288L-50.081 62.8227L-49.9694 62.9125L-49.756 63.0804C-49.6876 63.1334 -49.6211 63.1835 -49.5571 63.2303C-49.5845 63.1517 -49.6129 63.0736 -49.6424 62.9957L-49.7414 62.7423L-49.854 62.4718L-49.9786 62.1843L-50.1154 61.8812L-50.2634 61.5629L-50.5055 61.0598L-50.7694 60.5273L-50.9566 60.158L-51.253 59.5839L-51.5659 58.9881L-51.7828 58.5814L-52.119 57.9572L-52.3494 57.5335L-52.9437 56.4534L-53.5559 55.3545L-54.2069 54.1959L-55.4944 51.9232C-55.7922 51.4024 -56.0885 50.8806 -56.3831 50.358L-58.3794 46.8095L-58.7975 46.06L-59.2021 45.3303L-59.5931 44.6205L-60.1544 43.5911L-60.6856 42.6047L-61.0232 41.97L-61.3478 41.3539L-61.6592 40.7557L-61.9576 40.1755L-62.2428 39.6127L-62.5155 39.0675L-62.7755 38.5388L-62.9006 38.2811L-63.1417 37.778L-63.3707 37.2909L-63.5866 36.8204L-63.7903 36.3655C-63.8238 36.2912 -63.8558 36.2175 -63.8878 36.1442L-64.0737 35.7129L-64.2473 35.2968L-64.4089 34.8958C-64.4345 34.8309 -64.4599 34.7659 -64.485 34.7009L-64.6286 34.3226C-65.823 31.1023 -65.691 29.5111 -64.4933 28.8211C-64.3836 28.7559 -64.2691 28.6996 -64.1498 28.6533L-64.029 28.6107C-63.2718 28.3695 -62.3069 28.5355 -60.9059 29.4335L-60.6749 29.5862C-60.5968 29.6387 -60.5173 29.6941 -60.4363 29.7518L-60.1888 29.93L-60.0627 30.0246L-59.8032 30.2242C-59.7154 30.2927 -59.6261 30.3641 -59.5354 30.4379L-59.2584 30.6658L-58.9722 30.9089L-58.6772 31.1671L-58.3726 31.4414C-58.3207 31.4877 -58.2688 31.5355 -58.2164 31.5837L-57.8972 31.8811L-57.5678 32.1947L-57.3994 32.3578L-57.055 32.6964L-56.6994 33.052L-56.3332 33.4246L-55.9562 33.8152L-55.5681 34.2233L-55.1679 34.6499C-55.1005 34.7227 -55.0321 34.796 -54.9642 34.8702L-54.547 35.3242L-54.1171 35.798L-53.6757 36.2907L-53.2221 36.8029L-52.7559 37.3353L-52.2766 37.8877L-51.7842 38.4608L-51.2787 39.0547L-51.0207 39.3593C-50.3716 40.1189 -49.7275 40.8827 -49.0884 41.6504L-47.2445 43.8677L-46.6575 44.5695L-45.9915 45.3601L-45.3293 46.1361L-44.8078 46.7381L-44.4246 47.1746L-43.9268 47.7302L-43.5659 48.1241L-43.333 48.3747L-42.9944 48.7289L-42.7781 48.9502L-42.5685 49.1583L-42.3677 49.3527L-42.2706 49.4444L-42.0824 49.6165L-41.9044 49.7726C-41.6443 49.9948 -41.4178 50.1603 -41.2335 50.2568C-41.1549 49.9896 -41.1752 49.5418 -41.2616 48.9819L-41.3062 48.7152L-41.3596 48.4348L-41.4207 48.1411L-41.4896 47.8357L-41.5648 47.5207L-41.6463 47.1973L-41.7331 46.8663L-41.8714 46.3612L-41.9684 46.0198L-42.1693 45.3332L-42.275 44.9814L-42.4618 44.3737L-42.6466 43.784L-42.9939 42.6926L-43.4451 41.2952L-43.6193 40.7462L-43.7333 40.3821C-43.8084 40.1417 -43.8827 39.901 -43.9559 39.66L-44.0631 39.3025L-44.2751 38.5767L-44.4246 38.0409L-44.5196 37.6876L-44.6104 37.3387L-44.6962 36.9935L-44.7777 36.652L-44.8539 36.3153L-44.9247 35.9834L-44.9902 35.6561C-45.0006 35.6023 -45.0108 35.5484 -45.0208 35.4944L-45.0765 35.1752C-45.0853 35.1226 -45.0939 35.07 -45.1023 35.0173L-45.1488 34.7061L-45.1886 34.4011C-45.1947 34.3509 -45.2005 34.3006 -45.2061 34.2503L-45.2352 33.9543C-45.4234 31.7563 -44.9756 30.0955 -43.3423 29.4099C-42.4821 29.0505 -41.5304 29.3399 -40.5063 30.288C-39.8 30.9567 -39.032 31.9445 -38.1413 33.3116C-37.3021 34.604 -36.424 36.1408 -35.5605 37.7477L-35.1297 38.5563L-34.7033 39.3711L-34.2818 40.1882L-33.867 41.0025L-33.2606 42.2079L-33.0636 42.6028C-32.8308 43.0662 -32.6004 43.5272 -32.3728 43.9859L-30.7424 47.2824L-29.9958 48.7795L-29.3544 50.0468L-29.0372 50.663L-28.6224 51.4551L-28.3192 52.0225L-28.0252 52.5602L-27.741 53.0652L-27.5586 53.3811L-27.382 53.679L-27.2112 53.9571L-27.0477 54.2148C-26.8881 54.4607 -26.7392 54.674 -26.6039 54.8475C-26.5762 54.5917 -26.566 54.2753 -26.5699 53.9141L-26.5767 53.593L-26.5898 53.252C-26.5925 53.1928 -26.5954 53.1335 -26.5985 53.0742L-26.6203 52.7063L-26.6475 52.3233L-26.679 51.9261L-26.7149 51.518L-26.7547 51.1009L-26.8202 50.4616L-26.8915 49.8123L-26.9963 48.911L-27.0938 48.1095L-27.2384 46.9537C-27.3329 46.2459 -27.4219 45.5373 -27.5052 44.8281L-27.5974 44.0692L-27.7366 42.8539L-27.8118 42.154L-27.8797 41.4773L-27.9398 40.8228L-27.9758 40.3991L-28.0233 39.7825L-28.0621 39.1886L-28.083 38.8055L-28.1072 38.249L-28.1179 37.891L-28.1247 37.5434L-28.1266 37.2058L-28.1247 36.8781L-28.1179 36.5612C-28.115 36.4572 -28.1111 36.3546 -28.1062 36.2539L-28.0902 35.9574C-28.0839 35.86 -28.0771 35.7644 -28.0694 35.6708L-28.0432 35.3946L-28.0121 35.1289L-27.9947 34.9998L-27.9559 34.7492C-27.6852 33.1556 -27.0764 32.2169 -25.9999 31.9544C-24.2991 31.6598 -22.9582 32.9711 -21.8667 34.6655L-21.7042 34.9222L-21.6246 35.0527L-21.4684 35.3166L-21.3151 35.5838L-21.1657 35.8533L-20.9474 36.2605L-20.7369 36.6686L-20.5331 37.0738L-20.2081 37.7354L-20.0824 37.9922L-19.4164 39.3423L-19.1632 39.8435L-18.9628 40.2303L-18.8255 40.489L-18.615 40.8739L-18.4724 41.125L-18.3292 41.3695L-18.1856 41.605L-18.043 41.8296C-17.6151 42.485 -17.2018 42.964 -16.8778 43.0118C-16.7177 42.8241 -16.5794 42.4382 -16.4601 41.9166L-16.4062 41.666L-16.3548 41.3983L-16.3306 41.2579L-16.2825 40.9656L-16.2374 40.6588L-16.1943 40.3386L-16.1535 40.0071L-16.1147 39.6648L-16.0778 39.3139L-16.0429 38.9545L-15.9944 38.405L-15.9488 37.8456L-15.8809 36.9045L-15.8212 35.9706L-15.7213 34.2101L-15.5748 31.6882L-15.5126 30.7032L-15.4622 29.9915L-15.4093 29.303L-15.3526 28.6381L-15.3128 28.2078L-15.2716 27.7879L-15.2056 27.1779L-15.1348 26.592L-15.0853 26.2146L-15.0334 25.8477L-14.9786 25.4916L-14.9504 25.3176L-14.8922 24.9776C-14.8825 24.9218 -14.8728 24.8664 -14.8621 24.812L-14.8 24.4876L-14.768 24.3302L-14.7016 24.0228L-14.6322 23.7258L-14.5594 23.4402L-14.4842 23.165L-14.4052 22.9011L-14.3227 22.6486L-14.2373 22.407C-13.6687 20.8711 -12.8741 20.0378 -11.7283 19.9494C-10.0648 19.9106 -8.9025 21.4972 -8.00114 24.5912L-7.89249 24.9776C-7.83864 25.1743 -7.78575 25.3771 -7.73337 25.5852L-7.63051 26.0089L-7.53009 26.4477L-7.48013 26.6728L-7.3831 27.1339L-7.28754 27.6096L-7.19391 28.1005L-7.10223 28.6055L-7.01248 29.1257L-6.92419 29.66L-6.83734 30.2086L-6.71025 31.0597C-6.69569 31.1557 -6.68211 31.2527 -6.66805 31.3506L-6.58559 31.9426L-6.50409 32.5493L-6.42354 33.1707L-6.34398 33.8058L-6.22612 34.7856L-6.1485 35.4561L-6.03304 36.4884L-5.8812 37.9142L-5.72934 39.3995L-5.44798 42.2661L-5.1734 45.0249L-5.09822 45.7696L-4.88332 47.8097L-4.71545 49.3077L-4.59999 50.279L-4.48163 51.2191L-4.3914 51.8991L-4.29922 52.5536L-4.23616 52.9745L-4.14108 53.5807L-4.07704 53.9656L-4.01204 54.3349L-3.94606 54.6877L-3.87912 55.022L-3.81218 55.3379L-3.77821 55.4883L-3.70932 55.7739C-3.65208 56.0033 -3.59387 56.2104 -3.5347 56.3929L-3.49782 56.5036L-3.46434 56.4043L-3.43039 56.2969L-3.36345 56.0671L-3.29651 55.8174L-3.23003 55.5479L-3.19656 55.406L-3.09712 54.9525L-3.03114 54.6276L-2.96516 54.2853L-2.89967 53.9259L-2.83418 53.5504L-2.73715 52.9579L-2.64014 52.3313L-2.54312 51.6736L-2.41553 50.75L-2.25786 49.5281L-2.13271 48.5019L-2.03957 47.707L-1.85571 46.059L-1.70532 44.6366L-1.49721 42.5867L-1.32547 40.8181L-1.10765 38.5024L-0.854431 35.7266L-0.328568 29.8752L-0.0753326 27.1277L0.109009 25.17L0.289963 23.2984L0.467514 21.5123L0.642151 19.8099L0.8134 18.1894L0.9832 16.6497L1.15152 15.1885L1.26311 14.2583L1.37466 13.3622L1.48528 12.4992L1.59686 11.6697C1.61481 11.534 1.63324 11.4002 1.65167 11.2673L1.76326 10.4866L1.87434 9.73803L1.98592 9.02114L2.09846 8.33547C2.13582 8.11179 2.17366 7.8938 2.2115 7.68053L2.32501 7.05632C3.25838 2.07736 4.28682 0.0903202 5.74895 0.0122949L5.83919 0.00993049C5.85956 0.00993049 5.88042 0.00993049 5.91098 0V0.000472881Z" fill="white" fill-opacity="0.1"/>
</svg>
