<svg width="234" height="146" viewBox="0 0 234 146" fill="none" xmlns="http://www.w3.org/2000/svg">
<path d="M184.411 0.000472881L184.537 0.00520169L184.621 0.0122949L184.704 0.0231712L184.789 0.0373576L184.873 0.055327L184.958 0.0775524L185 0.0903202L185.085 0.119639L185.169 0.153686L185.254 0.192935L185.296 0.214688L185.38 0.261976L185.422 0.288457L185.506 0.345203C185.534 0.365064 185.561 0.386343 185.589 0.408569L185.672 0.478082L185.714 0.515913L185.796 0.596303L185.879 0.683313L185.96 0.778834L186.001 0.829433L186.082 0.936777L186.163 1.05263L186.242 1.177L186.282 1.24226L186.361 1.38034C186.374 1.40398 186.387 1.4281 186.399 1.45269L186.477 1.60448L186.555 1.76668L186.593 1.85133L186.668 2.02819L186.742 2.21592L186.816 2.41453L186.889 2.62354L186.961 2.84438L187.031 3.07703L187.1 3.32104L187.169 3.57781L187.203 3.71069L187.269 3.98638L187.334 4.27484L187.398 4.57654L187.46 4.89148L187.491 5.05415L187.552 5.38989L187.611 5.7403L187.668 6.10489L187.724 6.48461L187.778 6.87899L187.831 7.28898L187.856 7.49989L187.906 7.93304L187.955 8.38275L188.001 8.84854L188.045 9.33088L188.088 9.82268L188.129 10.3277L188.168 10.8455L188.205 11.3766L188.24 11.9213L188.288 12.7649L188.332 13.6402L188.371 14.5491L188.407 15.492L188.428 16.1399L188.455 17.1424L188.478 18.1804L188.497 19.2562L188.515 20.7505L188.525 22.3157L188.527 23.1248L188.526 24.4039L188.519 25.9626L188.506 27.5836L188.483 29.5829L188.454 31.5705L188.423 33.5367L188.295 40.8356L188.27 42.6779L188.26 43.5646L188.252 44.8466L188.251 45.2603V46.5792L188.255 47.2247L188.262 47.8286L188.277 48.571L188.301 49.4023L188.319 49.8515L188.338 50.2667L188.368 50.767L188.408 51.3137L188.443 51.6915L188.479 52.0202L188.507 52.2358L188.517 52.3025C188.558 52.2212 188.6 52.1351 188.643 52.0448L188.774 51.7592L188.909 51.448L188.978 51.2834L189.119 50.9368C189.143 50.8772 189.167 50.8167 189.191 50.7552L189.336 50.3769L189.411 50.1807L189.636 49.5659L189.789 49.1356L189.944 48.692L190.179 48.004L190.496 47.0549L190.814 46.0808L191.287 44.604L191.823 42.912L192.347 41.2333C192.436 40.951 192.525 40.6687 192.614 40.3859L193.16 38.6949L193.439 37.8366L193.726 36.9703L193.87 36.5352L194.164 35.6651C194.905 33.4922 195.69 31.3558 196.471 29.6094C196.55 29.4307 196.632 29.2514 196.714 29.0741L196.902 28.6788L197.091 28.2948L197.221 28.0432L197.352 27.7964L197.486 27.5543L197.623 27.3183C197.691 27.202 197.761 27.0885 197.831 26.9774L197.974 26.7594C198.835 25.476 199.83 24.647 200.996 24.969C202.442 25.3379 203.138 26.6724 203.447 28.5175L203.493 28.8126C203.5 28.8627 203.507 28.9129 203.513 28.9639L203.55 29.2713L203.566 29.4274L203.594 29.7461L203.618 30.0714L203.636 30.4034L203.65 30.7415L203.659 31.0853L203.665 31.4343L203.667 31.9667L203.662 32.5091L203.651 33.0596L203.639 33.5235L203.617 34.1798L203.55 36.0255L203.535 36.5948L203.525 37.1835L203.522 37.6314L203.524 38.0773L203.528 38.3714L203.535 38.6608L203.545 38.9446L203.559 39.2198L203.576 39.4865L203.598 39.7418L203.61 39.8648L203.638 40.1012C203.728 40.7878 203.881 41.274 204.128 41.3652C204.718 41.5638 205.375 41.204 206.192 40.5107L206.4 40.331L206.507 40.2355L206.725 40.036L206.95 39.8246L207.184 39.6023L207.425 39.3692L207.65 39.1498L208.021 38.7942C208.703 38.143 209.408 37.5065 210.179 37.0842C211.346 36.4454 212.483 36.356 213.558 36.8048C215.244 37.5198 215.516 39.5049 215.35 41.6267L215.323 41.9237L215.309 42.0722L215.275 42.3706L215.238 42.6685L215.197 42.9664L215.13 43.4104L215.082 43.7036L214.958 44.4219L214.858 44.9776L214.724 45.7361L214.565 46.6341L214.491 47.0729L214.442 47.376L214.371 47.8399L214.327 48.1515L214.287 48.4608L214.252 48.7658L214.222 49.0633C214.217 49.112 214.214 49.1602 214.21 49.2084L214.19 49.4893C214.155 50.1282 214.185 50.6479 214.336 50.8857C214.541 50.7845 214.804 50.5812 215.113 50.2975L215.285 50.1348L215.375 50.0473L215.559 49.8624L215.752 49.6629L215.952 49.4501L216.264 49.1087L216.48 48.8661L216.701 48.6135L217.041 48.2163L217.274 47.9411L217.63 47.5132L218.238 46.7688L218.608 46.3078L218.982 45.8387L219.249 45.501L219.848 44.7369L220.44 43.9751L221.574 42.503C222.26 41.6149 222.956 40.7065 223.662 39.8085L224.098 39.2448L224.734 38.4291L225.348 37.6498L225.746 37.1495L226.135 36.6648L226.515 36.1957L227.068 35.5204L227.426 35.0896L227.947 34.4711L228.284 34.0772L228.613 33.6979L228.934 33.3334L229.247 32.9834L229.553 32.6472L229.851 32.3256L230.142 32.0178L230.425 31.7237L230.564 31.5818L230.837 31.309L231.103 31.0489L231.234 30.9245L231.489 30.6852C231.532 30.646 231.573 30.6081 231.616 30.5703L231.862 30.3504C231.943 30.2795 232.023 30.2109 232.102 30.1438L232.336 29.9504C232.413 29.8879 232.489 29.8274 232.564 29.7697L232.786 29.6014L233.003 29.4458L233.11 29.3725L233.318 29.2354C234.622 28.4069 235.608 28.3142 236.449 28.8112C237.494 29.4127 237.738 30.6876 237.012 33.1073L236.91 33.4364L236.796 33.7798L236.734 33.9566L236.603 34.3207C236.556 34.4451 236.509 34.5714 236.459 34.7L236.304 35.0934L236.136 35.502L235.957 35.9257C235.926 35.9983 235.894 36.0708 235.863 36.1432L235.665 36.5906L235.455 37.053L235.233 37.5321L234.998 38.0272L234.751 38.5388L234.491 39.067L234.219 39.6127L233.933 40.1755L233.635 40.7557L233.324 41.3539L232.832 42.2855L232.488 42.9286L232.131 43.5911L231.57 44.6205L231.178 45.3303L230.774 46.06L229.924 47.5789L228.802 49.5735L226.307 53.9807L225.533 55.3563L224.789 56.6937L224.304 57.5761L223.953 58.2239L223.614 58.8561L223.29 59.4704L223.083 59.8676L222.788 60.4441L222.514 60.9936L222.345 61.3435L222.185 61.6792L222.037 61.9994L221.902 62.3039L221.839 62.45L221.722 62.729L221.67 62.8614L221.574 63.1121L221.532 63.2303L221.63 63.1579L221.834 63L222.052 62.825L222.281 62.633L222.524 62.425L222.778 62.2018L222.909 62.0845L223.178 61.8395L223.458 61.5814L223.896 61.1699L224.353 60.7321L224.828 60.2701L225.486 59.6203L226.168 58.9375L226.692 58.4069L227.765 57.3084L228.493 56.5565L229.475 55.536L230.843 54.1046L234.916 49.8336L236.695 47.978L237.806 46.8279L238.179 46.4426L238.932 45.6708L239.688 44.9005L240.445 44.1354L240.823 43.7556L241.577 43.0047L241.952 42.634L242.698 41.9043C243.934 40.7027 245.134 39.5782 246.246 38.6008L246.601 38.2915L246.946 37.9955L247.282 37.7118L247.608 37.4417L247.926 37.184L248.235 36.9395L248.534 36.7078L248.825 36.4879L249.108 36.2813L249.246 36.1825L249.516 35.9947L249.778 35.8188L250.032 35.6557C250.073 35.6292 250.114 35.6037 250.155 35.5786L250.397 35.4334L250.632 35.301C252.131 34.4763 253.154 34.4177 253.883 35.0381C253.947 35.0915 254.184 35.2358 254.442 35.4561C254.698 35.68 254.946 35.9137 255.184 36.1565C256.114 36.9353 256.196 38.2934 254.305 41.6788L254.087 42.0632C254.011 42.1942 253.933 42.328 253.852 42.4652L253.6 42.8841L253.468 43.1007L253.19 43.5471L252.894 44.0119L252.58 44.4962L252.248 45.0003L252.075 45.2594L251.714 45.7938L251.335 46.348L250.935 46.9239L250.728 47.22L250.298 47.8281L249.848 48.4584L249.377 49.111L248.884 49.7872L248.37 50.4871L247.558 51.5818L246.989 52.3422L246.092 53.5301L245.143 54.7761L244.137 56.086L240.534 60.7675L239.399 62.2486L238.728 63.1291L237.789 64.3704L237.027 65.388L236.292 66.382L235.591 67.3434L235.19 67.9014L234.682 68.6188L234.209 69.3026L233.88 69.7906L233.672 70.1031L233.476 70.4048L233.202 70.8361L233.117 70.9732L232.956 71.2395C232.931 71.2819 232.906 71.3245 232.88 71.3671L232.739 71.6135L232.673 71.7317L232.552 71.9564C232.533 71.992 232.515 72.0278 232.497 72.0637L232.398 72.2666C232.383 72.2992 232.368 72.3309 232.354 72.3621L232.526 72.2737L232.721 72.1677L232.94 72.0424L233.184 71.8958L233.456 71.727L233.755 71.5336L234.201 71.2357L234.445 71.0683L234.838 70.7931L235.264 70.4871L235.725 70.149L236.224 69.7773L236.766 69.3697L237.323 68.9427L237.895 68.4982L238.483 68.0367L239.39 67.3155L240.01 66.8166L240.961 66.0449L241.936 65.2476L243.607 63.8729L244.977 62.7418L246.76 61.2664L248.153 60.1206L249.148 59.3087L250.1 58.5369L251.011 57.8049L251.882 57.1117L252.714 56.4567L253.248 56.0406L253.764 55.642L254.509 55.0745L255.218 54.5425L255.892 54.0465L256.323 53.7353L256.739 53.4398L257.141 53.1593L257.529 52.8936L257.717 52.7664L258.084 52.5233L258.439 52.2944L258.779 52.0802L259.108 51.8802C259.496 51.6455 259.894 51.425 260.299 51.2191L260.568 51.0877L260.699 51.0262L260.951 50.9146C262.478 50.2644 263.408 50.3485 264.06 50.9761C264.658 51.5563 264.788 52.3871 264.454 53.5622L264.388 53.7798C264.364 53.8535 264.339 53.9287 264.312 54.0049L264.225 54.238L264.178 54.3576L264.077 54.6026C264.023 54.7269 263.966 54.8546 263.905 54.9856L263.778 55.2514L263.71 55.3871L263.568 55.6661L263.415 55.9527L263.252 56.2487C263.224 56.2988 263.196 56.3494 263.167 56.4L262.988 56.7093L262.8 57.028L262.601 57.3557L262.393 57.6929L262.174 58.039L261.945 58.3956L261.706 58.7611L261.329 59.3285L261.065 59.7192L260.79 60.1202L260.359 60.741L259.906 61.3856L259.59 61.8282L259.099 62.5129L258.409 63.4644L257.678 64.4607L256.504 66.0449L254.869 68.2324L254.106 69.2586L253.34 70.2999L252.725 71.1454L252.14 71.9616L251.682 72.6089L251.349 73.0884L250.919 73.7155L250.61 74.1746L250.316 74.6225L250.128 74.9133L249.86 75.337L249.692 75.6103L249.532 75.8751L249.382 76.1319L249.241 76.3797L249.175 76.4998L249.05 76.7325L248.936 76.9547L248.834 77.1661C248.818 77.2001 248.802 77.2337 248.787 77.2673L248.703 77.4607C248.548 77.8352 248.47 78.135 248.488 78.3402C248.748 78.4916 249.316 78.3336 250.05 77.9936L250.287 77.8801L250.533 77.7558L250.789 77.6205L251.052 77.4768L251.322 77.324L251.598 77.1632L251.879 76.9963L252.307 76.7353L252.74 76.4643L253.319 76.0922L254.034 75.6207L254.59 75.2471L255.5 74.6244L257.587 73.1769L258.376 72.6378L259.155 72.1152L259.616 71.8121L260.073 71.518L260.524 71.2338L260.97 70.9609L261.264 70.786L261.41 70.7004L261.7 70.5339L261.987 70.3741L262.271 70.2209L262.551 70.0743L262.69 70.0038L262.966 69.8686L263.237 69.7409C263.372 69.6794 263.506 69.6208 263.638 69.565L263.9 69.4586C265.724 68.7427 267.254 68.6836 268.298 69.7873C268.99 70.5136 268.945 71.5407 268.164 73.062L268.041 73.2941L267.975 73.4128L267.836 73.6564C267.788 73.7386 267.738 73.8223 267.686 73.9075L267.524 74.1666L267.352 74.4338L267.168 74.7095L267.073 74.8499L266.872 75.1384L266.661 75.4349L266.439 75.7403L266.206 76.0543L265.962 76.3778L265.707 76.7102L265.44 77.0521L265.02 77.5827L264.575 78.135L264.264 78.5152L263.778 79.1049L263.267 79.7178L262.547 80.5718L261.782 81.4688L260.553 82.8979L258.529 85.2358L257.926 85.9357L257.313 86.6521L256.764 87.298L256.078 88.1114L255.537 88.7621L255.137 89.2477L254.744 89.7291L254.112 90.5179L253.749 90.9799L253.4 91.4324L253.067 91.8722L252.854 92.1588L252.651 92.4382L252.456 92.7111L252.27 92.9759L252.095 93.2331L252.011 93.3589L251.851 93.6029L251.703 93.8384L251.567 94.0635L251.504 94.1723L251.386 94.3822L251.283 94.5813C251.072 95.0003 250.958 95.3384 250.966 95.5744C251.228 95.6557 251.679 95.564 252.252 95.3521L252.473 95.2675L252.587 95.2211L252.823 95.1209L253.069 95.0107L253.324 94.892L253.585 94.7643L253.855 94.6296L254.27 94.4135L254.697 94.1841L254.987 94.0243L255.427 93.7765L255.723 93.6067L256.02 93.4341L256.318 93.2592L256.882 92.921L257.518 92.5333L257.933 92.276L258.728 91.7762L259.287 91.4201L261.603 89.9211L262.996 89.0288L263.934 88.4372L264.651 87.9927L265.17 87.6768L265.673 87.3765L265.999 87.185L266.317 87.0006L266.629 86.8242L266.934 86.6549L267.232 86.4937L267.523 86.34L267.807 86.1938L268.084 86.0567L268.22 85.9905L268.487 85.8652L268.618 85.8056L268.875 85.6926L269.001 85.6396L269.248 85.5399L269.488 85.4491L269.722 85.3668L269.949 85.294C271.293 84.8835 272.288 84.97 272.977 85.6846C274.171 86.8809 273.849 88.5918 272.972 90.5297L272.843 90.8087L272.707 91.0896L272.565 91.3733L272.417 91.6603L272.264 91.9488L272.107 92.2401L271.946 92.5333L271.526 93.2814L270.849 94.4811L270.564 94.9965L270.352 95.39L270.144 95.7848L270.01 96.0473L269.88 96.3092L269.694 96.697C269.655 96.7826 269.616 96.8672 269.579 96.9524L269.471 97.2025L269.371 97.4479L269.279 97.6877C268.935 98.633 268.831 99.4165 269.219 99.7953C269.406 99.9731 269.842 99.9045 270.439 99.6681L270.644 99.583L270.86 99.4865L270.972 99.4336L271.204 99.3201C271.243 99.3007 271.283 99.2803 271.323 99.2595L271.569 99.1309L271.823 98.9933L272.084 98.8467L272.353 98.6921L272.767 98.4467L273.192 98.1866L273.627 97.9142L273.921 97.7269L274.513 97.3411L275.109 96.9453L275.85 96.4426L276.575 95.9418L277.136 95.5493L278.543 94.5473L280.476 93.1561L281.592 92.3612L282.299 91.8642L282.979 91.3951L283.47 91.0617L283.945 90.7453L284.253 90.5439L284.703 90.2564L285.137 89.9868L285.419 89.8166L285.694 89.6553L286.094 89.4288L286.352 89.2888L286.604 89.1569L286.85 89.0344L287.089 88.9209C287.326 88.8122 287.553 88.7167 287.771 88.6353L287.985 88.5597C289.15 88.1662 290.041 88.2126 290.698 88.798C291.576 89.5839 291.54 90.8404 290.731 92.6472L290.6 92.9296C290.532 93.0733 290.46 93.2199 290.382 93.3698L290.221 93.6743C290.165 93.7792 290.107 93.8835 290.049 93.9874L289.864 94.3099L289.669 94.6409L289.462 94.9814L289.243 95.3313L289.013 95.6907C288.974 95.7512 288.934 95.8122 288.894 95.8732L288.647 96.2468L288.257 96.8237L287.842 97.4219L287.552 97.8333L287.098 98.4679L286.782 98.903L286.289 99.5745L285.773 100.268L285.05 101.229L284.289 102.23L283.285 103.539L281.556 105.773L279.823 108.003L278.882 109.226L278.032 110.344L277.504 111.047L276.966 111.768L276.424 112.503L276.064 112.996L275.549 113.71L274.978 114.515L274.532 115.154L274.1 115.785L273.786 116.251L273.483 116.71L273.192 117.159L273.006 117.453L272.825 117.742L272.567 118.164L272.404 118.439L272.249 118.706L272.101 118.967L271.962 119.221L271.831 119.467L271.71 119.704L271.598 119.932L271.546 120.044L271.449 120.259C271.434 120.293 271.419 120.328 271.405 120.363L271.324 120.563C271.059 121.248 270.999 121.743 271.215 121.97L271.247 121.999L271.276 122.006C271.294 122.009 271.312 122.01 271.33 122.011H271.371L271.441 122.006L271.551 121.989L271.66 121.964L271.755 121.937L271.9 121.89L272.022 121.843L272.157 121.787L272.306 121.72L272.467 121.641L272.643 121.55L272.834 121.445L272.97 121.366L273.112 121.282L273.261 121.19L273.499 121.039L273.666 120.928L273.932 120.748L274.118 120.617L274.412 120.405L274.725 120.173L274.944 120.006L275.172 119.83L275.407 119.644L275.778 119.346L276.036 119.134L276.579 118.677L277.011 118.305L277.311 118.042L277.779 117.624L278.27 117.18C280.233 115.383 282.407 113.203 284.585 110.926L285.457 110.01L285.891 109.55L286.758 108.626L287.618 107.703L288.469 106.783L289.307 105.871L290.534 104.526L292.1 102.799L293.483 101.267L294.857 99.7381L296.888 97.4683L299.641 94.3818L301.291 92.5394L302.795 90.8673L303.9 89.6482L304.92 88.5299L305.861 87.5085L306.516 86.8048L307.132 86.1522L307.519 85.7446L307.89 85.3583L308.415 84.8192L308.905 84.3255L309.361 83.8767L309.647 83.6015L309.92 83.3447L310.179 83.1064L310.425 82.8856L310.659 82.6822C310.811 82.5522 310.955 82.4335 311.092 82.3252L311.292 82.1706C311.357 82.1219 311.42 82.0755 311.482 82.0315L311.662 81.9077C312.684 81.2267 313.23 81.2882 313.743 81.6826L313.812 81.7417L313.876 81.8027L313.936 81.866L313.964 81.8991L314.017 81.9663C314.034 81.9895 314.05 82.0131 314.065 82.0372L314.107 82.1105C314.114 82.1233 314.121 82.1361 314.127 82.1488L314.162 82.2278C314.179 82.2685 314.193 82.3101 314.206 82.3536L314.228 82.443C314.235 82.4732 314.24 82.5044 314.245 82.5361L314.256 82.6345L314.263 82.7376C314.264 82.7905 314.264 82.8454 314.261 82.9021L314.253 83.0189L314.239 83.1409L314.22 83.2696L314.193 83.4043L314.162 83.5452L314.143 83.6185L314.103 83.7699L314.08 83.8479L314.029 84.0101L313.942 84.2673L313.875 84.4489L313.802 84.6381L313.722 84.8357L313.635 85.0419L313.542 85.2571L313.441 85.4812L313.278 85.8349L313.16 86.0832L312.969 86.4733L312.689 87.0304L312.46 87.4758L312.127 88.1095L311.763 88.789L311.264 89.7069L310.713 90.7047L310.072 91.8396L309.161 93.436L308.194 95.1166L303.664 102.961L302.654 104.719C302.485 105.014 302.316 105.309 302.148 105.605L301.018 107.591L300.22 109.007L299.646 110.034L298.914 111.355L298.389 112.312L297.721 113.542L297.242 114.432L296.635 115.576L296.202 116.404L295.923 116.941L295.52 117.726L295.011 118.735L294.534 119.701L294.195 120.399L293.873 121.075L293.668 121.513L293.47 121.942L293.279 122.362L293 122.984L292.825 123.384L292.66 123.768L292.431 124.317L292.29 124.665L292.157 124.998L291.976 125.473L291.865 125.772L291.714 126.195L291.623 126.462L291.5 126.837L291.392 127.186L291.299 127.508L291.219 127.805L291.152 128.077L291.096 128.325L291.051 128.551L291.016 128.755L290.989 128.938L290.976 129.05L290.958 129.246L290.95 129.412L290.95 129.512C290.95 129.561 290.952 129.604 290.954 129.642L290.964 129.739L290.986 129.862L291.014 129.879L291.046 129.892L291.082 129.902L291.123 129.909L291.145 129.911L291.192 129.913C291.2 129.913 291.209 129.913 291.217 129.912L291.272 129.907L291.331 129.898L291.396 129.883L291.466 129.862L291.541 129.836L291.582 129.82L291.666 129.784L291.757 129.74L291.854 129.688L291.958 129.629L292.069 129.561L292.187 129.484L292.312 129.398L292.444 129.302L292.658 129.139L292.81 129.017L293.054 128.813L293.318 128.581L293.505 128.411L293.701 128.229L293.906 128.032L294.121 127.822L294.345 127.598L294.701 127.234L295.08 126.835L295.347 126.549L295.623 126.247L296.06 125.763L296.522 125.239L297.01 124.674L297.526 124.066L298.07 123.415L298.642 122.72L299.244 121.977L299.876 121.186L300.314 120.631L300.766 120.054L301.232 119.455C301.662 118.903 302.088 118.351 302.512 117.801L304.129 115.711L305.194 114.346L305.905 113.447L306.445 112.773L306.833 112.294L307.331 111.692L307.689 111.266L307.921 110.996L308.148 110.735L308.37 110.485L308.586 110.245L308.797 110.014L309.004 109.794L309.205 109.585L309.403 109.385L309.595 109.196L309.69 109.105L309.876 108.931L310.059 108.768L310.148 108.69L310.324 108.541L310.411 108.471L310.581 108.338C311.621 107.549 312.453 107.345 313.21 107.729C314.32 108.285 314.655 109.501 314.612 111.105L314.601 111.392L314.581 111.687L314.556 111.989L314.524 112.298L314.486 112.615L314.442 112.937L314.394 113.265L314.341 113.6L314.284 113.939L314.16 114.633L314.061 115.165L313.886 116.072L313.556 117.758L313.438 118.398L313.365 118.818L313.317 119.11L313.247 119.56L313.204 119.866L313.162 120.176L313.125 120.487L313.108 120.643L313.077 120.952L313.05 121.26C312.934 122.788 313.031 124.155 313.702 124.435C314.6 124.833 315.499 124.422 316.539 123.614L316.756 123.442L316.977 123.258L317.203 123.065L317.434 122.863L317.787 122.548L317.981 122.379L318.487 121.929L318.692 121.75L318.901 121.572L319.112 121.397L319.219 121.311L319.434 121.143C320.698 120.175 322.112 119.49 323.786 120.054C325.063 120.52 325.616 121.693 325.873 122.541L325.925 122.723L325.988 122.972L326.059 123.297C326.217 124.086 326.303 124.966 326.363 125.902L326.4 126.534L326.448 127.508L326.492 128.473L326.513 128.868L326.539 129.279L326.58 129.842L326.605 130.127L326.635 130.413L326.667 130.699L326.684 130.84L326.723 131.122L326.744 131.261L326.789 131.536L326.84 131.805L326.896 132.066C327.142 133.137 327.538 133.977 328.198 134.144L328.238 134.136L328.281 134.124L328.325 134.106L328.372 134.083L328.422 134.055L328.475 134.02L328.53 133.978L328.588 133.93L328.648 133.875L328.711 133.812L328.812 133.704L328.882 133.62L328.994 133.479L329.071 133.373L329.152 133.257L329.237 133.132L329.324 132.995L329.414 132.848L329.508 132.69L329.655 132.431L329.757 132.242L329.863 132.042L329.973 131.829L330.142 131.484L330.261 131.236L330.383 130.975L330.508 130.699L330.637 130.408L330.839 129.943L330.977 129.613L331.193 129.088L331.417 128.526L331.651 127.924L331.895 127.282L332.062 126.831L332.409 125.872L332.681 125.102L332.963 124.287L333.255 123.426L333.558 122.517L333.765 121.883L334.085 120.892C334.254 120.373 334.42 119.854 334.584 119.339L335.622 116.065L336.207 114.255L336.549 113.221L336.746 112.636L336.938 112.077L337.125 111.545L337.367 110.875L337.485 110.557L337.602 110.251L337.773 109.812L337.942 109.399L338.053 109.137L338.162 108.886L338.271 108.646L338.379 108.417L338.485 108.198L338.592 107.991L338.697 107.795L338.802 107.608L338.907 107.433C338.941 107.376 338.976 107.321 339.011 107.267L339.116 107.113L339.22 106.969L339.324 106.835C339.864 106.17 340.411 105.915 341.037 106.033L341.088 106.038L341.188 106.054L341.236 106.063L341.332 106.087L341.424 106.117L341.513 106.152L341.599 106.193C341.628 106.208 341.656 106.224 341.683 106.241L341.763 106.295C341.829 106.343 341.892 106.398 341.953 106.46L342.023 106.538L342.091 106.623C342.125 106.668 342.157 106.715 342.188 106.765L342.25 106.869L342.28 106.924L342.338 107.041C342.347 107.061 342.356 107.081 342.365 107.102L342.42 107.231L342.446 107.299L342.496 107.44L342.545 107.59L342.591 107.75L342.635 107.918L342.676 108.096L342.715 108.283L342.753 108.48L342.788 108.687L342.805 108.794L342.853 109.131L342.882 109.369L342.923 109.745L342.959 110.146L342.992 110.573L343.03 111.181L343.046 111.503L343.068 112.009L343.087 112.542L343.102 113.104L343.121 114.105L343.131 114.965L343.136 115.881L343.137 116.359L343.135 117.633L343.124 119.498L343.105 121.541C343.096 122.115 343.09 122.698 343.084 123.286L343.07 125.059L343.055 127.187L343.051 128.366L343.054 129.49L343.059 130.209L343.065 130.904L343.079 131.903L343.092 132.542L343.114 133.456L343.141 134.323L343.172 135.141L343.206 135.913L343.245 136.641L343.287 137.325L343.332 137.966L343.364 138.371L343.397 138.758L343.449 139.306L343.485 139.65L343.521 139.977L343.579 140.439L343.638 140.865L343.699 141.257L343.74 141.502L343.803 141.841L343.846 142.051L343.89 142.248L343.933 142.432L343.998 142.685L344.064 142.912L344.108 143.05L344.153 143.177L344.197 143.293L344.263 143.45L344.328 143.585L344.371 143.665L344.414 143.736L344.456 143.799L344.497 143.855L344.538 143.903L344.578 143.944L344.606 143.921L344.661 143.867L344.718 143.805C344.737 143.783 344.757 143.759 344.776 143.734L344.835 143.653L344.895 143.562L344.957 143.461L344.988 143.406L345.051 143.288L345.116 143.16L345.183 143.02L345.25 142.868L345.319 142.704L345.424 142.434L345.496 142.238L345.569 142.028L345.681 141.688L345.757 141.442L345.835 141.182L345.914 140.908L345.993 140.617L346.115 140.152L346.199 139.821L346.283 139.474L346.412 138.921L346.543 138.328L346.632 137.91L346.723 137.474L346.815 137.019L347.002 136.051L347.145 135.273L347.242 134.728L347.341 134.163L347.542 132.969L347.695 132.016L347.799 131.353L347.958 130.316L348.118 129.226L348.282 128.082L348.505 126.471L348.675 125.198L348.848 123.866C348.942 123.167 349.033 122.469 349.122 121.773L349.71 117.121L350.033 114.623L350.249 113.006L350.494 111.243L350.651 110.17L350.766 109.418L350.915 108.483L350.989 108.043L351.098 107.418L351.207 106.833L351.243 106.647L351.315 106.288L351.387 105.946L351.459 105.619L351.495 105.463L351.567 105.161L351.64 104.875L351.676 104.738L351.749 104.475L351.823 104.228L351.897 103.994L351.935 103.883L352.01 103.672C352.036 103.603 352.061 103.537 352.087 103.474L352.165 103.289C352.595 102.312 353.081 101.934 353.704 101.912L353.834 101.911C354.04 101.919 354.23 101.986 354.387 102.096C354.52 102.001 354.679 101.938 354.852 101.918L354.94 101.911H355.011C355.561 101.911 356.004 102.175 356.396 102.863L356.474 103.007C356.499 103.056 356.524 103.108 356.55 103.162L356.625 103.329L356.699 103.507L356.772 103.699L356.809 103.8L356.881 104.01L356.916 104.12L356.987 104.351L357.057 104.595L357.092 104.722L357.162 104.987L357.231 105.267L357.3 105.56L357.369 105.869L357.437 106.193L357.575 106.887L357.68 107.45L357.749 107.845L357.855 108.469L357.998 109.363L358.071 109.836L358.144 110.326L358.257 111.097L358.411 112.19L358.654 113.975L358.866 115.6L359 116.637V131.965L358.888 131.242L358.775 130.495L358.604 129.33L358.489 128.522L358.314 127.266L358.137 125.954L357.958 124.585C357.939 124.429 357.918 124.273 357.898 124.115C357.804 123.418 357.713 122.72 357.624 122.023L356.897 116.284L356.751 115.163L356.514 113.375L356.3 111.826L356.113 110.538L355.956 109.509L355.83 108.723L355.703 107.975L355.608 107.442L355.513 106.935L355.418 106.456L355.323 106.008L355.26 105.727L355.197 105.461L355.135 105.21L355.072 104.977L355.01 104.759C354.991 104.693 354.97 104.626 354.948 104.56L354.886 104.378L354.825 104.216C354.776 104.088 354.715 103.964 354.642 103.847C354.55 103.816 354.463 103.773 354.384 103.718C354.307 103.772 354.222 103.816 354.13 103.847C354.08 103.924 354.029 104.022 353.977 104.142L353.915 104.294C353.884 104.375 353.853 104.464 353.822 104.559L353.76 104.758L353.697 104.974L353.635 105.207L353.572 105.457L353.508 105.722L353.445 106.003L353.382 106.297L353.288 106.765L353.193 107.262L353.098 107.785L353.003 108.333L352.877 109.099L352.752 109.9L352.564 111.158L352.349 112.689L352.197 113.812L352.078 114.706L351.921 115.916L351.633 118.179L351.54 118.916L350.804 124.657L350.663 125.734L350.456 127.284L350.318 128.274L350.183 129.229L350.048 130.152L349.914 131.041L349.782 131.898L349.651 132.724L349.52 133.518L349.39 134.281L349.262 135.014L349.134 135.718L349.007 136.392L348.88 137.038L348.754 137.657L348.629 138.247L348.504 138.811L348.379 139.348L348.317 139.608L348.193 140.107L348.069 140.581L347.946 141.031L347.885 141.247L347.761 141.662C346.695 145.154 345.639 146.058 344.425 145.99C343.191 145.871 342.343 144.736 341.8 142.11L341.73 141.759L341.665 141.391L341.602 141.005L341.544 140.602L341.515 140.394L341.461 139.964L341.41 139.516C341.402 139.439 341.394 139.362 341.386 139.285L341.34 138.809L341.318 138.564L341.277 138.06L341.238 137.536L341.203 136.994L341.171 136.431L341.142 135.85L341.115 135.248L341.092 134.625L341.071 133.982L341.045 132.978L341.032 132.283L341.021 131.566L341.012 130.828L341.005 129.679L341.003 128.481L341.007 127.232L341.029 124.15C341.036 123.262 341.044 122.379 341.057 121.511L341.079 119.129L341.088 117.764L341.091 116.797L341.089 115.621L341.082 114.71L341.071 113.825L341.058 113.182L341.042 112.561L341.014 111.771L340.988 111.21L340.968 110.854L340.946 110.512L340.922 110.186L340.895 109.876L340.88 109.727L340.849 109.443L340.816 109.178L340.799 109.053L340.762 108.816C340.736 108.666 340.708 108.529 340.678 108.407C340.604 108.525 340.527 108.661 340.447 108.814L340.325 109.055L340.199 109.319L340.135 109.46L340.004 109.757L339.938 109.913L339.803 110.239L339.665 110.583L339.525 110.943L339.312 111.51L339.095 112.107L338.875 112.728L338.655 113.367L338.507 113.802L338.14 114.906L337.922 115.574L337.468 116.988L336.54 119.918L336.292 120.693L335.61 122.807L335.295 123.76L334.99 124.673L334.691 125.546L334.399 126.38L334.208 126.914L333.928 127.684L333.653 128.415L333.474 128.883L333.296 129.333L333.122 129.768L332.949 130.186L332.779 130.589L332.611 130.976C332.583 131.038 332.556 131.101 332.528 131.163L332.363 131.527L332.28 131.703L332.118 132.043C332.065 132.152 332.012 132.261 331.957 132.369L331.799 132.68L331.641 132.976L331.563 133.119L331.408 133.393L331.253 133.653L331.1 133.899L331.024 134.017L330.873 134.242L330.722 134.454C329.722 135.818 328.778 136.282 327.758 136.071C325.992 135.629 325.202 133.981 324.821 132.075L324.765 131.78L324.716 131.482C324.708 131.432 324.701 131.382 324.693 131.332L324.652 131.03L324.616 130.726L324.584 130.422L324.555 130.118L324.52 129.664L324.49 129.215L324.452 128.484L324.431 128.057L324.41 127.578L324.352 126.434L324.318 125.882C324.263 125.067 324.187 124.313 324.052 123.666C323.871 122.774 323.62 122.341 323.414 122.125L323.354 122.067L323.297 122.02C323.289 122.014 323.28 122.007 323.27 122.001L323.22 121.969L323.175 121.945L323.136 121.927L323.09 121.91C322.336 121.66 321.602 121.993 320.693 122.698L320.471 122.874L320.242 123.063L320.005 123.266L319.759 123.481L319.373 123.826L319.179 123.996L318.824 124.312L318.546 124.555L318.355 124.718L318.16 124.882L317.96 125.043L317.757 125.202C316.385 126.25 314.737 127.061 312.883 126.241C311.265 125.561 310.862 123.757 310.992 121.441L311.013 121.123L311.04 120.798L311.073 120.467L311.112 120.131L311.155 119.791L311.204 119.445L311.255 119.095L311.312 118.741L311.403 118.204L311.467 117.842L311.534 117.477L311.604 117.11L312.056 114.775L312.164 114.193L312.243 113.741L312.319 113.281L312.39 112.821L312.434 112.517L312.473 112.216L312.508 111.923L312.537 111.637L312.561 111.36L312.578 111.095L312.588 110.843C312.604 110.233 312.546 109.764 312.371 109.565C312.177 109.634 311.926 109.802 311.632 110.051L311.467 110.194L311.383 110.272L311.206 110.437L311.021 110.618L310.83 110.812L310.632 111.017L310.428 111.235L310.217 111.465L310.002 111.704L309.669 112.082L309.442 112.345L309.211 112.616L308.739 113.179L308.256 113.767L307.767 114.372L307.397 114.833L306.861 115.511L306.328 116.19L305.7 116.998L304.795 118.168L302.301 121.374L301.562 122.315L300.846 123.216L300.497 123.651L299.814 124.49L299.48 124.894L298.99 125.481L298.67 125.858L298.2 126.404L297.892 126.755L297.591 127.095L297.294 127.423L297.002 127.741L296.715 128.048L296.433 128.343L296.156 128.626L295.884 128.899L295.616 129.16L295.484 129.287L295.223 129.531L294.967 129.762L294.841 129.874L294.592 130.089C292.658 131.721 291.138 132.262 289.92 131.54L289.85 131.497L289.747 131.427L289.647 131.35L289.583 131.295L289.521 131.236L289.461 131.174L289.402 131.108L289.347 131.037L289.294 130.961L289.244 130.882L289.197 130.797L289.153 130.707C289.139 130.676 289.125 130.644 289.112 130.612L289.075 130.511L289.041 130.404L289.012 130.292L288.985 130.174L288.963 130.048C288.96 130.026 288.957 130.005 288.954 129.983L288.94 129.847C288.937 129.824 288.935 129.801 288.933 129.777L288.925 129.631L288.922 129.478C288.922 129.426 288.922 129.372 288.924 129.317L288.931 129.148L288.943 128.972L288.961 128.787L288.985 128.594L289.014 128.392L289.05 128.181L289.092 127.961L289.141 127.731L289.196 127.492L289.257 127.244L289.326 126.985L289.402 126.716L289.485 126.437L289.576 126.147L289.675 125.845L289.727 125.691L289.837 125.373L289.955 125.043L290.017 124.875L290.216 124.35L290.36 123.985L290.513 123.607L290.674 123.218L290.845 122.815L291.118 122.186L291.406 121.541L291.6 121.115L291.903 120.458L292.223 119.781L292.56 119.081L292.914 118.36L293.284 117.614L293.541 117.104L293.807 116.584L294.22 115.782L294.506 115.232L294.95 114.387L295.572 113.219L296.229 112.002L296.921 110.734L297.65 109.415L298.029 108.735L298.614 107.69L299.429 106.246L299.851 105.504C300.355 104.612 300.863 103.724 301.369 102.843L302.377 101.091L306.16 94.5515L307.134 92.8586L307.83 91.6405L308.491 90.4734L309.318 88.9957L309.819 88.0816L310.145 87.4758L310.367 87.0573L310.589 86.6327L310.917 85.9943L311.127 85.5753L311.228 85.3691L311.422 84.9672L311.602 84.5818L311.685 84.3974L311.568 84.5042L311.197 84.8528L310.934 85.1067L310.517 85.5181L310.073 85.965L309.763 86.2809L309.281 86.7802L308.776 87.3084L308.252 87.8636L307.526 88.641L306.386 89.8776L305.197 91.1823L304.178 92.3087L302.427 94.2588L301.037 95.8151L299.748 97.2607L295.698 101.782L293.626 104.087L292.051 105.825L290.816 107.18L289.544 108.562L289.114 109.026L288.246 109.958L287.372 110.89L286.493 111.817C286.2 112.126 285.906 112.432 285.613 112.737L284.735 113.645C282.982 115.445 281.255 117.148 279.662 118.606L279.119 119.1L278.767 119.415L278.422 119.719L278.086 120.012L277.756 120.294L277.434 120.565L277.12 120.826L276.812 121.076L276.512 121.315L276.219 121.544L275.933 121.762L275.653 121.97L275.381 122.167L275.114 122.353L274.855 122.53L274.602 122.696L274.356 122.852L274.234 122.926L273.998 123.066L273.881 123.132L273.653 123.258L273.431 123.373C271.861 124.163 270.745 124.18 269.926 123.507C268.749 122.529 268.921 120.821 270.12 118.399L270.289 118.065L270.471 117.721C270.565 117.547 270.664 117.37 270.767 117.189L270.981 116.823L271.205 116.449L271.441 116.066L271.689 115.673L271.817 115.474L272.082 115.069L272.358 114.655L272.5 114.444L272.792 114.017L273.094 113.581L273.25 113.359L273.568 112.91L274.064 112.22L274.583 111.51L275.307 110.533L276.069 109.521L276.867 108.474L277.698 107.393L279.005 105.705L279.232 105.414L279.907 104.555L281.09 103.029L282.105 101.709L282.627 101.026L283.153 100.333L283.416 99.983L284.072 99.1054L284.848 98.0527L285.476 97.1845L286.081 96.3315L286.429 95.8307L286.765 95.3398L287.087 94.8599L287.392 94.3936L287.682 93.9415L287.864 93.6488L288.038 93.3641L288.202 93.0875L288.358 92.8194L288.502 92.5602L288.571 92.4345L288.7 92.19L288.818 91.9554L288.924 91.7318C289.225 91.0768 289.363 90.5723 289.285 90.2753C289.016 90.245 288.591 90.377 288.061 90.6224L287.843 90.7264L287.73 90.7831L287.497 90.9042C287.458 90.9255 287.417 90.9468 287.377 90.969L287.13 91.1057L286.875 91.2518L286.613 91.4064L286.343 91.5691L286.067 91.7393L285.644 92.0074L285.211 92.2883L284.771 92.5796L284.178 92.9806L283.702 93.3079L283.131 93.7051L282.569 94.1023L281.748 94.6877L279.08 96.609L278.309 97.1585L277.748 97.5543L277.2 97.9364L276.667 98.3043L276.32 98.5408L275.811 98.8827L275.315 99.2089L274.833 99.5182L274.52 99.7149L274.213 99.9041L273.911 100.085L273.616 100.259C273.568 100.287 273.519 100.315 273.471 100.342L273.185 100.503C273.138 100.529 273.091 100.555 273.044 100.58L272.768 100.728L272.497 100.867L272.364 100.934L272.102 101.06C272.016 101.1 271.931 101.139 271.847 101.177L271.597 101.284L271.474 101.335L271.233 101.428C269.726 101.989 268.575 101.972 267.755 101.193C266.463 99.9258 266.805 98.0844 267.702 96.0723L267.83 95.7905L267.965 95.5068L268.106 95.2211L268.327 94.7903L268.48 94.5019L268.716 94.0668L268.876 93.7765L269.121 93.3405L269.456 92.7499L269.902 91.9564C270.003 91.7748 270.105 91.5904 270.206 91.405L270.41 91.0243L270.61 90.6427L270.739 90.3902L270.863 90.1396L270.981 89.8908L271.094 89.6468L271.199 89.4066L271.297 89.1725C271.685 88.2078 271.843 87.4073 271.492 87.0517C271.271 86.949 270.865 87.0171 270.334 87.2072L270.129 87.2843L270.023 87.3269L269.801 87.4196C269.763 87.4361 269.725 87.4527 269.686 87.4702L269.45 87.578L269.205 87.6948L269.079 87.7567L268.821 87.8863L268.556 88.0239L268.146 88.2438L267.58 88.5583L266.996 88.894L266.551 89.1564L265.95 89.5173L265.376 89.8691L264.804 90.2242L264.481 90.4275L263.844 90.8309L263.228 91.2248L262.084 91.9616L260.965 92.687L259.982 93.3173L259.223 93.7982L258.669 94.1444L258.128 94.4773L257.601 94.7965L257.088 95.1015L256.753 95.2963L256.424 95.4845L255.944 95.7541L255.631 95.9243L255.324 96.087L255.023 96.2421L254.729 96.3892L254.442 96.5287L254.3 96.5953L254.022 96.7225C253.93 96.7632 253.839 96.8029 253.75 96.8408L253.484 96.9509L253.225 97.0521C251.477 97.7132 250.182 97.7454 249.379 96.8914C248.675 96.1527 248.717 95.1128 249.505 93.5727L249.629 93.3377C249.673 93.2582 249.718 93.1773 249.764 93.0955L249.911 92.8449C249.961 92.7607 250.014 92.6747 250.068 92.5872L250.237 92.321C250.266 92.2756 250.295 92.2302 250.325 92.1848L250.51 91.9058L250.707 91.6187L250.914 91.3232L251.133 91.0186L251.363 90.7051L251.729 90.2181L252.12 89.7102L252.395 89.3598L252.828 88.816L253.131 88.441L253.606 87.8593L253.936 87.4593L254.631 86.6275L255.37 85.7526L256.357 84.5979L257.633 83.1178L259.18 81.3331L260.047 80.3259L260.637 79.6374L261.228 78.9403L261.523 78.5904L262.063 77.9444L262.593 77.3023L262.983 76.8247L263.487 76.1981L263.731 75.8898L264.087 75.4349L264.427 74.9913L264.646 74.7024L264.856 74.4191L265.057 74.143L265.25 73.8734L265.433 73.6114L265.689 73.2341L265.845 72.9929L265.991 72.7617L266.124 72.5399L266.246 72.3285C266.551 71.7785 266.719 71.343 266.702 71.0645C266.317 70.7538 265.548 70.8943 264.58 71.299L264.344 71.4012L264.101 71.5128L263.852 71.6329L263.596 71.762L263.336 71.8991L263.07 72.0424L262.801 72.1933L262.528 72.3493L262.251 72.512L261.832 72.764L261.41 73.0251L261.128 73.2033L260.827 73.3953C260.627 73.5244 260.427 73.6545 260.228 73.7855L259.637 74.1789L259.059 74.5704L258.499 74.9535L256.126 76.5944L255.482 77.0341L254.853 77.4574L254.391 77.7624L253.939 78.0556L253.642 78.2443L253.35 78.4263L253.062 78.6022L252.778 78.772L252.498 78.9342C252.452 78.9607 252.406 78.9872 252.36 79.0127L252.087 79.164L251.819 79.3078L251.555 79.4435L251.295 79.5712L251.041 79.6894C250.999 79.7083 250.957 79.7272 250.915 79.7452L250.668 79.8506C249.077 80.5027 247.794 80.5566 246.902 79.627C246.337 79.0359 246.275 78.2026 246.667 77.0554L246.741 76.8493L246.824 76.6369C246.854 76.5651 246.885 76.4922 246.917 76.418L247.019 76.1919L247.073 76.0766L247.189 75.8401L247.314 75.5971L247.379 75.4727L247.518 75.2188L247.665 74.9577L247.821 74.6891L247.986 74.4134L248.16 74.1297L248.342 73.8389L248.632 73.3882L248.836 73.078L249.158 72.5976L249.383 72.2675L249.736 71.7568L250.236 71.0475L250.768 70.3041L251.333 69.5262L251.777 68.92L253.047 67.2044L253.904 66.0553L255.718 63.628L256.309 62.8288L256.939 61.9691L257.594 61.0659L258.092 60.3675L258.426 59.896L258.957 59.1356L259.306 58.6292L259.626 58.1577L260.041 57.5363L260.342 57.0781L260.631 56.6289L260.817 56.3347L260.996 56.0463L261.252 55.624L261.334 55.4869L261.492 55.2173L261.641 54.9549L261.782 54.7009L261.913 54.455L262.035 54.2191L262.147 53.9926L262.199 53.8833L262.295 53.6724L262.379 53.4724L262.451 53.2847C262.583 52.9205 262.64 52.6302 262.606 52.4335C262.41 52.4349 262.153 52.5035 261.843 52.6278L261.651 52.7096C261.585 52.739 261.517 52.7706 261.447 52.8042L261.232 52.9116C261.195 52.9305 261.158 52.9494 261.12 52.9697L260.888 53.095L260.769 53.1617L260.522 53.3036L260.266 53.4563L260.001 53.6195L259.728 53.7921L259.303 54.0682L258.862 54.3633L258.407 54.6754L257.938 55.0041L257.459 55.3469L256.971 55.7016L256.474 56.068L255.803 56.5707L255.126 57.0862L254.556 57.5245L253.931 58.0106L253.2 58.5847L252.243 59.3456L251.545 59.9064L250.648 60.6318L249.601 61.4863L247.7 63.0515L244.15 65.9853L242.772 67.1169L241.765 67.9378L241.108 68.4693L240.463 68.9871L239.831 69.4898L239.213 69.9759L238.61 70.4446C238.412 70.5978 238.216 70.7477 238.023 70.8947L237.452 71.3241L236.915 71.7246L236.406 72.0973L236.082 72.3304L235.77 72.5508L235.322 72.8596L235.179 72.9565L234.9 73.1414L234.632 73.3149L234.373 73.4767L234.126 73.627L233.887 73.7656L233.772 73.8309L233.548 73.9533L233.332 74.064C233.298 74.0815 233.263 74.0989 233.229 74.116L233.026 74.2106L232.832 74.2943C231.758 74.7397 231.069 74.6726 230.532 74.1879C229.958 73.6691 229.882 72.9158 230.464 71.587L230.564 71.3667L230.618 71.2522L230.736 71.0158L230.866 70.769L231.008 70.5108L231.162 70.2407C231.189 70.1949 231.215 70.1481 231.243 70.1012L231.416 69.8133L231.602 69.5135L231.8 69.2004L232.011 68.8741L232.121 68.7067L232.472 68.1828L232.723 67.8158L233.125 67.2389L233.557 66.6289L234.183 65.7616L234.866 64.8305L235.416 64.089L236.202 63.0407L237.049 61.9218L237.957 60.7297L239.7 58.4589L243.166 53.9552L243.831 53.0851L244.893 51.6854L245.894 50.35L246.836 49.0779L247.373 48.3459L247.888 47.6366L248.22 47.1765L248.854 46.2874L249.156 45.8581L249.592 45.2339L250.007 44.6324L250.4 44.054L250.89 43.3192L251.342 42.6259L251.553 42.2949L251.755 41.9738L252.04 41.5123L252.217 41.2172L252.386 40.933L252.544 40.6588L252.693 40.3954L252.832 40.1419L252.962 39.8993L253.081 39.6666L253.192 39.4444L253.292 39.2335L253.383 39.032L253.464 38.8415L253.535 38.6618L253.568 38.5752L253.624 38.4107C253.65 38.3312 253.673 38.2556 253.691 38.1837L253.724 38.0456C253.765 37.8461 253.775 37.6824 253.75 37.5538C253.699 37.4999 253.596 37.1207 253.35 36.9107C253.106 36.7036 252.718 36.6657 252.655 36.6251L252.59 36.6355C252.551 36.6435 252.501 36.6558 252.44 36.6752L252.38 36.6946L252.28 36.7315L252.204 36.7617L252.078 36.8171L251.935 36.8852L251.775 36.9674L251.596 37.0658L251.399 37.1807L251.182 37.3141L251.026 37.4134L250.774 37.5803L250.595 37.7032L250.406 37.8371L250.207 37.9808L249.997 38.1359L249.663 38.3899C249.625 38.4192 249.586 38.4495 249.547 38.4797L249.305 38.6703L248.923 38.9791L248.653 39.2013L248.227 39.5598L247.929 39.8165L247.618 40.088C246.56 41.0162 245.419 42.0826 244.242 43.2251L243.531 43.9188L243.172 44.2716L242.453 44.9866L241.73 45.7124L241.006 46.4454L240.283 47.1831L239.563 47.9222L238.495 49.0268L237.448 50.1173C237.333 50.2374 237.218 50.3571 237.104 50.4767C236.412 51.1933 235.723 51.9124 235.037 52.634L233.685 54.0592L231.475 56.3768L230.47 57.4247L229.08 58.8628L228.228 59.7348L227.432 60.5396L226.871 61.1004L226.514 61.4537L226.001 61.9549L225.675 62.2689L225.209 62.712L224.912 62.9887L224.627 63.2506L224.353 63.4984L224.089 63.7315L223.836 63.9505L223.593 64.1557L223.359 64.3472C223.321 64.378 223.283 64.4087 223.246 64.438L223.026 64.6097C222.991 64.6371 222.955 64.6641 222.92 64.6901L222.714 64.8423L222.516 64.9818C222.451 65.0263 222.388 65.0684 222.327 65.1086L222.145 65.223L222.057 65.276L221.887 65.3724C221.025 65.8396 220.447 65.8368 219.962 65.4992L219.915 65.4661C219.459 65.1611 219.23 64.7359 219.271 64.0451L219.284 63.8933C219.29 63.8413 219.298 63.7873 219.306 63.7325L219.335 63.5632L219.374 63.3844L219.421 63.1967L219.447 63.0993L219.508 62.8964L219.576 62.6836L219.654 62.4604C219.669 62.4226 219.682 62.3838 219.697 62.3451L219.788 62.1053L219.889 61.8547L219.999 61.5918L220.118 61.3175L220.247 61.0304L220.386 60.7311L220.534 60.419L220.692 60.0932L220.947 59.5796L221.225 59.0344L221.422 58.6528L221.739 58.0522L222.078 57.4181L222.567 56.5168L223.098 55.5498L224.134 53.6923L225.487 51.2967L226.786 49.0093L227.349 48.0144L228.502 45.9621L229.063 44.9539L229.595 43.9888L230.098 43.0657L230.574 42.1838L231.022 41.3421L231.444 40.5401L231.84 39.7764L232.21 39.0505L232.444 38.5871L232.88 37.7075L233.082 37.2909L233.367 36.6951L233.544 36.3158L233.871 35.6018L234.021 35.266L234.229 34.7884L234.417 34.3401L234.533 34.0578L234.639 33.7883L234.786 33.4067L234.873 33.1674L234.992 32.8307L235.061 32.6207L235.153 32.3261L235.23 32.0556L235.274 31.8882L235.311 31.7308L235.343 31.5832L235.369 31.4451L235.389 31.316L235.404 31.1964L235.415 31.0848L235.42 30.9822L235.421 30.8876L235.417 30.8011L235.41 30.7216L235.398 30.6502L235.382 30.5854L235.363 30.5278L235.318 30.5244H235.294L235.243 30.5268L235.188 30.5334L235.129 30.5448L235.066 30.5609L234.998 30.5817L234.925 30.6081L234.848 30.6403L234.723 30.6994L234.633 30.7472L234.537 30.802L234.437 30.8635L234.275 30.9699C234.256 30.9827 234.237 30.9959 234.218 31.0096L234.038 31.1397L233.844 31.2896L233.706 31.4007L233.562 31.5208L233.411 31.6508L233.253 31.7903L233.003 32.0197L232.826 32.1852L232.547 32.4557L232.251 32.7512L231.936 33.0737L231.602 33.4246L231.369 33.6748L231.127 33.9377L230.748 34.3581L230.483 34.656L230.069 35.1289L229.632 35.6358L229.174 36.1768L228.856 36.5575L228.36 37.158L227.84 37.7959L227.296 38.4721L226.532 39.4349L225.929 40.2043L224.604 41.9161L222.208 45.023L221.123 46.4156L220.548 47.1453L220.003 47.8281L219.614 48.3104L219.241 48.7663L218.883 49.1966L218.541 49.6023L218.212 49.983L217.897 50.3396L217.595 50.672L217.306 50.9803L217.119 51.1728L216.938 51.3548L216.762 51.5265L216.591 51.6882L216.424 51.8395L216.262 51.9814L216.104 52.1133L215.95 52.2349L215.8 52.3469C215.751 52.3829 215.702 52.4169 215.654 52.4496L215.511 52.5427C214.736 53.0279 214.117 53.0846 213.527 52.7815C212.321 52.1786 212.053 50.8403 212.171 49.1087L212.194 48.8164L212.209 48.6675L212.242 48.3648L212.28 48.0565L212.324 47.7416L212.373 47.4209L212.425 47.0947L212.51 46.5967L212.696 45.571L212.728 45.397L212.879 44.5548L212.976 44.0252L213.059 43.5405L213.122 43.1508L213.162 42.8818L213.201 42.6075L213.237 42.329L213.286 41.9081L213.313 41.6286L213.325 41.4891L213.345 41.213L213.353 41.0768L213.364 40.8087C213.394 39.7499 213.26 38.8694 212.769 38.6608L212.676 38.6268C212.355 38.5175 211.91 38.4693 211.203 38.8505C210.728 39.1143 210.221 39.5456 209.709 40.0223L209.401 40.3121L209.094 40.6067L208.509 41.1751L208.218 41.4518L208.021 41.6343L207.822 41.814L207.721 41.902L207.517 42.075C206.325 43.07 204.996 43.7821 203.453 43.262C202.19 42.7985 201.708 41.4608 201.554 39.5848L201.532 39.276C201.525 39.17 201.52 39.0639 201.515 38.9578L201.503 38.6315L201.495 38.2958L201.492 37.9525L201.493 37.4228L201.502 36.8762L201.521 36.1234L201.559 34.9487L201.59 34.1302L201.614 33.3433L201.629 32.6638L201.633 32.2221V31.7634L201.629 31.4503L201.618 30.9756L201.606 30.6578L201.59 30.341L201.57 30.0274L201.545 29.7187L201.515 29.416L201.498 29.2685L201.459 28.9795C201.307 27.9392 201.031 27.1244 200.545 26.9348L200.498 26.9632L200.435 27.0081C200.399 27.0355 200.358 27.0705 200.31 27.1154L200.225 27.1996L200.123 27.3107L200.049 27.3992L199.969 27.4994L199.883 27.6124L199.792 27.7392L199.695 27.8806L199.645 27.9562L199.486 28.2092C199.468 28.239 199.449 28.2697 199.431 28.3014L199.315 28.4991L199.193 28.7147L199.067 28.9493L198.936 29.2027C198.913 29.2467 198.891 29.2916 198.868 29.337L198.728 29.6217L198.582 29.9272L198.432 30.2554L198.354 30.428C197.774 31.726 197.187 33.2605 196.617 34.8702L196.334 35.6807L196.054 36.4988L195.915 36.9093L195.641 37.7311L195.373 38.5492L194.981 39.7603L194.585 41.0044L193.075 45.7687L192.64 47.1155L192.234 48.345L191.978 49.1006L191.793 49.635L191.673 49.9754L191.496 50.463L191.324 50.924L191.157 51.3581L191.047 51.6329L190.939 51.8963L190.832 52.1479L190.726 52.3886L190.622 52.6174L190.519 52.8359L190.416 53.043L190.314 53.2388L190.264 53.3334L190.163 53.5131L190.063 53.6828L189.962 53.8417C189.946 53.8673 189.929 53.8928 189.912 53.9174L189.812 54.0611C189.749 54.1492 189.682 54.2349 189.612 54.3179L189.512 54.4314C189.026 54.9549 188.525 55.1341 187.943 55.0272L187.863 55.0069L187.784 54.9832L187.708 54.9553L187.635 54.9241L187.563 54.8882C187.551 54.8821 187.539 54.8758 187.527 54.8693L187.459 54.8267L187.393 54.7794C187.37 54.7625 187.349 54.7448 187.328 54.7265L187.265 54.6688L187.205 54.6049C187.195 54.5937 187.185 54.5824 187.176 54.5709L187.118 54.4981C187.108 54.4853 187.099 54.4724 187.09 54.4593L187.035 54.377C187.026 54.3625 187.017 54.3478 187.009 54.333L186.957 54.2404L186.907 54.1401L186.86 54.0323L186.814 53.9169L186.77 53.793L186.727 53.6611L186.687 53.5206L186.648 53.3707L186.611 53.2123L186.576 53.044L186.543 52.8657L186.511 52.678L186.481 52.4793L186.439 52.1616L186.413 51.9365L186.377 51.5771L186.355 51.3227L186.325 50.9188L186.29 50.3367L186.268 49.8662L186.244 49.1919L186.225 48.4618L186.212 47.6735L186.204 46.8251L186.203 46.1479V45.2788L186.209 44.0124L186.217 43.1352L186.234 41.7738L186.271 39.4009L186.359 34.5042L186.392 32.5559L186.421 30.5817L186.447 28.5913L186.459 27.5935L186.468 26.5154L186.478 24.9501L186.48 23.9405L186.479 22.3725L186.47 20.8224L186.463 20.0738L186.447 18.9828L186.428 17.9307L186.404 16.9149L186.376 15.9356L186.343 14.9913L186.319 14.3812L186.264 13.2052L186.234 12.6392L186.201 12.0873L186.167 11.5492L186.111 10.7675L186.051 10.0156L185.986 9.29258L185.942 8.83152L185.873 8.17658L185.824 7.76375L185.776 7.36937L185.725 6.99296L185.647 6.46144L185.568 5.9687L185.488 5.51284L185.434 5.22911L185.379 4.96052L185.325 4.70658L185.27 4.46778L185.216 4.24269L185.135 3.93106L185.081 3.74001L185.028 3.56126L184.95 3.31631L184.902 3.17445C184.876 3.09997 184.849 3.02587 184.82 2.95219L184.742 2.75831L184.668 2.59233C184.636 2.52358 184.602 2.45578 184.566 2.38899L184.505 2.28165L184.449 2.19464L184.401 2.12607C184.344 2.1935 184.293 2.26495 184.247 2.33981L184.17 2.4708C184.082 2.63253 183.994 2.82688 183.907 3.05055L183.832 3.24916L183.758 3.46243L183.685 3.68941L183.612 3.93058L183.539 4.18499L183.466 4.45217L183.395 4.73164L183.323 5.02388L183.217 5.48494L183.147 5.8065L183.077 6.13988L183.008 6.48414L182.905 7.02039L182.802 7.57933L182.701 8.1605L182.601 8.762L182.469 9.59522L182.339 10.4611L182.243 11.1307L182.084 12.2807L181.99 12.99L181.807 14.4479L181.627 15.9493L181.481 17.228L181.253 19.3134L181.09 20.8834C181.01 21.6631 180.932 22.4458 180.855 23.2279L180.66 25.2547L180.544 26.4922L180.32 28.9247L179.726 35.5294L179.56 37.3439L179.296 40.1627L179.096 42.2401L178.951 43.6975L178.764 45.5114L178.673 46.3645L178.495 47.9666L178.365 49.0798L178.238 50.1192L178.112 51.0877L178.071 51.395L177.988 51.9875L177.906 52.5503L177.824 53.0846L177.742 53.5906C177.729 53.6714 177.715 53.7521 177.701 53.8327L177.619 54.2976L177.538 54.7359L177.497 54.9454L177.415 55.3455L177.374 55.5365L177.291 55.8997L177.208 56.2392C177.152 56.4577 177.096 56.661 177.039 56.8497L176.953 57.1221C176.463 58.6069 175.92 59.0812 175.219 59.1077L175.155 59.1087H175.095C174.302 59.1484 173.723 58.7479 173.248 57.6177L173.17 57.4224C173.157 57.3881 173.144 57.3537 173.131 57.3193L173.055 57.1032C173.043 57.0654 173.031 57.0276 173.019 56.9897L172.945 56.7523L172.874 56.5003C172.849 56.4112 172.825 56.322 172.803 56.2326L172.734 55.9503C172.722 55.9013 172.711 55.8523 172.7 55.8032L172.632 55.4968L172.565 55.1748L172.467 54.6603L172.402 54.2966L172.338 53.916L172.274 53.5178L172.211 53.1017L172.116 52.4444L172.021 51.7445L171.926 51.003L171.83 50.2176L171.766 49.669L171.635 48.5119L171.501 47.272L171.328 45.6022L171.071 43.0317L170.991 42.1828L170.646 38.7431L170.558 37.9052L170.427 36.6984L170.339 35.9271L170.252 35.1814L170.165 34.4616L170.035 33.4294L169.906 32.4524L169.777 31.5293L169.691 30.9429L169.606 30.3802L169.521 29.8397L169.436 29.3214L169.353 28.8249L169.227 28.1198L169.144 27.6753L169.062 27.2516L168.979 26.8478L168.898 26.4638L168.817 26.0983L168.737 25.7517L168.618 25.266L168.5 24.8201L168.423 24.5439C168.41 24.4999 168.397 24.4559 168.384 24.412L168.307 24.1614L168.231 23.9259L168.155 23.706L168.081 23.5017L168.007 23.3125L167.935 23.1371L167.862 22.9759L167.791 22.8278C167.779 22.8049 167.768 22.782 167.756 22.7593L167.686 22.6311L167.616 22.5153C167.594 22.4804 167.572 22.446 167.548 22.4122L167.481 22.3204C167.46 22.293 167.438 22.2662 167.415 22.24L167.349 22.1705C167.329 22.15 167.308 22.1303 167.285 22.1114L167.222 22.0622C167.202 22.0481 167.182 22.035 167.16 22.023L167.099 21.9932C167.035 21.9651 166.965 21.9522 166.894 21.9554L166.856 21.962L166.827 21.97L166.798 21.9814L166.769 21.9965L166.737 22.0154L166.689 22.0523L166.655 22.0831L166.601 22.1389L166.565 22.1833L166.528 22.2334L166.47 22.3214L166.432 22.3885L166.371 22.503L166.309 22.6349L166.268 22.7333L166.205 22.8969L166.161 23.017L166.096 23.2156L166.053 23.3608L166.009 23.5159L165.943 23.7689L165.876 24.0469L165.81 24.3515L165.743 24.6834L165.699 24.9203L165.654 25.171L165.589 25.5715L165.524 26.0032L165.459 26.4681L165.396 26.966L165.334 27.499L165.293 27.8744L165.253 28.266L165.194 28.8845L165.137 29.5418L165.082 30.2388L165.028 30.9765L164.977 31.7568L164.731 36.007L164.675 36.897L164.617 37.7406L164.57 38.3435L164.521 38.9204L164.487 39.2912L164.451 39.6501L164.413 39.9972L164.373 40.3329L164.332 40.6573L164.287 40.9699L164.241 41.2711L164.192 41.5605L164.14 41.8386L164.085 42.1053L164.027 42.3597C164.018 42.4013 164.008 42.4425 163.997 42.4827L163.935 42.7205C163.549 44.1103 162.975 44.8726 162.057 44.9988L161.98 45.0083C160.758 45.1889 159.797 44.4404 158.921 43.2019L158.763 42.9711C158.71 42.8917 158.658 42.8116 158.606 42.7309L158.451 42.4803L158.297 42.2211L158.144 41.9535L157.992 41.6778L157.841 41.395L157.689 41.1052L157.462 40.6597L157.311 40.3561L156.851 39.4198L156.533 38.7738L156.244 38.1827L156.018 37.7345L155.835 37.3788L155.641 37.0138L155.438 36.6435L155.299 36.3976L155.157 36.1536L155.013 35.9134L154.867 35.6788C154.843 35.6406 154.818 35.6024 154.793 35.5644L154.646 35.3412L154.497 35.1279C153.954 34.3652 153.409 33.8327 152.971 33.9008L152.944 33.9211L152.918 33.9448L152.891 33.9732L152.85 34.0238L152.81 34.0852L152.771 34.1576L152.732 34.2427L152.694 34.3406L152.669 34.4134L152.634 34.5354L152.6 34.6726L152.578 34.7733L152.548 34.9383L152.52 35.1208L152.496 35.3223L152.468 35.6216L152.451 35.8699L152.434 36.2345L152.426 36.5343L152.423 36.9712L152.424 37.2058L152.434 37.7089L152.447 38.117L152.467 38.5525L152.492 39.016L152.523 39.5087L152.561 40.0312L152.606 40.5845L152.657 41.1695L152.738 41.9998L152.807 42.6619L152.885 43.3584L152.971 44.0904L153.033 44.5983C153.115 45.3171 153.207 46.0255 153.288 46.7239L153.513 48.5473L153.634 49.5891L153.74 50.5571L153.795 51.1033L153.857 51.7918L153.895 52.2788L153.925 52.7408L153.941 53.0355L153.953 53.3192L153.961 53.592L153.965 53.854V54.1061L153.96 54.3472L153.952 54.5785L153.938 54.7993C153.935 54.8348 153.933 54.8702 153.93 54.9057L153.909 55.1114C153.902 55.1785 153.894 55.2438 153.885 55.3072L153.855 55.493L153.82 55.6689C153.639 56.4965 153.277 56.985 152.676 57.1831L152.613 57.2025C152.577 57.2152 152.54 57.2266 152.504 57.2365L152.396 57.2625L152.288 57.28C151.929 57.3245 151.577 57.2271 151.209 56.9727L151.099 56.8913C150.979 56.798 150.865 56.6974 150.758 56.5901L150.642 56.4705C150.622 56.4493 150.603 56.428 150.583 56.4066L150.464 56.2719L150.343 56.1271L150.221 55.9725L150.096 55.807L149.968 55.632L149.839 55.4457L149.707 55.2495L149.571 55.0424L149.434 54.8248L149.293 54.596L149.149 54.3567L148.927 53.977L148.697 53.5722L148.46 53.1419L148.212 52.6865L147.869 52.0386L147.508 51.3435L147.03 50.4072L146.522 49.3952L145.283 46.8937L144.446 45.1989L144.021 44.3411L143.218 42.729L142.64 41.5823L142.246 40.811L141.847 40.0397L141.647 39.6553L141.243 38.8916C140.365 37.2469 139.475 35.677 138.628 34.3798L138.496 34.1798L138.238 33.7987C137.604 32.8756 137.048 32.1843 136.57 31.735C136.506 31.6751 136.439 31.617 136.371 31.561L136.258 31.4721L136.162 31.4021L136.049 31.3279L135.962 31.2735C135.949 31.265 135.944 31.2593 135.946 31.256C135.365 31.5161 135.212 32.4075 135.293 33.566L135.316 33.8493L135.331 33.994L135.367 34.2905C135.381 34.3902 135.395 34.4919 135.411 34.5941L135.462 34.9043L135.49 35.0613L135.549 35.3786L135.615 35.7001L135.685 36.0231L135.759 36.348L135.837 36.6724L135.918 36.9963L136.002 37.3178L136.13 37.7945L136.305 38.4116L136.436 38.8561L136.647 39.5513L137.01 40.7065L137.908 43.4979L138.089 44.0715L138.317 44.8135L138.478 45.3516L138.628 45.8746L138.767 46.3806L138.853 46.7093C138.867 46.763 138.88 46.8167 138.894 46.8705L138.97 47.1873L139.041 47.4971L139.105 47.7983L139.134 47.9458L139.187 48.2352L139.233 48.5166C139.505 50.3169 139.286 51.5889 138.188 52.1729C137.692 52.4269 137.161 52.4131 136.537 52.1228L136.392 52.0509C136.147 51.9207 135.913 51.7721 135.692 51.6064L135.526 51.4797C135.498 51.4578 135.47 51.4357 135.442 51.4135L135.269 51.2721L135.092 51.1208L134.91 50.96L134.724 50.7888L134.628 50.6999L134.434 50.5136L134.235 50.3173L134.03 50.1112L133.82 49.8951L133.495 49.5513L133.271 49.3096L132.923 48.9275L132.56 48.5228L132.184 48.0948L131.523 47.3306L130.962 46.6724L130.065 45.607L128.759 44.0398C128.022 43.1537 127.259 42.242 126.485 41.325L125.673 40.3651L125.222 39.8355L124.784 39.3252L124.15 38.5951L123.544 37.9061L122.965 37.2568L122.593 36.8459L122.058 36.261L121.715 35.8912L121.221 35.3667L120.752 34.8773L120.452 34.5695L120.022 34.1354L119.614 33.7329L119.229 33.3608L118.866 33.0184L118.635 32.8056L118.414 32.6051L118.098 32.3261L117.802 32.0731L117.615 31.918L117.35 31.7043L117.103 31.5132L116.874 31.343L116.801 31.291L116.593 31.1472L116.402 31.0219L116.226 30.9136L116.117 30.8507L116.014 30.7945L115.872 30.7221L115.742 30.6625L115.626 30.6152L115.522 30.5793L115.429 30.5533L115.347 30.5353L115.299 30.5278L115.234 30.5216L115.175 30.5211C115.154 30.5219 115.133 30.5242 115.112 30.5278C115.105 30.5467 115.099 30.566 115.093 30.5854L115.077 30.6498L115.066 30.7216C115.062 30.7479 115.06 30.7742 115.058 30.8006L115.054 30.8871L115.055 30.9817L115.06 31.0843L115.071 31.1955L115.086 31.3156L115.106 31.4442L115.132 31.5823L115.163 31.7298L115.201 31.8868L115.244 32.0542L115.294 32.2315L115.35 32.4198L115.413 32.6184L115.519 32.938L115.6 33.165L115.734 33.5282L115.833 33.7854L115.997 34.1949L116.116 34.4834L116.311 34.9416L116.524 35.4296L116.759 35.9498L116.927 36.3139L117.105 36.6927L117.389 37.289L117.697 37.9198L117.915 38.3596L118.382 39.2879L118.761 40.027L119.028 40.541L119.45 41.344L119.899 42.1866L120.54 43.3736L121.231 44.6333L121.783 45.6287L122.167 46.3163L122.565 47.0237L123.015 47.8243L126.012 53.1234L126.795 54.5179L127.508 55.8018L128.03 56.7528L128.623 57.8503L128.948 58.4622L129.249 59.0401L129.527 59.5853L129.701 59.9315L129.864 60.2634L130.091 60.7368L130.23 61.0361L130.359 61.3227L130.48 61.597L130.59 61.8594L130.692 62.11L130.784 62.3493L130.867 62.5772L130.906 62.6874L130.976 62.9002L131.037 63.1017C131.103 63.3315 131.151 63.5414 131.182 63.733L131.205 63.8923L131.22 64.0436C131.263 64.6816 131.076 65.0887 130.694 65.3805L130.602 65.4457C130.144 65.7839 129.614 65.8363 128.862 65.4968L128.709 65.424C128.578 65.3583 128.441 65.2821 128.297 65.1937L128.121 65.0826L127.937 64.9601C127.906 64.9388 127.874 64.9171 127.843 64.8944L127.648 64.7544C127.614 64.7298 127.581 64.705 127.547 64.6801L127.341 64.5227C127.305 64.4951 127.269 64.4673 127.234 64.4394L127.015 64.2635L126.787 64.0753L126.55 63.8744L126.304 63.6611L126.048 63.4341L125.783 63.1948L125.366 62.8104L124.926 62.3957L124.619 62.1015L124.461 61.9493L123.964 61.4636L123.301 60.8063L122.594 60.0951L122.032 59.5253L120.829 58.2896L119.964 57.393L118.568 55.9356L116.781 54.0592L115.429 52.634L114.06 51.1959L113.028 50.1178L111.98 49.0268L110.911 47.9222L110.191 47.1831L109.468 46.4454L108.743 45.7124L108.019 44.9866L107.299 44.2716L106.584 43.5698C105.281 42.2978 104.018 41.1089 102.858 40.088L102.396 39.6865L101.962 39.3177L101.553 38.9791L101.171 38.6703L100.929 38.4802L100.587 38.2177L100.373 38.057L100.07 37.8371L99.8811 37.7037L99.6153 37.5226L99.3713 37.3628L99.1472 37.2228L98.9434 37.1022L98.7586 36.9982L98.5922 36.9112L98.4433 36.8383L98.3535 36.7972L98.1959 36.731L98.0959 36.6946L98.0363 36.6752C97.9869 36.6593 97.9367 36.6461 97.8859 36.6355L97.8214 36.6251C97.6968 36.7045 97.5559 36.7564 97.4086 36.7773C97.2613 36.7981 97.1111 36.7873 96.9685 36.7457L96.9739 36.8067C96.9884 37.0715 96.8938 37.3382 96.6949 37.5434C96.6648 37.6976 96.6828 37.9042 96.7492 38.1629L96.7905 38.309L96.8409 38.4651L96.9011 38.632L96.9705 38.8093C96.9831 38.8396 96.9957 38.8708 97.0093 38.9015L97.0927 39.094L97.1863 39.2969L97.2892 39.5097L97.4017 39.7328L97.5235 39.9664L97.655 40.2105L97.7956 40.4644L97.946 40.7283L98.19 41.1439L98.3637 41.4338L98.6426 41.8878L98.9434 42.364L99.2646 42.8633L99.6075 43.3859L99.9714 43.9311L100.357 44.499L100.903 45.292L101.487 46.1253L101.95 46.7769L102.434 47.4512L103.287 48.6254L104.011 49.6099L104.774 50.6346L105.573 51.6996L106.41 52.8047L107.509 54.2422L111.518 59.4458L112.734 61.0347L113.851 62.5035L114.674 63.5958L115.435 64.6172L115.967 65.3384L116.303 65.7985L116.931 66.6705L117.366 67.2834L117.637 67.6735L118.019 68.2305L118.256 68.5847L118.587 69.0893L118.79 69.409L118.981 69.7159L119.072 69.8643L119.243 70.1518L119.324 70.2913L119.476 70.5609L119.548 70.6914L119.682 70.9434C119.725 71.0257 119.765 71.1061 119.803 71.1846L119.913 71.4149L119.963 71.526L120.056 71.7402L120.135 71.945C120.544 73.0421 120.431 73.7003 119.914 74.168C119.313 74.709 118.524 74.7326 117.217 74.1013L117.006 73.9964C116.97 73.9777 116.934 73.9587 116.898 73.9396L116.674 73.8176L116.44 73.6852L116.198 73.5405L115.944 73.3849L115.681 73.218L115.408 73.0393C115.361 73.008 115.314 72.9766 115.267 72.9452L114.977 72.7489L114.676 72.5404L114.203 72.2046L113.703 71.8414L113.175 71.4504L112.993 71.3137C112.807 71.1742 112.617 71.0309 112.425 70.8843L111.841 70.4356C111.742 70.3594 111.643 70.2824 111.543 70.2043L110.935 69.7286L110.314 69.2359L109.678 68.728L109.03 68.2059L108.036 67.3983L106.675 66.2823L101.007 61.6045L99.4499 60.3339L98.3909 59.4803L97.5114 58.7791L97.1315 58.4793C96.622 58.0773 96.1101 57.6783 95.5956 57.2824L95.0392 56.8568L94.5274 56.469L93.8517 55.9654L93.3525 55.5985L92.8615 55.2433L92.3803 54.9014L92.0659 54.6816L91.6056 54.3652L91.1598 54.0673L90.8716 53.8781L90.5912 53.6994L90.319 53.5296L90.0556 53.3703L89.8019 53.2213L89.6787 53.1504L89.4395 53.0184C89.3619 52.9763 89.2858 52.9366 89.2115 52.8983L88.9942 52.7905C88.5363 52.5701 88.1603 52.4401 87.8906 52.4226C87.8809 52.7314 88.0507 53.1986 88.3543 53.7812L88.4742 54.0049L88.5387 54.1207L88.6765 54.36L88.7492 54.4829L88.9044 54.7359L89.0694 54.9979L89.244 55.2679L89.4284 55.5455L89.7214 55.9758L89.9266 56.2704L90.2492 56.7235L90.5868 57.1883L91.0579 57.8229L91.3014 58.1454L91.6745 58.6348L92.0558 59.1285L92.5739 59.7906L93.1085 60.4663L93.4505 60.8938L94.0428 61.6291L94.54 62.2415L95.5088 63.4237L97.865 66.2818L98.9977 67.6688L99.6983 68.536L100.356 69.3588L100.97 70.1377L101.54 70.8749L101.94 71.4012L102.316 71.9053L102.553 72.2292L102.78 72.5437L102.996 72.8487L103.201 73.1447L103.396 73.4317L103.58 73.7098L103.668 73.8455L103.836 74.1108L103.916 74.2404L104.069 74.4929L104.141 74.6163L104.278 74.857L104.342 74.9743L104.464 75.2032L104.574 75.4245C105.276 76.8738 105.282 77.8243 104.619 78.4991C103.512 79.6468 101.853 79.4652 99.9398 78.7606L99.6507 78.6509C99.5537 78.6131 99.4567 78.5743 99.3582 78.5341L99.0623 78.4112L98.7634 78.2816L98.4617 78.1464L98.1571 78.0069L97.541 77.7156L96.7589 77.3354L95.3914 76.6615L94.7253 76.3419L94.1864 76.0926L93.7837 75.9134L93.5169 75.7995C93.4733 75.7805 93.4291 75.7621 93.385 75.7441L93.1235 75.6382L92.8664 75.538L92.6141 75.4453L92.3682 75.3602C91.3567 75.0244 90.5272 74.9138 90.1735 75.2854C89.6409 75.8444 89.6593 76.6119 89.9702 77.6706L90.0474 77.9199L90.0891 78.0485L90.1803 78.3142L90.2802 78.5904L90.3879 78.8779L90.6242 79.487C90.7198 79.73 90.8168 79.9764 90.9114 80.2256L91.0045 80.4748L91.0952 80.7259L91.1389 80.8517L91.2238 81.1042L91.3029 81.3568C91.7744 82.9173 91.8962 84.4943 90.6649 85.7938C89.621 86.8956 87.9793 86.7343 86.0379 85.999L85.7444 85.8846C85.695 85.8648 85.6457 85.8448 85.5965 85.8245L85.2966 85.6978L84.993 85.5644L84.6854 85.4235L84.2178 85.2013L83.9024 85.0462L83.5837 84.8859L83.2626 84.7213L82.776 84.4674L82.1196 84.1174L80.5158 83.2497L79.843 82.8898L79.3685 82.6406L78.8805 82.39L78.5894 82.2434L78.1737 82.0386L77.8972 81.9062L77.4858 81.7147L77.0817 81.535L76.8183 81.423L76.6888 81.3695L76.4346 81.2688L76.1881 81.1766L75.9504 81.0938C75.2131 80.847 74.6227 80.7543 74.336 80.934C74.3297 81.1596 74.4373 81.4873 74.6358 81.8954L74.7333 82.0892C74.7682 82.1554 74.8051 82.224 74.8434 82.294L74.9656 82.5092L75.099 82.7343L75.2436 82.9683L75.3984 83.2119L75.5628 83.4634L75.7365 83.7226L75.9194 83.9898L76.2085 84.4026L76.5151 84.8296L76.8372 85.2684L77.1724 85.7181L77.5198 86.1768L78.1208 86.9557L78.4915 87.4295L79.0139 88.0896L79.5427 88.7507L80.1263 89.4733L80.706 90.1854L81.83 91.5554L82.9676 92.9362L83.9155 94.0919L85.1196 95.573L85.7677 96.3797L86.2339 96.9661L86.8286 97.7227L87.2541 98.2722L87.6616 98.806L88.0497 99.3239L88.4193 99.8265L88.6551 100.153L88.8821 100.473L89.1004 100.786L89.4109 101.243C89.4449 101.292 89.4779 101.342 89.5104 101.391L89.7015 101.684L89.8839 101.971L89.9712 102.111L90.1391 102.387C90.1667 102.433 90.1934 102.478 90.2196 102.523L90.3734 102.789C90.4233 102.877 90.4714 102.964 90.5175 103.049L90.6518 103.302C90.6955 103.386 90.7367 103.468 90.7765 103.549L90.891 103.79C91.6211 105.371 91.6793 106.524 90.9211 107.29C90.0023 108.175 88.464 108.084 84.6029 105.626L84.1557 105.337L83.6885 105.028L83.2 104.698L82.9477 104.525L82.4267 104.162L81.8834 103.777L81.3177 103.369L80.7283 102.938L80.1147 102.484L79.7988 102.248L79.1488 101.757L78.8141 101.502L78.1252 100.974L77.4106 100.421L76.6689 99.8412L75.5056 98.9228L74.6954 98.2774L73.8562 97.604L72.9878 96.9027L72.0894 96.1735L71.1609 95.415L70.2018 94.6277L69.2112 93.8105L67.6656 92.5286L60.5732 86.6176L59.0121 85.3219L57.4976 84.072L56.3969 83.1688L55.3292 82.2987L54.2963 81.465L53.6293 80.9307L52.7949 80.2691L52.0881 79.7168L51.2804 79.0954L50.6915 78.6509L50.0239 78.1572L49.5422 77.8097L49.0018 77.4304L48.7088 77.2309L48.3532 76.9954L48.035 76.793L47.8201 76.6615L47.6876 76.583L47.8302 76.8152L47.9879 77.0625L48.1601 77.325L48.3469 77.6011L48.5472 77.891L48.7607 78.1941L49.1046 78.6727L49.3491 79.007L49.7372 79.5295L50.1496 80.0762L50.5852 80.646L51.1984 81.4376L51.6811 82.0538L52.3515 82.9017L53.2276 83.9987L54.1392 85.1303L55.8458 87.2295L57.2085 88.8935L61.2349 93.7888L62.666 95.5351L64.0423 97.2209L65.3633 98.8477L66.2132 99.8993L67.4425 101.429L68.2313 102.416L68.9958 103.378L69.7361 104.316L70.4521 105.228L71.1434 106.116L71.8109 106.98L72.136 107.403L72.7666 108.23L73.3735 109.034L73.668 109.428L74.2385 110.197C74.4247 110.449 74.6071 110.698 74.7852 110.943L75.3076 111.667C75.8661 112.444 76.4128 113.229 76.9473 114.022L77.3626 114.646C80.7196 119.754 81.5894 122.628 80.0589 123.906C78.8495 124.914 77.12 124.311 75.3824 123.185L75.134 123.02L75.0098 122.936L74.7624 122.762L74.6387 122.673L74.3917 122.492L74.1468 122.306L73.9028 122.117L73.5409 121.828L73.3022 121.632L72.9495 121.338L72.7186 121.141C71.7396 120.307 70.6995 119.342 69.6022 118.274L69.0487 117.731L68.7683 117.454L68.2007 116.886L67.6234 116.303L67.0369 115.705L66.4417 115.093L65.5316 114.148L64.6016 113.176L60.9827 109.373L59.9397 108.283L59.2256 107.543L58.6061 106.904L57.8202 106.102L57.0295 105.305L56.4013 104.681L55.627 103.923L55.171 103.483L54.7223 103.057L54.2828 102.647L53.9956 102.383L53.5745 102.003L53.3004 101.761L53.0326 101.528L52.7716 101.305L52.5169 101.092L52.2695 100.891C52.2294 100.859 52.1891 100.827 52.1487 100.795L51.9135 100.612L51.6859 100.441C51.6492 100.414 51.6123 100.387 51.5753 100.36L51.3614 100.209C51.2616 100.139 51.1603 100.072 51.0577 100.007L50.8671 99.8908C50.4964 99.6733 50.1879 99.5461 49.9546 99.5281L49.8886 99.5258C49.809 99.8123 49.9031 100.342 50.1117 101.021L50.1894 101.267C50.2039 101.309 50.218 101.352 50.2321 101.395L50.3237 101.657L50.3722 101.792L50.4751 102.069L50.5852 102.356L50.7016 102.65L50.8244 102.95L51.0184 103.413L51.2222 103.886L51.5787 104.688L51.8844 105.358L52.2055 106.047L52.5242 106.723L52.987 107.692L53.8505 109.485L54.374 110.593L54.7262 111.348C55.6057 113.25 56.4638 115.226 56.9936 116.91L57.094 117.236L57.1595 117.461L57.2226 117.69L57.2837 117.922L57.3404 118.157L57.3933 118.395L57.4404 118.634C57.7145 120.11 57.6456 121.619 56.3998 122.329C54.9702 123.178 53.3727 122.726 51.8378 121.807L51.5826 121.649C51.455 121.569 51.3284 121.485 51.2023 121.399L50.9505 121.224L50.7012 121.043L50.4538 120.857L50.2093 120.667L49.9672 120.474L49.728 120.28L49.4922 120.083L49.1444 119.787L48.6942 119.397L48.2605 119.016L47.984 118.766L47.3102 118.175L46.8702 117.795C46.1425 117.172 45.4488 116.61 44.8007 116.192C43.879 115.592 43.2241 115.383 42.8651 115.563C42.7157 115.719 42.6623 116.076 42.6788 116.57L42.6895 116.775C42.6914 116.81 42.6943 116.845 42.6972 116.882L42.7181 117.107L42.7458 117.345L42.7618 117.468L42.7981 117.723L42.8408 117.988L42.8884 118.262L42.9689 118.689L43.0281 118.982L43.1241 119.435L43.2284 119.898L43.3391 120.369L43.455 120.846L43.5748 121.324L43.6636 121.671C43.7233 121.902 43.7834 122.132 43.8441 122.359L44.0245 123.031L44.2879 123.991L44.9783 126.479L45.2984 127.661L45.5032 128.438L45.6501 129.014L45.7908 129.583L45.8815 129.958L46.0101 130.515L46.1314 131.062L46.243 131.6L46.3118 131.953L46.3764 132.301L46.436 132.643L46.4908 132.981L46.5166 133.148L46.5636 133.477L46.6048 133.801L46.6233 133.96L46.6558 134.275L46.6698 134.43L46.6931 134.735C46.8503 137.096 46.4127 138.84 44.8924 139.483C43.7499 139.95 42.5289 139.536 41.0105 137.993L40.8063 137.78L40.5982 137.554C40.5283 137.477 40.4575 137.397 40.3866 137.315L40.1713 137.062L39.9515 136.794L39.7283 136.513L39.5003 136.217L39.2685 135.907L39.0317 135.583C38.9916 135.527 38.9517 135.471 38.9119 135.416L38.6684 135.069L38.4205 134.709L38.1672 134.333L37.9092 133.942L37.6462 133.536L37.378 133.114L37.2421 132.898L36.9656 132.453L36.6842 131.993L36.3971 131.518L36.104 131.026L35.8052 130.518L35.5006 129.994L35.0319 129.178L34.5493 128.325L34.2194 127.735L33.7129 126.819L33.1914 125.879L31.2233 122.313L30.7353 121.438L30.205 120.496L29.8131 119.81L29.4235 119.137L29.1334 118.644L28.8472 118.165L28.5658 117.703L28.2898 117.26L28.0211 116.838L27.8459 116.571L27.6747 116.314L27.5078 116.071C27.4806 116.032 27.4533 115.993 27.4258 115.954L27.2657 115.731C27.2397 115.695 27.2135 115.66 27.1871 115.625L27.0348 115.423L26.8873 115.237L26.7462 115.068L26.6108 114.916C26.4124 114.701 26.2358 114.547 26.0859 114.465C25.7929 114.679 25.6377 115.233 25.5756 115.99L25.5591 116.235L25.5484 116.493L25.5436 116.762V117.042L25.5484 117.332L25.5533 117.48L25.5654 117.782L25.5814 118.092L25.6018 118.407L25.6256 118.728L25.6673 119.217L25.7153 119.711L25.7687 120.21L25.8089 120.564L25.8492 120.898L25.9326 121.558L26.0185 122.201L26.2092 123.556L26.2601 123.945L26.4624 125.367L26.5109 125.722C26.5352 125.901 26.5594 126.079 26.5827 126.258L26.6506 126.791L26.6928 127.143L26.7525 127.675L26.8073 128.216L26.8393 128.572L26.867 128.923C26.8718 128.982 26.8757 129.04 26.8796 129.098L26.9014 129.443L26.9179 129.782L26.93 130.116L26.9363 130.445L26.9373 130.607L26.9354 130.926L26.932 131.083L26.9203 131.391C26.8146 133.576 26.1975 135.192 24.5404 135.611C23.6841 135.841 22.7813 135.607 21.6796 134.384L21.5171 134.197C21.4894 134.165 21.4619 134.132 21.4347 134.099L21.2673 133.891C21.1492 133.74 21.0347 133.586 20.9238 133.429L20.7472 133.175C20.7171 133.131 20.6872 133.087 20.6575 133.042L20.4756 132.764L20.2898 132.469C20.2582 132.417 20.2268 132.366 20.1957 132.314L20.005 131.994C19.9725 131.938 19.9401 131.883 19.908 131.827L19.711 131.479L19.5102 131.114L19.4083 130.924L19.2012 130.53L18.9897 130.118L18.7738 129.686L18.6642 129.462L18.442 129L18.3289 128.762L18.0995 128.269L17.8652 127.756L17.6255 127.221L17.3815 126.664L17.1322 126.086L16.7484 125.177L16.4855 124.542L16.2172 123.883L16.0814 123.545L15.8049 122.852L15.5226 122.134L15.2344 121.391L14.301 118.965L13.9969 118.168L13.0601 115.704L12.5668 114.427L12.1534 113.376L11.9065 112.762L11.662 112.164L11.4209 111.587L11.2623 111.217L11.1061 110.859L10.9528 110.516L10.8024 110.188L10.6544 109.876L10.5821 109.727L10.4405 109.443C10.2072 108.986 9.99079 108.611 9.7982 108.347C9.75939 108.496 9.72398 108.669 9.69147 108.863L9.65412 109.107L9.62016 109.37C9.609 109.461 9.59833 109.556 9.58814 109.653L9.55904 109.953L9.53236 110.271L9.5081 110.605L9.47705 111.135L9.45862 111.507L9.42806 112.288L9.40526 113.116L9.38925 113.983L9.37906 114.883L9.37372 116.041V116.784L9.37663 117.658L9.38537 119.038L9.40914 121.501C9.41884 122.229 9.42709 122.965 9.43339 123.705L9.45668 126.796L9.46104 127.638L9.46299 128.858L9.45959 130.029L9.45377 130.783L9.44067 131.874L9.42854 132.574L9.40526 133.586L9.38634 134.235L9.35286 135.171L9.32715 135.769L9.29805 136.349L9.26651 136.908L9.23159 137.448L9.19423 137.97L9.153 138.473L9.13165 138.717L9.08605 139.191C9.07053 139.347 9.05452 139.499 9.03754 139.648L8.98563 140.087L8.95895 140.299L8.90219 140.712L8.84204 141.106L8.77897 141.484L8.71203 141.844L8.64217 142.188L8.60579 142.354L8.53011 142.673C7.99066 144.85 7.19216 145.838 6.07106 145.991L5.98956 146H5.81832L5.70189 145.992C5.15856 145.945 4.64822 145.669 4.15243 145.007L4.04668 144.859L3.94092 144.699C3.82737 144.519 3.72247 144.333 3.62657 144.143L3.52227 143.932C3.48674 143.857 3.45213 143.782 3.41845 143.706L3.31464 143.466C3.29711 143.425 3.27981 143.383 3.26273 143.341L3.15892 143.079L3.05559 142.803C3.03812 142.756 3.02066 142.708 3.00368 142.659L2.90035 142.359C2.88285 142.307 2.86554 142.255 2.84844 142.203L2.74511 141.879C2.72762 141.823 2.71032 141.767 2.6932 141.711L2.58939 141.363L2.48606 140.998L2.38225 140.615L2.27795 140.215L2.22604 140.009L2.12125 139.581L2.01695 139.136L1.91168 138.671L1.85929 138.432L1.70066 137.685L1.54106 136.894L1.43433 136.341L1.32664 135.767L1.21894 135.173L1.11027 134.557L1.00064 133.92L0.891003 133.26L0.724608 132.229L0.556273 131.146L0.5 130.774V115.154L0.777001 117.306L0.952612 118.696C1.07583 119.714 1.20584 120.746 1.33876 121.784L1.72346 124.759L1.95098 126.469L2.17365 128.079L2.33762 129.222L2.44531 129.954L2.60491 131.009L2.76112 132.011L2.91539 132.964L3.06674 133.867L3.21519 134.722L3.31221 135.266L3.40875 135.79L3.55089 136.538L3.69012 137.242L3.82643 137.903L3.96033 138.522L4.09131 139.102L4.21938 139.642L4.34454 140.144L4.42652 140.459L4.50705 140.757L4.58612 141.039L4.66423 141.307L4.74136 141.56L4.81704 141.798L4.89126 142.022L5.00041 142.331L5.10617 142.612L5.17554 142.782L5.24345 142.94L5.3429 143.156L5.40742 143.284L5.47049 143.402L5.53258 143.509L5.59322 143.605L5.65289 143.692L5.71111 143.768L5.76738 143.836L5.79552 143.866L5.85033 143.92L5.87701 143.944L5.91776 143.902L5.95948 143.854L6.00169 143.798L6.04438 143.735L6.08707 143.664L6.13073 143.585L6.17439 143.497L6.24037 143.347L6.28451 143.235C6.29209 143.215 6.29953 143.195 6.30683 143.175L6.37329 142.981L6.41743 142.837L6.46158 142.683L6.50524 142.517L6.5489 142.339L6.59256 142.148L6.65659 141.838L6.6988 141.615L6.74052 141.377L6.80164 140.995L6.86131 140.579L6.90012 140.283L6.9564 139.809L7.01073 139.298L7.04517 138.937L7.07913 138.559L7.12667 137.957L7.15675 137.534L7.19944 136.863L7.22612 136.393L7.26347 135.65L7.28579 135.129L7.31635 134.309L7.34255 133.443L7.36486 132.527L7.38233 131.561L7.39106 130.888L7.39785 130.192L7.4027 129.472L7.40464 128.348L7.40125 127.168L7.37942 124.15L7.37165 123.263L7.33964 120.264L7.3246 117.965L7.32169 116.909L7.32508 115.39L7.33236 114.503L7.34788 113.471L7.36583 112.703L7.38863 111.986L7.40998 111.481L7.43423 111.003L7.47207 110.406L7.50458 109.989L7.52835 109.724L7.55406 109.471L7.58122 109.228L7.61033 108.996L7.64138 108.774L7.67437 108.563L7.70881 108.361L7.72724 108.264L7.76508 108.077L7.80486 107.9L7.84658 107.731L7.89073 107.572L7.9373 107.422L7.96107 107.351L8.01055 107.213L8.06246 107.085L8.08962 107.024L8.14493 106.908L8.17355 106.853L8.23273 106.749L8.29386 106.653C8.33606 106.591 8.37924 106.534 8.42484 106.482L8.49373 106.409L8.56552 106.341C8.66255 106.256 8.76782 106.19 8.87988 106.139L8.96526 106.104C9.03802 106.078 9.1137 106.057 9.19229 106.043L9.28834 106.028C9.30435 106.026 9.32085 106.024 9.33734 106.022C9.96799 105.909 10.5278 106.145 11.0935 106.77L11.206 106.901C11.2628 106.968 11.3195 107.04 11.3763 107.116L11.4908 107.272C11.5286 107.325 11.5669 107.381 11.6053 107.438L11.7207 107.616L11.8371 107.804L11.9545 108.003L12.0729 108.214L12.1927 108.434L12.3751 108.786L12.5614 109.163L12.6245 109.294L12.8156 109.705L13.0121 110.141L13.2134 110.602L13.4206 111.089L13.5622 111.429L13.7795 111.96L13.9285 112.329L14.3146 113.303L14.807 114.571L15.6128 116.68L16.2124 118.258C16.5199 119.064 16.832 119.869 17.1487 120.672L17.4286 121.393L17.7012 122.087L18.0975 123.078L18.4788 124.011L18.7243 124.601L18.964 125.167L19.1968 125.71L19.4229 126.228L19.6426 126.723L19.8561 127.196L20.0637 127.648L20.265 128.077L20.4601 128.486L20.6493 128.875L20.8326 129.243L21.0097 129.593L21.1814 129.923L21.4279 130.385C21.4541 130.434 21.4807 130.482 21.5069 130.53L21.6612 130.807L21.8101 131.067L21.9532 131.311L22.0915 131.54L22.2239 131.753L22.351 131.952L22.5325 132.223L22.647 132.387L22.809 132.609L22.9109 132.743L23.0079 132.864L23.1001 132.975L23.1874 133.074L23.2698 133.164L23.3863 133.281L23.4571 133.349L23.524 133.408L23.6162 133.482L23.6725 133.523L23.7249 133.557L23.7947 133.598L23.8369 133.619L23.8918 133.642L23.9524 133.659L23.9975 133.665C24.5166 133.534 24.763 132.774 24.844 131.702L24.8605 131.44C24.8654 131.35 24.8683 131.258 24.8712 131.165L24.8761 130.882L24.8751 130.588C24.8741 130.489 24.8722 130.389 24.8693 130.288L24.8591 129.979L24.844 129.665L24.8251 129.346L24.8028 129.022L24.7766 128.696L24.732 128.202L24.682 127.707L24.6456 127.377L24.5486 126.562L24.4239 125.62L24.2226 124.205L24.1717 123.816L23.9791 122.451L23.8263 121.314L23.7569 120.759L23.7132 120.395L23.6541 119.857L23.6186 119.505L23.5866 119.158L23.5585 118.817L23.5342 118.482L23.5143 118.153L23.4988 117.83L23.4886 117.514L23.4838 117.205C23.4829 117.104 23.4829 117.003 23.4838 116.903L23.4896 116.608C23.5527 114.522 24.0766 113.02 25.5125 112.509C26.2596 112.257 26.9892 112.515 27.8081 113.294L27.9536 113.437L28.1011 113.591L28.251 113.755L28.3262 113.842L28.4795 114.022L28.6347 114.214L28.7929 114.417L28.953 114.631L29.1169 114.855L29.2833 115.09L29.4531 115.336L29.6253 115.594L29.8907 116L30.0716 116.285L30.2565 116.58L30.4457 116.887L30.7358 117.368L31.0351 117.873L31.2403 118.224L31.6638 118.959L31.9937 119.539L32.8067 120.99L35.6946 126.215L36.0662 126.882L36.4276 127.524L36.7779 128.139L37.1175 128.73L37.4473 129.296L37.7665 129.838L38.076 130.357L38.3758 130.852L38.6655 131.325L38.9459 131.776L39.2165 132.205L39.4785 132.613L39.7308 133.001L39.9748 133.369L40.2096 133.718L40.5458 134.205L40.863 134.652L41.0643 134.928L41.2574 135.187L41.4432 135.429L41.533 135.544L41.7066 135.764L41.8735 135.967L42.0326 136.157L42.1845 136.331L42.3295 136.493L42.4678 136.642L42.5988 136.778L42.7841 136.96L42.8995 137.067L43.0087 137.163L43.1115 137.249L43.209 137.325L43.3007 137.393L43.3866 137.451L43.4676 137.501L43.5428 137.543L43.6466 137.594L43.7097 137.62L43.7955 137.648L43.847 137.659L43.9163 137.669L43.9576 137.67L44.0114 137.666L44.0575 137.656L44.0837 137.647C44.3442 137.535 44.5213 137.245 44.6149 136.777L44.6416 136.623L44.6527 136.541L44.6712 136.37C44.6819 136.252 44.6886 136.125 44.692 135.991L44.6935 135.784C44.6935 135.749 44.6935 135.713 44.6925 135.677L44.6862 135.451L44.6741 135.215L44.6566 134.967L44.6333 134.707L44.6047 134.435L44.5708 134.152L44.531 133.856L44.4859 133.549L44.4349 133.231L44.3481 132.73L44.2836 132.382L44.2132 132.023L44.0973 131.461L44.0134 131.073L43.8766 130.467L43.7786 130.049L43.6209 129.4L43.5093 128.953L43.3914 128.494L43.2047 127.784L43.0058 127.048L42.2907 124.479L41.8464 122.854L41.5917 121.891L41.4039 121.15L41.2734 120.612L41.1536 120.091L41.0445 119.586L40.978 119.26L40.9169 118.94C40.9072 118.888 40.8975 118.835 40.8887 118.783L40.8363 118.476L40.7903 118.176C40.783 118.127 40.7757 118.078 40.7694 118.029L40.7325 117.742C40.7214 117.647 40.7117 117.554 40.7029 117.463L40.6796 117.191L40.6641 116.929C40.5914 115.381 40.9208 114.3 41.8929 113.806C43.0475 113.224 44.2331 113.584 45.1844 114.087L45.3848 114.196L45.5774 114.309L45.7617 114.422L45.9364 114.535C46.6412 114.99 47.3577 115.565 48.0985 116.196L48.5958 116.625L49.3564 117.289L49.6325 117.539L50.2049 118.042L50.6206 118.4L50.8365 118.582L51.1683 118.856L51.5079 119.127L51.7369 119.304L51.8523 119.391L52.0833 119.561L52.3151 119.724L52.5465 119.881L52.7765 120.029C53.771 120.65 54.716 120.995 55.3452 120.622L55.3549 120.616L55.3752 120.597L55.3956 120.569L55.416 120.533L55.4359 120.486C55.4393 120.477 55.4425 120.468 55.4456 120.459L55.4635 120.398L55.4791 120.325L55.4858 120.285L55.4975 120.195L55.5019 120.147L55.5077 120.039C55.5084 120.02 55.5088 120.001 55.5091 119.981L55.5082 119.855L55.5023 119.715C55.5009 119.69 55.4993 119.666 55.4975 119.641L55.482 119.481L55.4606 119.306L55.4315 119.117L55.3946 118.913L55.3733 118.805L55.3238 118.578C55.3147 118.538 55.3053 118.498 55.2957 118.458L55.2326 118.205L55.1584 117.935C55.145 117.888 55.1314 117.841 55.1176 117.795L55.0279 117.499C54.6156 116.183 53.98 114.649 53.2888 113.113L52.9662 112.404L52.6392 111.7L52.3117 111.004L50.577 107.357L50.0268 106.18L49.6887 105.442L49.451 104.911L49.2279 104.401L49.0188 103.911L48.8878 103.594L48.7641 103.287L48.6467 102.988L48.5371 102.698L48.4342 102.416L48.3391 102.143L48.2513 101.878L48.1713 101.621L48.0985 101.372L48.0345 101.131L48.0054 101.014L47.953 100.786C47.6643 99.4378 47.822 98.519 48.5565 97.9643L48.6195 97.9189C49.583 97.186 50.8913 97.4919 52.6634 98.7006L52.9259 98.8841L53.0598 98.9805L53.3324 99.1829L53.6118 99.3981L53.8985 99.626L54.192 99.8658L54.4928 100.119L54.8004 100.384L55.1157 100.66L55.4378 100.95L55.7677 101.25L56.2761 101.725L56.802 102.225L57.1619 102.573L57.7174 103.117L58.0972 103.493L58.6823 104.08L59.2858 104.691L60.3331 105.764L61.6599 107.142L63.8017 109.385L66.0914 111.795L66.707 112.438L67.6127 113.381L68.4986 114.293L69.0768 114.884L69.6459 115.459L70.2052 116.018L70.7544 116.561L71.2933 117.086C72.2723 118.033 73.1998 118.889 74.0696 119.635L74.3651 119.884L74.7852 120.23L75.0505 120.443L75.3043 120.642L75.5468 120.827L75.7777 120.999L76.1042 121.233L76.3084 121.375L76.5961 121.566L76.6868 121.623L76.861 121.732L77.0259 121.83L77.2554 121.96L77.397 122.035L77.53 122.102L77.6541 122.161L77.8254 122.235L77.9297 122.276L78.0718 122.326L78.197 122.363L78.2717 122.382L78.3716 122.401L78.4818 122.415L78.5283 122.417H78.5686C78.6107 122.417 78.6525 122.411 78.6928 122.399L78.717 122.389L78.7316 122.365L78.7442 122.338L78.7602 122.286L78.7709 122.235L78.7806 122.149L78.782 122.068L78.7801 122.007L78.7753 121.94L78.7617 121.826L78.7393 121.695L78.7195 121.598L78.6802 121.439L78.6477 121.321L78.6089 121.196L78.5647 121.061L78.5138 120.917L78.425 120.682L78.3566 120.513L78.2804 120.334L78.1965 120.144L78.1043 119.944L78.0025 119.732L77.8923 119.509L77.7725 119.274L77.643 119.027L77.4295 118.633L77.2733 118.354L77.106 118.063L76.8343 117.6L76.5345 117.107L76.3191 116.759L75.9718 116.212L75.7234 115.828L75.4614 115.429L75.1849 115.015L74.7425 114.363L74.4291 113.908L74.0997 113.437L73.7548 112.948L73.3934 112.443L73.015 111.92C71.8454 110.309 70.5424 108.592 69.1608 106.819L68.3225 105.748C68.1818 105.569 68.0396 105.389 67.897 105.209L67.0355 104.123C66.8909 103.941 66.7454 103.759 66.5998 103.576L65.7203 102.479L64.8326 101.378L63.9385 100.275L63.041 99.1735L61.6943 97.5264L59.4696 94.8182L56.7103 91.4646L54.7262 89.0415L53.526 87.568L52.6882 86.5339L51.6515 85.2462L50.9335 84.3468L50.0506 83.2308L49.4442 82.4553L48.8839 81.7284L48.3682 81.0503L48.0481 80.6233L47.7473 80.2166L47.465 79.8289L47.2006 79.46L47.0749 79.2827L46.8372 78.9408L46.6165 78.6164L46.4123 78.3086L46.3162 78.1606L46.1367 77.8768L45.9727 77.6077C45.9471 77.565 45.9218 77.5221 45.8966 77.4791L45.7559 77.2323L45.6298 76.9992L45.5182 76.7797C44.9079 75.5351 45.0146 74.9383 45.4954 74.4768L45.5754 74.404L45.6531 74.3416L45.7336 74.2848C46.0052 74.1061 46.3215 74.0276 46.7135 74.0664L46.8338 74.0815L46.8954 74.0919L47.023 74.1174C47.0667 74.1273 47.1103 74.1387 47.1555 74.1505L47.2932 74.1912L47.364 74.2144L47.5101 74.2664L47.6619 74.3255L47.8201 74.3926L47.9011 74.429L48.0684 74.508L48.2421 74.5946L48.4226 74.6896L48.6098 74.7927L48.8039 74.9038L49.0057 75.0235L49.322 75.2192L49.5427 75.3602L49.8886 75.5881L50.2534 75.8359L50.6366 76.104L51.0407 76.3925L51.3211 76.5967L51.9105 77.0332L52.5388 77.508L53.2077 78.022L53.9189 78.5762L54.2905 78.8685L55.2768 79.6544L56.3018 80.4805L57.0052 81.0517L58.089 81.9375L59.2043 82.8548L61.1258 84.4451L65.9925 88.4982L69.1966 91.1704L70.2484 92.0434L71.6096 93.1651L73.243 94.5009L73.8756 95.0145L75.1039 96.0061L76.2847 96.9505L77.4169 97.847L78.2343 98.4883L79.0246 99.103L79.7877 99.6908L80.281 100.068L81.2319 100.786L81.6889 101.126L82.1337 101.456L82.7784 101.927L83.3955 102.372L83.7918 102.652L84.3633 103.052L84.7291 103.304L85.2544 103.658L85.5897 103.879L86.0699 104.189L86.3741 104.38L86.6666 104.56L86.8083 104.645L87.0819 104.805L87.3438 104.955L87.5927 105.092L87.8304 105.217L88.0545 105.33L88.1627 105.382L88.3689 105.477C88.8356 105.684 89.2018 105.793 89.4672 105.803C89.4817 105.5 89.3217 105.041 89.0296 104.47L88.9137 104.25C88.8932 104.212 88.8725 104.174 88.8516 104.136L88.7182 103.902L88.5741 103.658L88.4193 103.405L88.2544 103.144L88.0798 102.875L87.8964 102.599L87.6053 102.172L87.2963 101.73L86.9718 101.277L86.7476 100.969L86.4003 100.499L86.0418 100.021L85.4238 99.2132L84.9158 98.5597L84.39 97.8929L83.9864 97.3855L83.459 96.7282L82.6926 95.7815L81.4672 94.2858L80.1559 92.6926L78.5972 90.785L77.8836 89.9012L77.2137 89.0628L76.7392 88.4632L76.29 87.8872L76.0038 87.516L75.7282 87.1557L75.3353 86.6336L74.9666 86.1338L74.6217 85.6552L74.301 85.198L74.1002 84.9048L73.911 84.6201L73.7315 84.3439L73.5627 84.0768C73.5358 84.0334 73.5092 83.9899 73.4826 83.9463L73.3298 83.6918L73.1877 83.4455C73.1421 83.3646 73.0979 83.2847 73.0557 83.2067L72.9345 82.9759L72.8243 82.7527L72.7239 82.5371C72.6634 82.4023 72.607 82.2657 72.5551 82.1275L72.4867 81.9337L72.4285 81.7464C72.1626 80.8262 72.2868 80.1542 72.7904 79.6364C73.7946 78.5913 75.3256 78.7171 77.1841 79.4132L77.4727 79.5243L77.7662 79.6445L78.0646 79.7726L78.3678 79.9083L78.6753 80.0507L78.9872 80.2001L79.4627 80.4351L79.7853 80.5983L80.2752 80.8527L80.9413 81.2059L82.8832 82.2543L83.4193 82.5404L83.9771 82.8326C84.0713 82.8818 84.1658 82.9305 84.2609 82.9792L84.681 83.192L85.0832 83.3906L85.35 83.5192L85.7478 83.7056L86.0093 83.8238L86.2669 83.9373L86.5201 84.0441L86.7675 84.1444L86.8888 84.1917L87.1265 84.2806L87.3564 84.361C87.4316 84.3865 87.5054 84.4101 87.5777 84.4324L87.7897 84.4938C88.445 84.6721 88.9462 84.6925 89.1703 84.4565C89.7379 83.8536 89.6845 83.0133 89.3124 81.8358L89.2241 81.5681C89.2085 81.5222 89.1927 81.4763 89.1766 81.4305L89.0747 81.1459L88.9632 80.8498L88.7822 80.3831L88.625 79.9826C88.5775 79.8606 88.5299 79.7376 88.4829 79.6137L88.3432 79.2416L88.2534 78.9914L88.1676 78.7408L88.0861 78.4887L88.0099 78.2362C87.5733 76.7221 87.4884 75.1989 88.6789 73.9481C89.7262 72.8416 91.2975 72.9277 93.0726 73.5102L93.3539 73.6062L93.6392 73.7098L93.9268 73.8204C93.9754 73.8394 94.0239 73.8583 94.0719 73.8781L94.363 73.9983L94.6569 74.1236L94.8044 74.1884L95.2493 74.3889L95.8469 74.6688L96.1472 74.8126L96.7585 75.1105L97.9882 75.7158L98.5345 75.9787L98.8134 76.1106L99.2355 76.305L99.5178 76.4312L99.7992 76.5537L100.078 76.671C100.17 76.7088 100.262 76.7466 100.354 76.7821L100.624 76.8861C100.669 76.9032 100.714 76.9192 100.758 76.9353L101.019 77.0271C101.922 77.3321 102.679 77.4597 103.052 77.2115C103.051 77.001 102.953 76.7041 102.778 76.3385L102.684 76.1499L102.577 75.9503L102.46 75.7403L102.33 75.5205L102.189 75.2911L102.037 75.0528C102.011 75.0117 101.985 74.9707 101.958 74.9298L101.792 74.6792L101.526 74.2881L101.338 74.0186L101.041 73.6025L100.728 73.1726L100.401 72.7319L100.061 72.2812L99.7094 71.8225L99.2267 71.2012L98.9808 70.8876L98.4505 70.2185L98.1828 69.8833L97.6438 69.2141L97.1053 68.5502L96.3073 67.5751L94.3872 65.2438L93.139 63.7202L92.3599 62.7603L91.6245 61.8438L91.1006 61.1846L90.7654 60.7581L90.1269 59.9357L89.6768 59.346L89.2508 58.7781L88.9811 58.4116L88.722 58.0551L88.4746 57.7075L88.2374 57.3694L88.0118 57.0408L87.9032 56.88L87.6946 56.5641L87.4967 56.2577C87.4649 56.2078 87.4334 56.1578 87.402 56.1078L87.2211 55.8146L87.0513 55.5299C86.9978 55.4381 86.945 55.3459 86.8932 55.2533L86.7462 54.9856C85.7105 53.0501 85.5897 51.7748 86.4367 50.9359C87.256 50.1462 88.5164 50.2171 90.8483 51.5274L91.1515 51.7015C91.2548 51.762 91.3601 51.8244 91.4668 51.8892L91.7948 52.0906L92.1348 52.3063L92.488 52.5361C92.5481 52.5753 92.6083 52.6155 92.6694 52.6562L93.042 52.9073L93.2336 53.0388L93.6266 53.3121L94.0341 53.6001L94.6715 54.0607L95.3419 54.5558L95.8076 54.9048L96.2894 55.2703L96.7861 55.6514L97.2994 56.0486L97.8286 56.4619L98.6538 57.1131L99.5173 57.8021L100.421 58.5289L101.687 59.5588L103.028 60.6588L104.087 61.5341L108.245 64.9625L109.545 66.0245L110.492 66.7934L111.11 67.29L112.012 68.0088L112.597 68.4693L113.168 68.9138L113.723 69.3394L113.995 69.5456L114.433 69.8743L114.919 70.2322L115.222 70.4526L115.649 70.7571L116.042 71.0314L116.402 71.2764L116.834 71.5615L117.031 71.6873L117.215 71.8022L117.547 72.0022L117.765 72.1275L117.96 72.2335L118.133 72.3219C118.087 72.2215 118.04 72.1222 117.99 72.024L117.876 71.8065C117.856 71.7691 117.835 71.7308 117.814 71.693L117.68 71.4537L117.532 71.2016L117.371 70.9364L117.198 70.6583C117.168 70.6105 117.138 70.5627 117.108 70.515L116.818 70.0677L116.611 69.7556L116.394 69.4331L116.051 68.9313L115.687 68.4093L115.04 67.4995L114.63 66.932L114.061 66.1555L113.621 65.5597L112.711 64.342L112.088 63.5169L111.754 63.0771C111.39 62.5975 111.024 62.1187 110.658 61.6405L109.564 60.2157L106.005 55.5989L105.337 54.7265L104.692 53.8805L104.071 53.0615L103.474 52.2684L102.9 51.501L102.349 50.7585L101.82 50.0412L101.314 49.3475L100.829 48.6779L100.366 48.0314L99.9238 47.4082L99.5018 46.8071L99.299 46.5149L98.908 45.9465L98.7203 45.6703L98.3589 45.1336L98.0164 44.6172L97.6933 44.1217L97.3891 43.6455L97.1029 43.1882L96.8346 42.7498C96.791 42.6784 96.7488 42.608 96.707 42.5375L96.4645 42.1266L96.2394 41.7331L96.0308 41.3572C95.9347 41.1805 95.8407 41.0027 95.7489 40.8238L95.5806 40.4885C94.3227 37.9236 94.4842 36.7911 95.3026 36.1063C95.4312 35.9999 95.5846 35.9258 95.7494 35.8907C95.9141 35.8556 96.0852 35.8605 96.2476 35.9049C96.2083 35.589 96.3252 35.2618 96.5921 35.0381C97.3028 34.4338 98.2929 34.4739 99.7298 35.2386L99.9602 35.3653L100.079 35.4334L100.321 35.5786C100.361 35.6037 100.403 35.6292 100.444 35.6557L100.698 35.8188L100.96 35.9947L101.23 36.1825C101.276 36.2151 101.322 36.2477 101.368 36.2813L101.65 36.4879L101.795 36.5962L102.09 36.8218L102.241 36.9395L102.55 37.184L102.867 37.4417L103.194 37.7122L103.53 37.9955L103.875 38.2915L104.23 38.6008C105.453 39.6761 106.782 40.9292 108.149 42.267L108.898 43.0047L109.653 43.7556L110.41 44.517L110.788 44.9005L111.544 45.6708L112.296 46.4426L113.043 47.2129L114.146 48.3577L114.867 49.1096C115.33 49.5882 115.79 50.0691 116.249 50.5486L117.613 51.9819L119.662 54.1382L120.599 55.1209L121.372 55.929L122.659 57.2625L123.74 58.3691L124.441 59.0793L124.954 59.5924L125.454 60.0871L125.779 60.4053L126.252 60.8635L126.558 61.1548L126.854 61.4343L127.141 61.7015L127.554 62.0765L127.816 62.3091L127.942 62.4193L128.187 62.6288L128.419 62.8227L128.531 62.9125L128.744 63.0804C128.812 63.1334 128.879 63.1835 128.943 63.2303C128.916 63.1517 128.887 63.0736 128.858 62.9957L128.759 62.7423L128.646 62.4718L128.521 62.1843L128.385 61.8812L128.237 61.5629L127.995 61.0598L127.731 60.5273L127.543 60.158L127.247 59.5839L126.934 58.9881L126.717 58.5814L126.381 57.9572L126.151 57.5335L125.556 56.4534L124.944 55.3545L124.293 54.1959L123.006 51.9232C122.708 51.4024 122.412 50.8806 122.117 50.358L120.121 46.8095L119.702 46.06L119.298 45.3303L118.907 44.6205L118.346 43.5911L117.814 42.6047L117.477 41.97L117.152 41.3539L116.841 40.7557L116.542 40.1755L116.257 39.6127L115.985 39.0675L115.725 38.5388L115.599 38.2811L115.358 37.778L115.129 37.2909L114.913 36.8204L114.71 36.3655C114.676 36.2912 114.644 36.2175 114.612 36.1442L114.426 35.7129L114.253 35.2968L114.091 34.8958C114.066 34.8309 114.04 34.7659 114.015 34.7009L113.871 34.3226C112.677 31.1023 112.809 29.5111 114.007 28.8211C114.116 28.7559 114.231 28.6996 114.35 28.6533L114.471 28.6107C115.228 28.3695 116.193 28.5355 117.594 29.4335L117.825 29.5862C117.903 29.6387 117.983 29.6941 118.064 29.7518L118.311 29.93L118.437 30.0246L118.697 30.2242C118.785 30.2927 118.874 30.3641 118.965 30.4379L119.242 30.6658L119.528 30.9089L119.823 31.1671L120.127 31.4414C120.179 31.4877 120.231 31.5355 120.284 31.5837L120.603 31.8811L120.932 32.1947L121.101 32.3578L121.445 32.6964L121.801 33.052L122.167 33.4246L122.544 33.8152L122.932 34.2233L123.332 34.6499C123.4 34.7227 123.468 34.796 123.536 34.8702L123.953 35.3242L124.383 35.798L124.824 36.2907L125.278 36.8029L125.744 37.3353L126.223 37.8877L126.716 38.4608L127.221 39.0547L127.479 39.3593C128.128 40.1189 128.773 40.8827 129.412 41.6504L131.255 43.8677L131.842 44.5695L132.509 45.3601L133.171 46.1361L133.692 46.7381L134.075 47.1746L134.573 47.7302L134.934 48.1241L135.167 48.3747L135.506 48.7289L135.722 48.9502L135.932 49.1583L136.132 49.3527L136.229 49.4444L136.418 49.6165L136.596 49.7726C136.856 49.9948 137.082 50.1603 137.267 50.2568C137.345 49.9896 137.325 49.5418 137.238 48.9819L137.194 48.7152L137.14 48.4348L137.079 48.1411L137.01 47.8357L136.935 47.5207L136.854 47.1973L136.767 46.8663L136.629 46.3612L136.532 46.0198L136.331 45.3332L136.225 44.9814L136.038 44.3737L135.853 43.784L135.506 42.6926L135.055 41.2952L134.881 40.7462L134.767 40.3821C134.692 40.1417 134.617 39.901 134.544 39.66L134.437 39.3025L134.225 38.5767L134.075 38.0409L133.98 37.6876L133.89 37.3387L133.804 36.9935L133.722 36.652L133.646 36.3153L133.575 35.9834L133.51 35.6561C133.499 35.6023 133.489 35.5484 133.479 35.4944L133.423 35.1752C133.415 35.1226 133.406 35.07 133.398 35.0173L133.351 34.7061L133.311 34.4011C133.305 34.3509 133.299 34.3006 133.294 34.2503L133.265 33.9543C133.077 31.7563 133.524 30.0955 135.158 29.4099C136.018 29.0505 136.97 29.3399 137.994 30.288C138.7 30.9567 139.468 31.9445 140.359 33.3116C141.198 34.604 142.076 36.1408 142.939 37.7477L143.37 38.5563L143.797 39.3711L144.218 40.1882L144.633 41.0025L145.239 42.2079L145.436 42.6028C145.669 43.0662 145.9 43.5272 146.127 43.9859L147.758 47.2824L148.504 48.7795L149.146 50.0468L149.463 50.663L149.878 51.4551L150.181 52.0225L150.475 52.5602L150.759 53.0652L150.941 53.3811L151.118 53.679L151.289 53.9571L151.452 54.2148C151.612 54.4607 151.761 54.674 151.896 54.8475C151.924 54.5917 151.934 54.2753 151.93 53.9141L151.923 53.593L151.91 53.252C151.908 53.1928 151.905 53.1335 151.901 53.0742L151.88 52.7063L151.852 52.3233L151.821 51.9261L151.785 51.518L151.745 51.1009L151.68 50.4616L151.608 49.8123L151.504 48.911L151.406 48.1095L151.262 46.9537C151.167 46.2459 151.078 45.5373 150.995 44.8281L150.903 44.0692L150.763 42.8539L150.688 42.154L150.62 41.4773L150.56 40.8228L150.524 40.3991L150.477 39.7825L150.438 39.1886L150.417 38.8055L150.393 38.249L150.382 37.891L150.375 37.5434L150.373 37.2058L150.375 36.8781L150.382 36.5612C150.385 36.4572 150.389 36.3546 150.394 36.2539L150.41 35.9574C150.416 35.86 150.423 35.7644 150.431 35.6708L150.457 35.3946L150.488 35.1289L150.505 34.9998L150.544 34.7492C150.815 33.1556 151.424 32.2169 152.5 31.9544C154.201 31.6598 155.542 32.9711 156.633 34.6655L156.796 34.9222L156.875 35.0527L157.032 35.3166L157.185 35.5838L157.334 35.8533L157.553 36.2605L157.763 36.6686L157.967 37.0738L158.292 37.7354L158.418 37.9922L159.084 39.3423L159.337 39.8435L159.537 40.2303L159.674 40.489L159.885 40.8739L160.028 41.125L160.171 41.3695L160.314 41.605L160.457 41.8296C160.885 42.485 161.298 42.964 161.622 43.0118C161.782 42.8241 161.921 42.4382 162.04 41.9166L162.094 41.666L162.145 41.3983L162.169 41.2579L162.217 40.9656L162.263 40.6588L162.306 40.3386L162.346 40.0071L162.385 39.6648L162.422 39.3139L162.457 38.9545L162.506 38.405L162.551 37.8456L162.619 36.9045L162.679 35.9706L162.779 34.2101L162.925 31.6882L162.987 30.7032L163.038 29.9915L163.091 29.303L163.147 28.6381L163.187 28.2078L163.228 27.7879L163.294 27.1779L163.365 26.592L163.415 26.2146L163.467 25.8477L163.521 25.4916L163.55 25.3176L163.608 24.9776C163.618 24.9218 163.627 24.8664 163.638 24.812L163.7 24.4876L163.732 24.3302L163.798 24.0228L163.868 23.7258L163.941 23.4402L164.016 23.165L164.095 22.9011L164.177 22.6486L164.263 22.407C164.831 20.8711 165.626 20.0378 166.772 19.9494C168.435 19.9106 169.598 21.4972 170.499 24.5912L170.608 24.9776C170.661 25.1743 170.714 25.3771 170.767 25.5852L170.869 26.0089L170.97 26.4477L171.02 26.6728L171.117 27.1339L171.212 27.6096L171.306 28.1005L171.398 28.6055L171.488 29.1257L171.576 29.66L171.663 30.2086L171.79 31.0597C171.804 31.1557 171.818 31.2527 171.832 31.3506L171.914 31.9426L171.996 32.5493L172.076 33.1707L172.156 33.8058L172.274 34.7856L172.352 35.4561L172.467 36.4884L172.619 37.9142L172.771 39.3995L173.052 42.2661L173.327 45.0249L173.402 45.7696L173.617 47.8097L173.785 49.3077L173.9 50.279L174.018 51.2191L174.109 51.8991L174.201 52.5536L174.264 52.9745L174.359 53.5807L174.423 53.9656L174.488 54.3349L174.554 54.6877L174.621 55.022L174.688 55.3379L174.722 55.4883L174.791 55.7739C174.848 56.0033 174.906 56.2104 174.965 56.3929L175.002 56.5036L175.036 56.4043L175.07 56.2969L175.137 56.0671L175.203 55.8174L175.27 55.5479L175.303 55.406L175.403 54.9525L175.469 54.6276L175.535 54.2853L175.6 53.9259L175.666 53.5504L175.763 52.9579L175.86 52.3313L175.957 51.6736L176.084 50.75L176.242 49.5281L176.367 48.5019L176.46 47.707L176.644 46.059L176.795 44.6366L177.003 42.5867L177.175 40.8181L177.392 38.5024L177.646 35.7266L178.171 29.8752L178.425 27.1277L178.609 25.17L178.79 23.2984L178.968 21.5123L179.142 19.8099L179.313 18.1894L179.483 16.6497L179.652 15.1885L179.763 14.2583L179.875 13.3622L179.985 12.4992L180.097 11.6697C180.115 11.534 180.133 11.4002 180.152 11.2673L180.263 10.4866L180.374 9.73803L180.486 9.02114L180.598 8.33547C180.636 8.11179 180.674 7.8938 180.712 7.68053L180.825 7.05632C181.758 2.07736 182.787 0.0903202 184.249 0.0122949L184.339 0.00993049C184.36 0.00993049 184.38 0.00993049 184.411 0V0.000472881Z" fill="white" fill-opacity="0.1"/>
</svg>
